<svg width="1837" height="1836" viewBox="0 0 1837 1836" fill="none" xmlns="http://www.w3.org/2000/svg">
<g clip-path="url(#clip0)">
<path d="M0 918C0 1424.99 411.218 1836 918.5 1836C1425.78 1836 1837 1424.99 1837 918C1837 411.007 1425.77 0 918.5 0C411.233 0 0 411.007 0 918ZM1039.69 918C1039.69 984.942 985.422 1039.22 918.5 1039.22C851.577 1039.22 797.314 984.942 797.314 918C797.314 851.058 851.577 796.779 918.5 796.779C985.422 796.779 1039.69 851.058 1039.69 918Z" fill="#000017"/>
<circle opacity="0.9" cx="919" cy="918" r="132" fill="#000017"/>
<path opacity="0.9" d="M918.5 238C543.22 238 239 542.22 239 917.5C239 1292.78 543.22 1597 918.5 1597C1293.78 1597 1598 1292.78 1598 917.5C1598 542.22 1293.78 238 918.5 238ZM916.235 1040.9C849.342 1040.9 795.103 986.658 795.103 919.765C795.103 852.872 849.342 798.633 916.235 798.633C983.128 798.633 1037.37 852.872 1037.37 919.765C1037.37 986.658 983.128 1040.9 916.235 1040.9Z" fill="url(#paint0_radial)"/>
<circle cx="919" cy="918" r="132" fill="url(#paint1_radial)"/>
</g>
<defs>
<radialGradient id="paint0_radial" cx="0" cy="0" r="1" gradientUnits="userSpaceOnUse" gradientTransform="translate(918.5 917.5) scale(679.5)">
<stop stop-color="#D7006C" stop-opacity="0.86"/>
<stop offset="0.239583" stop-color="#7D003B" stop-opacity="0.87"/>
<stop offset="0.239683" stop-color="#7C003B" stop-opacity="0.866769"/>
<stop offset="0.239783" stop-color="#7B003A" stop-opacity="0.863648"/>
<stop offset="0.578125" stop-color="#3B0028" stop-opacity="0.66"/>
<stop offset="1" stop-color="#000019" stop-opacity="0.62"/>
</radialGradient>
<radialGradient id="paint1_radial" cx="0" cy="0" r="1" gradientUnits="userSpaceOnUse" gradientTransform="translate(919 918) rotate(90) scale(146)">
<stop stop-color="#830245"/>
<stop offset="1" stop-color="#71003B"/>
</radialGradient>
<clipPath id="clip0">
<rect width="1837" height="1836" fill="white"/>
</clipPath>
</defs>
</svg>
