<svg id="Слой_1" data-name="Слой 1" xmlns="http://www.w3.org/2000/svg" xmlns:xlink="http://www.w3.org/1999/xlink" viewBox="0 0 1214 1214">
  <defs>
    <style>
      .cls-1 {
        fill: url(#Безымянный_градиент);
      }

      .cls-2 {
        fill: url(#Безымянный_градиент_2);
      }

      .cls-3 {
        fill: url(#Безымянный_градиент_3);
      }

      .cls-4 {
        fill: url(#Безымянный_градиент_4);
      }

      .cls-5 {
        fill: url(#Безымянный_градиент_5);
      }

      .cls-6 {
        fill: url(#Безымянный_градиент_6);
      }

      .cls-7 {
        fill: url(#Безымянный_градиент_7);
      }

      .cls-8 {
        fill: #000017;
      }

      .cls-9 {
        fill: #080808;
      }

      .cls-10 {
        fill: #1e0c22;
      }

      .cls-11 {
        fill: #6522eb;
      }

      .cls-12 {
        opacity: 0.4;
        fill: url(#Безымянный_градиент_8);
      }

      .cls-12, .cls-13, .cls-14, .cls-16, .cls-18, .cls-19 {
        isolation: isolate;
      }

      .cls-13 {
        fill: #6987df;
        stroke: #fff;
        stroke-width: 0.5px;
      }

      .cls-13, .cls-21 {
        stroke-miterlimit: 10;
      }

      .cls-13, .cls-14 {
        opacity: 0.7;
      }

      .cls-14 {
        fill: url(#Безымянный_градиент_9);
      }

      .cls-15 {
        fill: #937bcd;
      }

      .cls-16 {
        fill: #932fcd;
      }

      .cls-16, .cls-18 {
        opacity: 0.8;
      }

      .cls-17 {
        fill: #5fd8ff;
      }

      .cls-18 {
        fill: url(#Безымянный_градиент_10);
      }

      .cls-19 {
        opacity: 0.5;
        fill: url(#Безымянный_градиент_11);
      }

      .cls-20 {
        opacity: 0.04;
      }

      .cls-21 {
        fill: none;
        stroke: #000;
        stroke-width: 2px;
      }

      .cls-22 {
        fill: url(#Безымянный_градиент_3-2);
      }

      .cls-23 {
        fill: url(#Безымянный_градиент_3-3);
      }

      .cls-24 {
        fill: url(#Безымянный_градиент_3-4);
      }
    </style>
    <linearGradient id="Безымянный_градиент" data-name="Безымянный градиент" x1="21.8053" y1="498.9716" x2="207.956" y2="498.9716" gradientTransform="matrix(1, 0, 0, -1, 0, 1216)" gradientUnits="userSpaceOnUse">
      <stop offset="0" stop-color="#0c153c"/>
      <stop offset="1" stop-color="#1e0c22"/>
    </linearGradient>
    <linearGradient id="Безымянный_градиент_2" data-name="Безымянный градиент 2" x1="112.3097" y1="927.6961" x2="112.3097" y2="262.8832" xlink:href="#Безымянный_градиент"/>
    <linearGradient id="Безымянный_градиент_3" data-name="Безымянный градиент 3" x1="44.733" y1="743.4389" x2="287.3608" y2="323.1951" gradientTransform="matrix(1, 0, 0, -1, 0, 1216)" gradientUnits="userSpaceOnUse">
      <stop offset="0" stop-color="#132553"/>
      <stop offset="0.4337" stop-color="#162553"/>
      <stop offset="0.7232" stop-color="#1f2455"/>
      <stop offset="0.9704" stop-color="#2e2358"/>
      <stop offset="1" stop-color="#302358"/>
    </linearGradient>
    <linearGradient id="Безымянный_градиент_4" data-name="Безымянный градиент 4" x1="11.1522" y1="512.8848" x2="128.6428" y2="512.8848" gradientTransform="matrix(1, 0, 0, -1, 0, 1216)" gradientUnits="userSpaceOnUse">
      <stop offset="0" stop-color="#251079"/>
      <stop offset="0.4644" stop-color="#281470"/>
      <stop offset="0.9944" stop-color="#2e1a5f"/>
    </linearGradient>
    <linearGradient id="Безымянный_градиент_5" data-name="Безымянный градиент 5" x1="138.4663" y1="965.0112" x2="397.7524" y2="965.0112" gradientTransform="matrix(1, 0, 0, -1, 0, 1216)" gradientUnits="userSpaceOnUse">
      <stop offset="0" stop-color="#4a1496"/>
      <stop offset="0.1868" stop-color="#441d96"/>
      <stop offset="0.4972" stop-color="#343796"/>
      <stop offset="0.8909" stop-color="#1b6096"/>
      <stop offset="0.9944" stop-color="#136c96"/>
    </linearGradient>
    <linearGradient id="Безымянный_градиент_6" data-name="Безымянный градиент 6" x1="45.7647" y1="617.9048" x2="179.8448" y2="617.9048" gradientTransform="matrix(1, 0, 0, -1, 0, 1216)" gradientUnits="userSpaceOnUse">
      <stop offset="0" stop-color="#193a76"/>
      <stop offset="1" stop-color="#3b2b74"/>
    </linearGradient>
    <linearGradient id="Безымянный_градиент_7" data-name="Безымянный градиент 7" x1="240.0158" y1="1098.8133" x2="240.0158" y2="383.5762" xlink:href="#Безымянный_градиент_6"/>
    <linearGradient id="Безымянный_градиент_8" data-name="Безымянный градиент 8" x1="120.1956" y1="278.169" x2="180.9762" y2="278.169" gradientTransform="matrix(1, 0, 0, -1, 0, 1216)" gradientUnits="userSpaceOnUse">
      <stop offset="0" stop-color="#5fd8ff"/>
      <stop offset="0.9921" stop-color="#d84aff"/>
    </linearGradient>
    <radialGradient id="Безымянный_градиент_9" data-name="Безымянный градиент 9" cx="174.9486" cy="281.9936" fx="191.57389684128128" r="35.1797" gradientTransform="matrix(1, 0, 0, -1, 0, 1216)" gradientUnits="userSpaceOnUse">
      <stop offset="0" stop-color="#cce0f4"/>
      <stop offset="0.0698" stop-color="#c5dff5" stop-opacity="0.9744"/>
      <stop offset="0.1859" stop-color="#b2def7" stop-opacity="0.9051"/>
      <stop offset="0.3339" stop-color="#93dcfa" stop-opacity="0.7923"/>
      <stop offset="0.5065" stop-color="#69d9fe" stop-opacity="0.6374"/>
      <stop offset="0.5451" stop-color="#5fd8ff" stop-opacity="0.6"/>
      <stop offset="1" stop-color="#294996" stop-opacity="0.5"/>
    </radialGradient>
    <linearGradient id="Безымянный_градиент_10" data-name="Безымянный градиент 10" x1="139.1246" y1="394.4317" x2="184.5696" y2="394.4317" xlink:href="#Безымянный_градиент_8"/>
    <linearGradient id="Безымянный_градиент_11" data-name="Безымянный градиент 11" x1="120.1956" y1="278.169" x2="180.9762" y2="278.169" gradientTransform="matrix(1, 0, 0, -1, 0, 1216)" gradientUnits="userSpaceOnUse">
      <stop offset="0" stop-color="#6987df"/>
      <stop offset="0.9921" stop-color="#c54aff"/>
    </linearGradient>
    <linearGradient id="Безымянный_градиент_3-2" x1="986.5937" y1="303.326" x2="1055.533" y2="303.326" gradientTransform="matrix(1, 0, 0, 1, 0, 0)" xlink:href="#Безымянный_градиент_3"/>
    <linearGradient id="Безымянный_градиент_3-3" x1="843.3636" y1="205.6076" x2="993.5938" y2="205.6076" gradientTransform="matrix(1, 0, 0, 1, 0, 0)" xlink:href="#Безымянный_градиент_3"/>
    <linearGradient id="Безымянный_градиент_3-4" x1="999.5098" y1="353.4323" x2="1118.4423" y2="353.4323" gradientTransform="matrix(1, 0, 0, 1, 0, 0)" xlink:href="#Безымянный_градиент_3"/>
  </defs>
  <g id="ЦГ1">
    <g id="Слой_50" data-name="Слой 50">
      <g id="шар4">
        <path class="cls-1" d="M183.4644,998.2373a24.4387,24.4387,0,0,1-18.2876-8.1875c-11.2139-12.5654-21.9952-25.7949-32.045-39.32A561.9147,561.9147,0,0,1,30.667,515.6147a571.5441,571.5441,0,0,1,14.7583-62.2739,24.5,24.5,0,1,1,46.9668,13.97h0a522.2615,522.2615,0,0,0-13.4878,56.9146c-25.186,141.0952,8.04,282.1855,93.5591,397.2808,9.1806,12.3554,19.0288,24.44,29.272,35.9179a24.5006,24.5006,0,0,1-18.271,40.8135Z"/>
        <path class="cls-2" d="M165.8506,953.1167a16.9728,16.9728,0,0,1-13.6284-6.8213C100.104,876.5889,65.8809,797.4951,50.5039,711.21a554.2244,554.2244,0,0,1,91.3306-415.56,17,17,0,0,1,27.9838,19.3108q-.0483.07-.0971.1392C89.9688,429.4434,59.5176,567.999,83.9766,705.2451c14.4384,81.0176,46.561,155.2691,95.476,220.6909a17.0013,17.0013,0,0,1-13.602,27.1808Z"/>
        <path class="cls-3" d="M206.7617,936.7153A16.967,16.967,0,0,1,193.51,930.377a502.0608,502.0608,0,0,1-103.56-404.18,507.54,507.54,0,0,1,24.5845-89.503,17,17,0,0,1,31.8174,11.9854,470.0709,470.0709,0,0,0,73.64,460.3735,17.0005,17.0005,0,0,1-13.23,27.6626Z"/>
        <path class="cls-4" d="M124.6465,949.9082a3.9951,3.9951,0,0,1-3.2305-1.6372A568.24,568.24,0,0,1,20.12,511.3516c3.1255-17.5093,7.0967-35.0357,11.8033-52.0923a4,4,0,0,1,7.7119,2.1279h0c-4.6411,16.8193-8.5572,34.103-11.6392,51.37C.7466,665.4106,36.2158,818.4,127.87,943.5444a4.0007,4.0007,0,0,1-3.2236,6.3638Z"/>
        <path class="cls-5" d="M139.4653,366.4a1,1,0,0,1-.8755-1.4814A517.5857,517.5857,0,0,1,396.3745,135.6519a1,1,0,1,1,.7549,1.8525A515.5774,515.5774,0,0,0,140.3428,365.8813,1,1,0,0,1,139.4653,366.4Z"/>
        <path class="cls-6" d="M152.7983,936.6177a.5.5,0,0,1-.4018-.2017C1.0129,732.6789,12.0746,450.9825,178.9683,259.7437a.5.5,0,1,1,.7529.6582A537.5829,537.5829,0,0,0,55.2778,520.0078c-26.3613,147.6777,8.4146,295.3491,97.9214,415.8115a.5.5,0,0,1-.4009.7984Z"/>
        <path class="cls-7" d="M103.65,832.4238a.5.5,0,0,1-.458-.2978c-5.48-12.39-10.541-25.1215-15.0445-37.84C43.8911,669.2759,48.3892,533.06,100.814,410.729A525.9063,525.9063,0,0,1,372.3784,136.0864c16.0156-7.0825,32.521-13.4331,49.0571-18.8745a.5.5,0,0,1,.3125.95c-16.5048,5.4312-32.9794,11.77-48.9653,18.8389C122.4741,247.6958-2.1382,536.2627,89.09,793.9517c4.4951,12.6953,9.5474,25.4028,15.0166,37.77a.4992.4992,0,0,1-.4565.7021Z"/>
        <path class="cls-8" d="M100.938,715.1865a11.0035,11.0035,0,0,1-10.7944-8.9472A515.2517,515.2517,0,0,1,324.7305,173.1a11,11,0,0,1,11.6306,18.6743l-.0545.0337C164.21,298.2993,73.97,503.3823,111.7563,702.13a11.0082,11.0082,0,0,1-10.8183,13.0566Z"/>
        <path class="cls-9" d="M126.3345,744.4751a.5.5,0,0,1-.481-.3652,480.9717,480.9717,0,0,1,163.47-505.7818A486.6946,486.6946,0,0,1,344.76,200.105a.5.5,0,0,1,.5088.8608,485.7309,485.7309,0,0,0-55.322,38.1442,479.1782,479.1782,0,0,0-163.13,504.73.5.5,0,0,1-.4819.6349Z"/>
        <circle class="cls-10" cx="168.7" cy="932.9372" r="58.1472"/>
        <path class="cls-11" d="M141.29,970.4371c-8.0387-5.7274-16.5037-7.6366-18.91-4.2612-.88,1.2367-.8283,3.0089-.0094,5.0425a44.1525,44.1525,0,0,1-3.4949-28.6782l.0015-.003a43.3852,43.3852,0,0,1,1.5438-5.4295,48.9978,48.9978,0,0,0,18.99,31.9651Z"/>
        <path class="cls-11" d="M204.77,963.2366q-1.3559,1.4642-2.8227,2.8044a29.01,29.01,0,0,1-50.9987,14.1452,10.212,10.212,0,0,1,1.1026,3.669,4.0923,4.0923,0,0,1-.5694,3.0678c-1.0035,1.4079-3.0633,1.8933-5.7042,1.5689-4.1448-.3109-9.7868-2.6-15.2508-6.4937q-1.1907-.8487-2.2863-1.737c.3363.4008.6776.7984,1.0292,1.1881a59.8465,59.8465,0,0,0,12.5871,9.674q.6459.3341,1.3126.6479A44.2226,44.2226,0,0,0,204.77,963.2366Z"/>
        <path class="cls-12" d="M178.3857,958.0522a26.9691,26.9691,0,0,1-38.795,11.23l-.4884-.3558A48.9813,48.9813,0,0,1,120.1956,937.48c.5346-2.1816,1.6831-3.7064,3.16-3.8754,1.7248-.1988,3.6537,1.8582,4.7273,4.5974a12.3292,12.3292,0,0,0,.9119,3.3835c1.5016,3.5572,4.1934,5.8206,6.0174,5.0536,1.8254-.77,2.0859-4.2782.5858-7.8384-1.24-2.9386-7.4139-7.1566-8.4441-8.285a22.6089,22.6089,0,0,1-3.9551-24.9223,21.7138,21.7138,0,0,1,2.004-3.4033,22.3448,22.3448,0,0,0,26.1329,17.5067,26.958,26.958,0,0,1,27.05,38.355Z"/>
        <g id="Слой_33" data-name="Слой 33">
          <path class="cls-13" d="M197.57,884.8461a59.8648,59.8648,0,0,0-46.52-2.0482,35.647,35.647,0,0,1,31.6216,16.1669c.0282.04.058.08.086.12a31.71,31.71,0,0,1,5.6126,16.9225,35.82,35.82,0,0,1-3.956,18.8907q.6384.2659,1.2694.564a29.0085,29.0085,0,0,1,16.2632,30.579c.1991-.1813.1066.2694-.1969,1.1336a29.1058,29.1058,0,0,1-6.582,13.5188,14.6557,14.6557,0,0,1-1.7663,2.3195,44.2041,44.2041,0,0,1-50.2327,8.7583q-.666-.3153-1.3126-.6479,2.0953,1.207,4.3231,2.262a60.0452,60.0452,0,0,0,51.39-108.5392Zm24.1851,65.86c-2.8254-.1-4.9425-5.1-4.7308-11.1672.21-6.0722,2.6716-10.9124,5.4938-10.8142,2.8269.0965,4.9441,5.0964,4.734,11.1686-.2115,6.0678-2.67,10.91-5.4968,10.8129Z"/>
          <circle class="cls-14" cx="174.9486" cy="934.0064" r="35.1797"/>
          <path class="cls-15" d="M223.7041,950.8481c.0089.0145.0187.0285.0275.043a32.84,32.84,0,0,0-21.56-49.3891,52.08,52.08,0,0,1,12.785,41.7869c-.1214.51-.2225,1.0121-.3078,1.5126-.0988.5709-.172,1.1337-.2282,1.6813a.049.049,0,0,1-.0006.0187c-.4383,4.6058.6762,8.2755,2.99,8.9142C219.42,955.9648,221.8164,954.087,223.7041,950.8481Z"/>
          <path class="cls-16" d="M147.5193,856.6188c3.3059-1.6886,6.8778-1.4356,8.3252.6577,1.6537,2.391.0195,6.3848-3.6467,8.9219a12.96,12.96,0,0,1-1.1855.7259l-.4935.4a34.7911,34.7911,0,0,0-16.4265,38.932,34.7969,34.7969,0,0,1,10.6557-48.0427q1.376-.8763,2.8294-1.6209Z"/>
          <path class="cls-17" d="M110.71,925.9817c1.0849,1.2749,2.6163,1.7872,3.5811,1.1657,1.1022-.71,1.1121-2.6558.0239-4.3465a5.8508,5.8508,0,0,0-.3682-.5073l-.1365-.2517a15.69,15.69,0,0,1-.1094-19.0551,15.6917,15.6917,0,0,0-3.8694,21.8516q.4215.6029.8981,1.1643Z"/>
          <circle class="cls-18" cx="161.8471" cy="821.5683" r="22.7225"/>
          <path class="cls-19" d="M178.3857,958.0522a26.9691,26.9691,0,0,1-38.795,11.23l-.4884-.3558A48.9813,48.9813,0,0,1,120.1956,937.48c.5346-2.1816,1.6831-3.7064,3.16-3.8754,1.7248-.1988,3.6537,1.8582,4.7273,4.5974a12.3292,12.3292,0,0,0,.9119,3.3835c1.5016,3.5572,4.1934,5.8206,6.0174,5.0536,1.8254-.77,2.0859-4.2782.5858-7.8384-1.24-2.9386-7.4139-7.1566-8.4441-8.285a22.6089,22.6089,0,0,1-3.9551-24.9223,21.7138,21.7138,0,0,1,2.004-3.4033,22.3448,22.3448,0,0,0,26.1329,17.5067,26.958,26.958,0,0,1,27.05,38.355Z"/>
        </g>
        <g id="Слой_30" data-name="Слой 30" class="cls-20">
          <circle class="cls-21" cx="607" cy="607" r="606"/>
        </g>
      </g>
    </g>
  </g>
  <path class="cls-22" d="M1052.0352,348.9814a3.4993,3.4993,0,0,1-3.02-1.7251,514.1911,514.1911,0,0,0-61.5185-83.7392,3.5,3.5,0,1,1,5.1933-4.6934,521.1865,521.1865,0,0,1,62.3584,84.8819,3.501,3.501,0,0,1-3.0136,5.2758Z"/>
  <path class="cls-23" d="M990.0947,264.67a3.4914,3.4914,0,0,1-2.5976-1.1533A511.62,511.62,0,0,0,845.2383,153.144a3.5,3.5,0,1,1,3.2519-6.1982,518.5909,518.5909,0,0,1,144.2,111.8779,3.5,3.5,0,0,1-2.5957,5.8467Z"/>
  <path class="cls-24" d="M1115.94,457.3784a2.5016,2.5016,0,0,1-2.3955-1.7871,530.0127,530.0127,0,0,0-113.3935-201.9331,2.5,2.5,0,0,1,3.7168-3.3447,535.0681,535.0681,0,0,1,114.47,203.8511,2.5016,2.5016,0,0,1-2.3975,3.2138Z"/>
</svg>
