<svg xmlns="http://www.w3.org/2000/svg" xmlns:xlink="http://www.w3.org/1999/xlink" viewBox="0 0 666 666">
  <defs>
    <style>
      .cls-1 {
        isolation: isolate;
      }

      .cls-2 {
        fill: #053355;
      }

      .cls-3 {
        fill: url(#Безымянный_градиент_224);
      }

      .cls-4 {
        fill: url(#Безымянный_градиент_208);
      }

      .cls-5 {
        fill: url(#Безымянный_градиент_208-2);
      }

      .cls-6 {
        fill: url(#Безымянный_градиент_233);
      }

      .cls-7 {
        fill: url(#Безымянный_градиент_214);
      }

      .cls-8 {
        fill: url(#Безымянный_градиент_214-2);
      }

      .cls-9 {
        mix-blend-mode: exclusion;
      }

      .cls-10 {
        fill: url(#Безымянный_градиент_271);
      }

      .cls-11 {
        fill: url(#Безымянный_градиент_257);
      }

      .cls-12 {
        fill: url(#Безымянный_градиент_248);
      }

      .cls-13 {
        fill: url(#Безымянный_градиент_257-2);
      }

      .cls-14 {
        fill: url(#Безымянный_градиент_257-3);
      }

      .cls-15 {
        fill: url(#Безымянный_градиент_257-4);
      }

      .cls-16 {
        fill: url(#Безымянный_градиент_233-2);
      }

      .cls-17 {
        fill: #1f0023;
      }

      .cls-18 {
        fill: #270023;
      }

      .cls-19 {
        fill: url(#Безымянный_градиент_629);
      }

      .cls-20 {
        fill: #1a0021;
      }

      .cls-21, .cls-22, .cls-23, .cls-34 {
        fill: none;
      }

      .cls-21, .cls-22 {
        stroke: #d84aff;
      }

      .cls-21, .cls-22, .cls-23, .cls-27, .cls-34 {
        stroke-miterlimit: 10;
      }

      .cls-21, .cls-27 {
        stroke-width: 0.75px;
      }

      .cls-21 {
        mix-blend-mode: saturation;
      }

      .cls-22 {
        stroke-linecap: round;
        stroke-width: 3px;
        mix-blend-mode: hue;
      }

      .cls-22, .cls-35 {
        opacity: 0.7;
      }

      .cls-23 {
        stroke: #9c30c4;
      }

      .cls-24, .cls-29 {
        fill: #d84aff;
      }

      .cls-24 {
        opacity: 0.6;
      }

      .cls-25 {
        mix-blend-mode: screen;
        fill: url(#Безымянный_градиент_299);
      }

      .cls-26 {
        fill: #9c30c4;
      }

      .cls-27, .cls-35 {
        fill: #7cc8fc;
      }

      .cls-27 {
        stroke: #fff;
      }

      .cls-28 {
        opacity: 0.9;
        fill: url(#Безымянный_градиент_72);
      }

      .cls-29 {
        mix-blend-mode: color-dodge;
      }

      .cls-30 {
        opacity: 0.33;
        fill: url(#Безымянный_градиент_72-2);
      }

      .cls-31 {
        opacity: 0.53;
        mix-blend-mode: color;
      }

      .cls-32 {
        fill: url(#Безымянный_градиент_305);
      }

      .cls-33 {
        opacity: 0.03;
      }

      .cls-34 {
        stroke: #2a1700;
      }
    </style>
    <linearGradient id="Безымянный_градиент_224" data-name="Безымянный градиент 224" x1="50.2507" y1="104.5406" x2="524.8217" y2="104.5406" gradientUnits="userSpaceOnUse">
      <stop offset="0" stop-color="#611959"/>
      <stop offset="1" stop-color="#053355"/>
    </linearGradient>
    <linearGradient id="Безымянный_градиент_208" data-name="Безымянный градиент 208" x1="105.064" y1="152.4383" x2="409.5525" y2="152.4383" gradientUnits="userSpaceOnUse">
      <stop offset="0" stop-color="#8c3093"/>
      <stop offset="0.0476" stop-color="#853090"/>
      <stop offset="0.2253" stop-color="#702f89"/>
      <stop offset="0.4229" stop-color="#612e83"/>
      <stop offset="0.6542" stop-color="#582e80"/>
      <stop offset="1" stop-color="#552e7f"/>
    </linearGradient>
    <linearGradient id="Безымянный_градиент_208-2" x1="67.7375" y1="131.3465" x2="502.305" y2="131.3465" xlink:href="#Безымянный_градиент_208"/>
    <linearGradient id="Безымянный_градиент_233" data-name="Безымянный градиент 233" x1="182.615" y1="77.2098" x2="558.8417" y2="77.2098" gradientUnits="userSpaceOnUse">
      <stop offset="0" stop-color="#4f1545"/>
      <stop offset="1" stop-color="#242456"/>
    </linearGradient>
    <linearGradient id="Безымянный_градиент_214" data-name="Безымянный градиент 214" x1="104.8025" y1="133.3799" x2="528.916" y2="133.3799" gradientUnits="userSpaceOnUse">
      <stop offset="0" stop-color="#9046a5"/>
      <stop offset="1" stop-color="#486ab2"/>
    </linearGradient>
    <linearGradient id="Безымянный_градиент_214-2" x1="128.9715" y1="162.7297" x2="316.3361" y2="162.7297" xlink:href="#Безымянный_градиент_214"/>
    <linearGradient id="Безымянный_градиент_271" data-name="Безымянный градиент 271" x1="61.0755" y1="169.7746" x2="657.5791" y2="169.7746" gradientUnits="userSpaceOnUse">
      <stop offset="0" stop-color="#641894"/>
      <stop offset="0.2182" stop-color="#5f2195"/>
      <stop offset="0.5808" stop-color="#523b98"/>
      <stop offset="1" stop-color="#3e609d"/>
    </linearGradient>
    <linearGradient id="Безымянный_градиент_257" data-name="Безымянный градиент 257" x1="429.1533" y1="121.0423" x2="584.7794" y2="121.0423" gradientUnits="userSpaceOnUse">
      <stop offset="0" stop-color="#834590"/>
      <stop offset="1" stop-color="#3e609d"/>
    </linearGradient>
    <linearGradient id="Безымянный_градиент_248" data-name="Безымянный градиент 248" x1="132.5932" y1="154.148" x2="533.3584" y2="154.148" gradientUnits="userSpaceOnUse">
      <stop offset="0" stop-color="#cce0f4"/>
      <stop offset="0.1429" stop-color="#c5d7ee"/>
      <stop offset="0.3805" stop-color="#b0bddd"/>
      <stop offset="0.6834" stop-color="#8f94c1"/>
      <stop offset="0.9944" stop-color="#6862a0"/>
    </linearGradient>
    <linearGradient id="Безымянный_градиент_257-2" x1="62.7528" y1="212.9397" x2="639.4101" y2="212.9397" xlink:href="#Безымянный_градиент_257"/>
    <linearGradient id="Безымянный_градиент_257-3" x1="478.869" y1="213.7681" x2="576.1473" y2="213.7681" xlink:href="#Безымянный_градиент_257"/>
    <linearGradient id="Безымянный_градиент_257-4" x1="329.4595" y1="196.4856" x2="632.7339" y2="196.4856" xlink:href="#Безымянный_градиент_257"/>
    <linearGradient id="Безымянный_градиент_233-2" x1="247.7926" y1="94.2449" x2="457.5499" y2="94.2449" xlink:href="#Безымянный_градиент_233"/>
    <linearGradient id="Безымянный_градиент_629" data-name="Безымянный градиент 629" x1="436.3264" y1="228.5399" x2="606.052" y2="228.5399" gradientUnits="userSpaceOnUse">
      <stop offset="0" stop-color="#8d3b85"/>
      <stop offset="0.3318" stop-color="#b65293" stop-opacity="0.6383"/>
      <stop offset="0.7856" stop-color="#ea6fa5" stop-opacity="0.18"/>
      <stop offset="1" stop-color="#ff7bac" stop-opacity="0"/>
    </linearGradient>
    <radialGradient id="Безымянный_градиент_299" data-name="Безымянный градиент 299" cx="89" cy="196" r="44" gradientUnits="userSpaceOnUse">
      <stop offset="0" stop-color="#15c7ff"/>
      <stop offset="0.4692" stop-color="#6fe3f6" stop-opacity="0.6457"/>
      <stop offset="0.8306" stop-color="#aef7f0" stop-opacity="0.3969"/>
      <stop offset="1" stop-color="#c7ffee" stop-opacity="0.3"/>
    </radialGradient>
    <radialGradient id="Безымянный_градиент_72" data-name="Безымянный градиент 72" cx="91" cy="192" r="39.5" gradientUnits="userSpaceOnUse">
      <stop offset="0" stop-color="#cce0f4"/>
      <stop offset="0.0885" stop-color="#c4dff5" stop-opacity="0.9853"/>
      <stop offset="0.2356" stop-color="#aedef7" stop-opacity="0.9455"/>
      <stop offset="0.4233" stop-color="#8bdbfb" stop-opacity="0.8808"/>
      <stop offset="0.6233" stop-color="#5fd8ff" stop-opacity="0.8"/>
      <stop offset="1" stop-color="#294996" stop-opacity="0.5"/>
    </radialGradient>
    <radialGradient id="Безымянный_градиент_72-2" cx="91.5" cy="191.5" r="39.5" xlink:href="#Безымянный_градиент_72"/>
    <linearGradient id="Безымянный_градиент_305" data-name="Безымянный градиент 305" x1="133.491" y1="301.7975" x2="446.2417" y2="-10.9532" gradientUnits="userSpaceOnUse">
      <stop offset="0" stop-color="#ff0047"/>
      <stop offset="0.0053" stop-color="#ff0248" stop-opacity="0.9853"/>
      <stop offset="0.0851" stop-color="#ff1b5d" stop-opacity="0.781"/>
      <stop offset="0.17" stop-color="#ff3270" stop-opacity="0.5958"/>
      <stop offset="0.2584" stop-color="#ff4580" stop-opacity="0.4356"/>
      <stop offset="0.3509" stop-color="#ff568e" stop-opacity="0.3007"/>
      <stop offset="0.4488" stop-color="#ff6499" stop-opacity="0.1909"/>
      <stop offset="0.5537" stop-color="#ff6ea1" stop-opacity="0.1061"/>
      <stop offset="0.6692" stop-color="#ff75a7" stop-opacity="0.0462"/>
      <stop offset="0.8033" stop-color="#ff7aab" stop-opacity="0.0109"/>
      <stop offset="1" stop-color="#ff7bac" stop-opacity="0"/>
    </linearGradient>
  </defs>
  <g class="cls-1">
    <g id="ЦГ1">
      <g id="Слой_50" data-name="Слой 50">
        <g id="шар2">
          <ellipse class="cls-2" cx="86.7262" cy="190.2207" rx="41.2262" ry="47.7207"/>
          <path class="cls-3" d="M63.2412,196.5293A13.0041,13.0041,0,0,1,51.894,177.2041,320.0243,320.0243,0,0,1,329.8394,12.5591a317.411,317.411,0,0,1,189.61,60.7417,13,13,0,1,1-15.2568,21.0527A291.63,291.63,0,0,0,329.9976,38.5586,294.8263,294.8263,0,0,0,74.6118,189.85,12.9968,12.9968,0,0,1,63.2412,196.5293Z"/>
          <path class="cls-4" d="M121.0547,234.5586a16.0062,16.0062,0,0,1-14.272-23.2109,256.7513,256.7513,0,0,1,290.5986-133.58,16,16,0,1,1-7.665,31.0683,226.3238,226.3238,0,0,0-55.2934-6.5141,223.6187,223.6187,0,0,0-199.0708,123.44A16,16,0,0,1,121.0547,234.5586Z"/>
          <path class="cls-5" d="M84.7275,224.0957a17.0062,17.0062,0,0,1-15.1342-24.7192A294.2028,294.2028,0,0,1,494.7339,87.834a17,17,0,0,1-18.8613,28.2886A258.7131,258.7131,0,0,0,331.8208,72.5972c-.54,0-1.0747.0019-1.6157.0049A259.3648,259.3648,0,0,0,99.8892,214.8081,17,17,0,0,1,84.7275,224.0957Z"/>
          <path class="cls-6" d="M548.3418,132.0278a10.4677,10.4677,0,0,1-7.3794-3.03,294.6617,294.6617,0,0,0-208.41-85.605c-.623,0-1.2334.0019-1.8574.0058A293.5434,293.5434,0,0,0,197.8887,75.6221a10.5,10.5,0,0,1-9.543-18.7061,317.8461,317.8461,0,0,1,367.375,57.1421,10.5,10.5,0,0,1-7.3789,17.97Z"/>
          <path class="cls-7" d="M108.7993,201.8291a4.0007,4.0007,0,0,1-3.435-6.0435,266.9129,266.9129,0,0,1,228.1323-130.85,266.3081,266.3081,0,0,1,194.3047,82.1342,4,4,0,0,1-5.771,5.54c-49.7451-51.8159-116.6817-80.1275-188.4849-79.6743-91.687.5586-174.4175,48.0112-221.3032,126.9365A3.999,3.999,0,0,1,108.7993,201.8291Z"/>
          <path class="cls-8" d="M132.9683,224.2969a4.0009,4.0009,0,0,1-3.4825-5.9615,230.6915,230.6915,0,0,1,182.5259-117.16,4,4,0,1,1,.6485,7.9736A222.703,222.703,0,0,0,136.4585,222.2573,3.9988,3.9988,0,0,1,132.9683,224.2969Z"/>
          <g class="cls-9">
            <path class="cls-10" d="M655.5791,332.0308a2,2,0,0,1-2-1.9878C652.5029,153.335,507.84,10.4717,331.1563,11.5244A320.03,320.03,0,0,0,64.749,156.749a2,2,0,0,1-3.3467-2.19,324.4985,324.4985,0,0,1,596.1768,175.46,2,2,0,0,1-1.9883,2.0122Z"/>
          </g>
          <path class="cls-11" d="M584.4043,181.6606a.3738.3738,0,0,1-.3154-.1728A294.02,294.02,0,0,0,429.4106,61.1558a.375.375,0,0,1,.2354-.712A294.7669,294.7669,0,0,1,584.72,181.0835a.3746.3746,0,0,1-.3154.5771Z"/>
          <path class="cls-12" d="M133.0928,212.01a.5.5,0,0,1-.4312-.753,232.25,232.25,0,0,1,400.6275-.5044.5.5,0,0,1-.8614.5078,231.2489,231.2489,0,0,0-398.9028.5025A.5.5,0,0,1,133.0928,212.01Z"/>
          <path class="cls-13" d="M631.4375,400.8267a.5008.5008,0,0,1-.4893-.61,308.3087,308.3087,0,0,0,7.4561-69.4106A306.66,306.66,0,0,0,63.69,183.77a.5.5,0,1,1-.874-.4863,307.5242,307.5242,0,0,1,267.1-158.2251c.6416-.0039,1.2852-.0059,1.9268-.0059A307.62,307.62,0,0,1,639.4043,330.8a309.34,309.34,0,0,1-7.48,69.6362A.5.5,0,0,1,631.4375,400.8267Z"/>
          <path class="cls-14" d="M575.6465,293.4839a.5.5,0,0,1-.4922-.42,245.1729,245.1729,0,0,0-96.084-158.11.5.5,0,1,1,.5977-.8017,246.1654,246.1654,0,0,1,96.4726,158.7524.4993.4993,0,0,1-.4941.58Z"/>
          <path class="cls-15" d="M630.9434,361.2427c-.0157,0-.0313,0-.0469-.002a.5.5,0,0,1-.4522-.5439c.9121-9.8447,1.3438-19.8877,1.2842-29.85-.95-155.86-123.3393-286.4824-278.6308-297.374-7.648-.5362-15.4288-.7886-23.1353-.7378H329.96a.5.5,0,0,1-.003-1c7.7344-.0508,15.5381.2021,23.2115.7407A300.9689,300.9689,0,0,1,632.7285,330.8408c.06,9.9946-.373,20.0708-1.2881,29.9478A.5006.5006,0,0,1,630.9434,361.2427Z"/>
          <path class="cls-16" d="M452.0439,114.689a5.4689,5.4689,0,0,1-2.5908-.6524,249.0076,249.0076,0,0,0-194.4443-16.91,5.5,5.5,0,0,1-3.43-10.4512,259.9982,259.9982,0,0,1,203.0654,17.6641,5.5006,5.5006,0,0,1-2.6006,10.35Z"/>
          <path class="cls-17" d="M518.792,200.6045a.499.499,0,0,1-.4131-.2178,226.43,226.43,0,0,0-187.0351-98.7212c-.4644,0-.9244.0015-1.3892.0044a225.8709,225.8709,0,0,0-76.7969,13.8487.5.5,0,0,1-.3447-.9385,227.799,227.799,0,0,1,266.3911,85.2422.5.5,0,0,1-.4121.7822Z"/>
          <path class="cls-17" d="M536.6055,214.5405a1,1,0,0,1-.8677-.5009A236.6642,236.6642,0,0,0,331.0483,95.6147c-.4809,0-.9511.0015-1.4321.0044a237.7829,237.7829,0,0,0-47.5366,5.0845,1,1,0,1,1-.4131-1.957A238.0912,238.0912,0,0,1,537.4712,213.0415a1,1,0,0,1-.8657,1.499Z"/>
          <path class="cls-18" d="M584.252,413.8818a8.0072,8.0072,0,0,1-7.7364-10.0566A250.4033,250.4033,0,0,0,332.9849,88.9717h-.05a8,8,0,0,1-.0479-16A266.6014,266.6014,0,0,1,591.9785,407.9346,8.0026,8.0026,0,0,1,584.252,413.8818Z"/>
          <path class="cls-17" d="M609.998,282.89a10.0036,10.0036,0,0,1-9.7167-7.6733C573.7744,164.5469,480.19,80.1948,367.4092,65.3169a10,10,0,1,1,2.6157-19.8281A297.3641,297.3641,0,0,1,619.7305,270.5581,10.0084,10.0084,0,0,1,609.998,282.89Z"/>
          <path class="cls-19" d="M603.1309,373.7705a.5249.5249,0,0,1-.0674-.0044.4994.4994,0,0,1-.4287-.562,276.6308,276.6308,0,0,0,2.4121-38.189A272.861,272.861,0,0,0,436.6348,84.271a.5.5,0,1,1,.3838-.9238A273.861,273.861,0,0,1,606.0469,335.0093a277.5776,277.5776,0,0,1-2.4219,38.3276A.4994.4994,0,0,1,603.1309,373.7705Z"/>
          <path class="cls-20" d="M641.709,278.9834a5.5006,5.5006,0,0,1-5.4033-4.5073A307.713,307.713,0,0,0,333.1323,22.2388c-.6391,0-1.2768.0019-1.9165.0058-5.916.0362-11.8994.2422-17.7842.6128a5.5,5.5,0,0,1-.6914-10.9785c6.0918-.3833,12.2852-.5967,18.4082-.6343A319.39,319.39,0,0,1,647.124,272.4888a5.5042,5.5042,0,0,1-5.415,6.4946Z"/>
          <path class="cls-21" d="M189.82,107.193A266.3592,266.3592,0,0,1,330.4419,65.6692"/>
          <path class="cls-22" d="M122.97,127.4718a277.3315,277.3315,0,0,1,134.5837-75.96"/>
          <path class="cls-23" d="M92.18,139.8022a288.5541,288.5541,0,0,1,37.4124-38.73"/>
          <circle class="cls-24" cx="178.6439" cy="148.2171" r="8.4004"/>
          <circle class="cls-25" cx="89" cy="196" r="44"/>
          <g id="Слой_26" data-name="Слой 26">
            <path class="cls-26" d="M74.9746,226.8981q-1.5076-.946-2.9248-2.01a25.8733,25.8733,0,0,1-20.8344-42.3557,9.1086,9.1086,0,0,1-3.0331,1.5734,3.65,3.65,0,0,1-2.7829.0086c-1.4-.6466-2.1662-2.3715-2.3188-4.74-.4132-3.684.66-9.0074,3.1681-14.44q.5468-1.1839,1.1441-2.2912c-.2958.3612-.5877.726-.871,1.0986a53.3745,53.3745,0,0,0-6.396,12.632q-.1859.6213-.3506,1.2576a39.4415,39.4415,0,0,0,35.1994,49.2665Z"/>
            <path class="cls-27" d="M142.4856,207.6188a53.3928,53.3928,0,0,0-5.9011-41.1091,31.7934,31.7934,0,0,1-8.9374,30.3882c-.0307.0314-.06.064-.091.0953a28.28,28.28,0,0,1-13.9025,7.7186A31.9471,31.9471,0,0,1,96.443,204.37q-.1274.6034-.2842,1.2058A25.8724,25.8724,0,0,1,72.05,224.8883c.1918.1445-.2185.1379-1.026.0149a25.9595,25.9595,0,0,1-12.9371-3.532,13.0658,13.0658,0,0,1-2.325-1.1642,39.4249,39.4249,0,0,1-15.9865-42.5754q.166-.6359.3506-1.2576-.7113,2.0361-1.2672,4.1631a53.5536,53.5536,0,1,0,103.627,27.0817ZM88.7664,239.711c-.38-2.4927,3.6516-5.1753,9.0044-5.9936,5.3565-.8206,10.0057.536,10.3866,3.0257.3831,2.4935-3.6486,5.1762-9.0051,5.9966C93.8,243.5581,89.15,242.2045,88.7664,239.711Z"/>
            <circle class="cls-28" cx="91" cy="192" r="39.5"/>
            <path class="cls-26" d="M81.0047,131.1456c3.3075-.1479,6.113,1.3783,6.5136,3.6125.458,2.5521-2.3453,5.1891-6.2591,5.8925a11.4863,11.4863,0,0,1-1.2306.1508l-.5482.1418a31.03,31.03,0,0,0-27.7292,25.5232,31.035,31.035,0,0,1,29.3105-35.3208Z"/>
            <path class="cls-29" d="M126.4167,189.693a34.9355,34.9355,0,0,0-50.7879-28.1684l-.0044.0034a4.95,4.95,0,0,1-1.0721.5924,11.8953,11.8953,0,1,0,16.14,16.4926,4.58,4.58,0,0,1,.6934-1.0184l.004-.0065a14.8123,14.8123,0,0,1,26.9235,7.2316c.0194.234.0357.4683.0473.7014.0072.1057.0113.2116.0155.3175v.0015c.0057.1059.01.2118.0109.3179q.0063.1589.0079.3182c.0051.21.0056.4215.0031.6326q-.0018.3144-.0126.6294c-.0057.21-.0148.417-.0283.6261-.0173.3109-.0408.6224-.0707.9314-.0171.1846-.037.3711-.0588.5546-.0058.0421-.01.084-.0158.126-.0217.1835-.0467.3658-.0732.5482-.0147.1013-.0294.2026-.0456.304l-.0013.0032q-.0579.3606-.1252.72a24.6493,24.6493,0,0,1-1.1674,4.1668l0,.0015c-.0848.2227-.1711.4454-.2622.6655-.0065.0144-.0129.03-.0179.0446-.1074.2645-.2214.525-.34.7843-.08.1822-.1653.3648-.2536.5446-.0419.09-.0868.18-.1317.27-.0554.1124-.1124.2234-.1695.3343q-.171.333-.352.659c-.0617.11-.1221.218-.1839.3263-.0982.1729-.1993.3461-.3038.5165-.0515.0843-.1045.17-.156.2547-.0531.0844-.1062.1689-.1594.2518-.0545.0846-.1076.1691-.1623.2522-.108.166-.2177.3291-.33.4924-.0579.0818-.1157.1651-.1736.2469s-.1158.1636-.1739.2439-.1176.1606-.1757.2394c-.06.08-.1192.1607-.18.24-.0208.0279-.043.0575-.0653.0855-.0986.13-.199.2567-.3009.3837q-.4668.584-.9681,1.1412c-.0564.0632-.1143.1265-.1723.1883a24.9927,24.9927,0,0,1-1.9493,1.9016c-.0675.06-.1349.119-.204.1771-.2042.1754-.4132.3483-.624.5182-.0737.0585-.1474.1169-.2226.1755-.078.0619-.1576.124-.2388.1846-.0463.0361-.0912.0706-.1376.1053l-.1959.1456c-.2931.2167-.5929.4279-.8963.6317-.0831.0561-.1678.1124-.2525.1687-.076.0494-.1535.0989-.231.1484-.0936.06-.1872.12-.281.1773l-.2593.16q-.5216.3134-1.0573.6034c-.09.049-.18.098-.27.144a24.8318,24.8318,0,0,1-3.3867,1.4662c-.0973.0342-.1962.067-.2936.1s-.1978.0656-.2969.0969c-.0989.0328-.1981.0626-.2971.0939l-.3427.1023q-.2234.0647-.4471.1248c-.05.0133-.1009.0268-.1522.04q-.7866.2084-1.593.3644c-.08.0159-.159.0317-.2379.0459-.2321.0423-.4659.0832-.6987.1179-.0789.0142-.158.0254-.2372.0365q-.7874.1161-1.5881.1823a25.1,25.1,0,0,1-24.6623-14.0731c.0041.0489.0067.1.0108.1485.0077.0193.0141.04.0219.06,1.752,4.8122.8409,9.5631-2.034,10.61s-6.6279-2.0063-8.38-6.817c-1.4711-4.0424-1.0644-8.04.8074-9.8366l.0014-.0017a2.1114,2.1114,0,0,1,.378-.3639,2.7819,2.7819,0,1,0-4.5955-2.7735l-.0059.022c-.0145.0474-.0259.0961-.0373.1448a34.9183,34.9183,0,1,0,69.5364.6766ZM99.9619,221.9083c-2.4406.0588-4.2994-.63-4.6813-1.9318-.4354-1.5009,1.2194-3.37,3.9229-4.7l.01-.0055c.3228-.1561.66-.3072,1.01-.4471.3069-.124.6193-.2391.9431-.346a33.9047,33.9047,0,0,0,18.8058-21.3473,21.3784,21.3784,0,0,1-20.0256,28.8064A.2787.2787,0,0,1,99.9619,221.9083Z"/>
            <circle class="cls-30" cx="91.5" cy="191.5" r="39.5"/>
            <g class="cls-31">
              <path class="cls-32" d="M90.8418,238.8892A49.0112,49.0112,0,0,1,48.8989,164.625,328.85,328.85,0,0,1,331,5,326.687,326.687,0,0,1,523.3853,67.0874a49,49,0,0,1-57.3594,79.46A229.2752,229.2752,0,0,0,331,103c-81.8218,0-155.8862,41.9209-198.1226,112.1387A48.976,48.976,0,0,1,90.8418,238.8892Z"/>
            </g>
          </g>
          <g id="Слой_25" data-name="Слой 25" class="cls-33">
            <circle class="cls-34" cx="333" cy="333" r="332.5"/>
          </g>
          <circle class="cls-35" cx="100.2412" cy="111.4259" r="15.6007"/>
        </g>
      </g>
    </g>
  </g>
</svg>
