<svg xmlns="http://www.w3.org/2000/svg" xmlns:xlink="http://www.w3.org/1999/xlink" viewBox="0 0 1214 1214">
  <defs>
    <style>
      .cls-1 {
        isolation: isolate;
      }

      .cls-2 {
        fill: url(#Безымянный_градиент_379);
      }

      .cls-3 {
        fill: url(#Безымянный_градиент_402);
      }

      .cls-4 {
        fill: url(#Безымянный_градиент_371);
      }

      .cls-5 {
        fill: #136c96;
      }

      .cls-6 {
        fill: url(#Безымянный_градиент_388);
      }

      .cls-7 {
        fill: url(#Новый_образец_градиентной_залив);
      }

      .cls-8 {
        fill: url(#Безымянный_градиент_401);
      }

      .cls-9 {
        fill: url(#Безымянный_градиент_401-2);
      }

      .cls-10 {
        fill: #000017;
      }

      .cls-11 {
        fill: #080808;
      }

      .cls-12 {
        fill: #1e0c22;
      }

      .cls-13 {
        fill: #6522eb;
      }

      .cls-14 {
        opacity: 0.4;
        fill: url(#Безымянный_градиент_24);
      }

      .cls-15 {
        fill: #6987df;
        stroke: #fff;
        stroke-width: 0.5px;
      }

      .cls-15, .cls-23 {
        stroke-miterlimit: 10;
      }

      .cls-15, .cls-16 {
        opacity: 0.7;
      }

      .cls-16 {
        fill: url(#Безымянный_градиент_418);
      }

      .cls-17 {
        fill: #937bcd;
      }

      .cls-18 {
        fill: #932fcd;
      }

      .cls-18, .cls-20 {
        opacity: 0.8;
      }

      .cls-19 {
        fill: #5fd8ff;
      }

      .cls-20 {
        fill: url(#Безымянный_градиент_24-2);
      }

      .cls-21 {
        opacity: 0.5;
        mix-blend-mode: color-dodge;
        fill: url(#Безымянный_градиент_414);
      }

      .cls-22 {
        opacity: 0.04;
      }

      .cls-23 {
        fill: none;
        stroke: #000;
        stroke-width: 2px;
      }
    </style>
    <linearGradient id="Безымянный_градиент_379" data-name="Безымянный градиент 379" x1="21.7618" y1="717.0286" x2="207.9561" y2="717.0286" gradientUnits="userSpaceOnUse">
      <stop offset="0" stop-color="#0c153c"/>
      <stop offset="1" stop-color="#1e0c22"/>
    </linearGradient>
    <linearGradient id="Безымянный_градиент_402" data-name="Безымянный градиент 402" x1="112.2962" y1="288.3736" x2="112.2962" y2="953.1167" xlink:href="#Безымянный_градиент_379"/>
    <linearGradient id="Безымянный_градиент_371" data-name="Безымянный градиент 371" x1="44.732" y1="472.5406" x2="287.3701" y2="892.8021" gradientUnits="userSpaceOnUse">
      <stop offset="0" stop-color="#132553"/>
      <stop offset="0.4337" stop-color="#162553"/>
      <stop offset="0.7232" stop-color="#1f2455"/>
      <stop offset="0.9704" stop-color="#2e2358"/>
      <stop offset="1" stop-color="#302358"/>
    </linearGradient>
    <linearGradient id="Безымянный_градиент_388" data-name="Безымянный градиент 388" x1="11.1128" y1="703.1151" x2="128.6432" y2="703.1151" gradientUnits="userSpaceOnUse">
      <stop offset="0" stop-color="#251079"/>
      <stop offset="0.4644" stop-color="#281470"/>
      <stop offset="0.9944" stop-color="#2e1a5f"/>
    </linearGradient>
    <linearGradient id="Новый_образец_градиентной_залив" data-name="Новый образец градиентной залив" x1="138.4661" y1="250.9886" x2="397.7522" y2="250.9886" gradientUnits="userSpaceOnUse">
      <stop offset="0" stop-color="#4a1496"/>
      <stop offset="0.1868" stop-color="#441d96"/>
      <stop offset="0.4972" stop-color="#343796"/>
      <stop offset="0.8909" stop-color="#1b6096"/>
      <stop offset="0.9944" stop-color="#136c96"/>
    </linearGradient>
    <linearGradient id="Безымянный_градиент_401" data-name="Безымянный градиент 401" x1="45.7647" y1="598.095" x2="179.8448" y2="598.095" gradientUnits="userSpaceOnUse">
      <stop offset="0" stop-color="#193a76"/>
      <stop offset="1" stop-color="#3b2b74"/>
    </linearGradient>
    <linearGradient id="Безымянный_градиент_401-2" x1="240.0158" y1="117.1867" x2="240.0158" y2="832.4238" xlink:href="#Безымянный_градиент_401"/>
    <linearGradient id="Безымянный_градиент_24" data-name="Безымянный градиент 24" x1="120.1956" y1="937.8337" x2="180.9844" y2="937.8337" gradientUnits="userSpaceOnUse">
      <stop offset="0" stop-color="#5fd8ff"/>
      <stop offset="0.9921" stop-color="#d84aff"/>
    </linearGradient>
    <radialGradient id="Безымянный_градиент_418" data-name="Безымянный градиент 418" cx="174.9486" cy="934.0064" fx="191.57389919442377" r="35.1797" gradientUnits="userSpaceOnUse">
      <stop offset="0" stop-color="#cce0f4"/>
      <stop offset="0.0698" stop-color="#c5dff5" stop-opacity="0.9744"/>
      <stop offset="0.1859" stop-color="#b2def7" stop-opacity="0.9051"/>
      <stop offset="0.3339" stop-color="#93dcfa" stop-opacity="0.7923"/>
      <stop offset="0.5065" stop-color="#69d9fe" stop-opacity="0.6374"/>
      <stop offset="0.5451" stop-color="#5fd8ff" stop-opacity="0.6"/>
      <stop offset="1" stop-color="#294996" stop-opacity="0.5"/>
    </radialGradient>
    <linearGradient id="Безымянный_градиент_24-2" x1="139.1246" y1="821.5683" x2="184.5696" y2="821.5683" xlink:href="#Безымянный_градиент_24"/>
    <linearGradient id="Безымянный_градиент_414" data-name="Безымянный градиент 414" x1="120.1956" y1="937.8337" x2="180.9844" y2="937.8337" gradientUnits="userSpaceOnUse">
      <stop offset="0" stop-color="#6987df"/>
      <stop offset="0.9921" stop-color="#c54aff"/>
    </linearGradient>
  </defs>
  <g class="cls-1">
    <g id="ЦГ1">
      <g id="Слой_50" data-name="Слой 50">
        <g id="шар4">
          <path class="cls-2" d="M183.4644,998.2373a24.4385,24.4385,0,0,1-18.2876-8.1875c-11.2139-12.5654-21.9952-25.7949-32.045-39.32A561.9149,561.9149,0,0,1,30.667,515.6147a571.54,571.54,0,0,1,14.7583-62.2739,24.5,24.5,0,0,1,46.9668,13.97,522.2838,522.2838,0,0,0-13.4878,56.9146c-25.186,141.0952,8.04,282.1855,93.5591,397.2808,9.1806,12.3554,19.0288,24.44,29.272,35.9179a24.5006,24.5006,0,0,1-18.271,40.8135Z"/>
          <path class="cls-3" d="M165.8506,953.1167a16.9727,16.9727,0,0,1-13.6284-6.8213C100.104,876.5889,65.8809,797.4951,50.5039,711.21a554.2245,554.2245,0,0,1,91.3306-415.56,17,17,0,1,1,27.8867,19.45C89.9688,429.4434,59.5176,567.999,83.9766,705.2451c14.4384,81.0176,46.561,155.2691,95.476,220.6909a17.0012,17.0012,0,0,1-13.602,27.1807Z"/>
          <path class="cls-4" d="M206.7617,936.7153A16.9669,16.9669,0,0,1,193.51,930.377,502.0608,502.0608,0,0,1,89.95,526.1968a507.5405,507.5405,0,0,1,24.5845-89.503,17,17,0,0,1,31.8174,11.9854,470.071,470.071,0,0,0,73.64,460.3735,17.0005,17.0005,0,0,1-13.23,27.6626Z"/>
          <path class="cls-5" d="M962.3916,197.2729a3.9831,3.9831,0,0,1-2.6963-1.0463A560.1976,560.1976,0,0,0,679.8462,58.374a4,4,0,1,1,1.4062-7.8755A568.1778,568.1778,0,0,1,965.09,190.3193a4,4,0,0,1-2.6982,6.9536Z"/>
          <path class="cls-6" d="M124.6465,949.9082a3.9952,3.9952,0,0,1-3.2305-1.6372A568.24,568.24,0,0,1,20.12,511.3516c3.1255-17.5093,7.0967-35.0357,11.8033-52.0923a4,4,0,0,1,7.7119,2.1279c-4.6411,16.8193-8.5572,34.103-11.6392,51.37C.7466,665.4106,36.2158,818.4,127.87,943.5444a4.0007,4.0007,0,0,1-3.2236,6.3638Z"/>
          <path class="cls-7" d="M139.4653,366.4a1,1,0,0,1-.8755-1.4814A517.5857,517.5857,0,0,1,396.3745,135.6519a1,1,0,1,1,.7549,1.8525A515.5773,515.5773,0,0,0,140.3428,365.8813,1,1,0,0,1,139.4653,366.4Z"/>
          <path class="cls-5" d="M797.5981,119.6484a.4973.4973,0,0,1-.1962-.04A541.3343,541.3343,0,0,0,679.9277,84.585a.5.5,0,1,1,.1758-.9844,542.3414,542.3414,0,0,1,117.6909,35.0879.5.5,0,0,1-.1963.96Z"/>
          <path class="cls-8" d="M152.7983,936.6177a.5.5,0,0,1-.4018-.2017,539.6382,539.6382,0,0,1,26.5718-676.6723.5.5,0,1,1,.7529.6582A537.5832,537.5832,0,0,0,55.2778,520.0078c-26.3613,147.6777,8.4146,295.3491,97.9214,415.8115a.5.5,0,0,1-.4009.7984Z"/>
          <path class="cls-9" d="M103.65,832.4238a.5007.5007,0,0,1-.458-.2978c-5.48-12.39-10.541-25.1216-15.0445-37.84C43.8911,669.2759,48.3892,533.06,100.814,410.729A525.9057,525.9057,0,0,1,372.3784,136.0864c16.0156-7.0825,32.521-13.4331,49.0571-18.8745a.5.5,0,1,1,.3125.95c-16.5048,5.4312-32.9794,11.77-48.9653,18.8389C122.4741,247.6958-2.1382,536.2627,89.09,793.9517c4.4951,12.6953,9.5474,25.4028,15.0166,37.77a.4994.4994,0,0,1-.4565.7021Z"/>
          <path class="cls-10" d="M100.938,715.1865a11.0035,11.0035,0,0,1-10.7944-8.9472A515.2518,515.2518,0,0,1,324.7305,173.1a11,11,0,1,1,11.5761,18.708C164.21,298.2993,73.97,503.3823,111.7563,702.13a11.0081,11.0081,0,0,1-10.8183,13.0566Z"/>
          <path class="cls-11" d="M126.3345,744.4751a.5.5,0,0,1-.481-.3652,480.9718,480.9718,0,0,1,163.47-505.7818A486.69,486.69,0,0,1,344.76,200.105a.5.5,0,0,1,.5088.8608A485.7194,485.7194,0,0,0,289.9468,239.11a479.1782,479.1782,0,0,0-163.13,504.73.5.5,0,0,1-.4819.6348Z"/>
          <path class="cls-11" d="M70.85,435.4873a3.5029,3.5029,0,0,1-3.3047-4.6533c3.4868-10.002,7.3159-20.0542,11.3794-29.877A551.9371,551.9371,0,0,1,336.78,120.39C451.6479,61.1665,584.0239,43.7671,709.5151,71.4a3.5,3.5,0,1,1-1.5048,6.8359C448.853,21.1763,187.0063,158.022,85.3936,403.6328c-4.0137,9.7012-7.795,19.6279-11.2388,29.5059A3.5015,3.5015,0,0,1,70.85,435.4873Z"/>
          <circle class="cls-12" cx="168.7" cy="932.9372" r="58.1472"/>
          <path class="cls-13" d="M141.29,970.4371c-8.0387-5.7274-16.5037-7.6366-18.91-4.2612-.88,1.2367-.8283,3.0089-.0094,5.0425a44.1531,44.1531,0,0,1-3.4949-28.6782l.0015-.003a43.38,43.38,0,0,1,1.5438-5.4295,48.9976,48.9976,0,0,0,18.99,31.9651Z"/>
          <path class="cls-13" d="M204.77,963.2366q-1.3559,1.4643-2.8227,2.8044a29.01,29.01,0,0,1-50.9987,14.1452,10.2132,10.2132,0,0,1,1.1026,3.669,4.0921,4.0921,0,0,1-.5694,3.0678c-1.0035,1.4079-3.0633,1.8934-5.7042,1.569-4.1448-.3109-9.7868-2.6-15.2508-6.4938q-1.1907-.8487-2.2863-1.737c.3363.4009.6776.7984,1.0292,1.1881a59.8437,59.8437,0,0,0,12.5871,9.674q.6459.3341,1.3126.6479A44.2226,44.2226,0,0,0,204.77,963.2366Z"/>
          <path class="cls-14" d="M178.3857,958.0522a26.9689,26.9689,0,0,1-38.795,11.23l-.4884-.3558A48.9813,48.9813,0,0,1,120.1956,937.48c.5346-2.1816,1.6831-3.7064,3.16-3.8754,1.7248-.1987,3.6537,1.8582,4.7273,4.5975a12.3308,12.3308,0,0,0,.9119,3.3835c1.5016,3.5572,4.1934,5.8206,6.0174,5.0536,1.8254-.77,2.0859-4.2782.5858-7.8384-1.24-2.9386-7.4139-7.1566-8.4441-8.285a22.609,22.609,0,0,1-3.9551-24.9223,21.7156,21.7156,0,0,1,2.004-3.4034,22.3449,22.3449,0,0,0,26.1329,17.5068,26.958,26.958,0,0,1,27.05,38.3549Z"/>
          <g id="Слой_33" data-name="Слой 33">
            <path class="cls-15" d="M197.57,884.8461a59.8646,59.8646,0,0,0-46.52-2.0483,35.647,35.647,0,0,1,31.6216,16.167c.0282.04.058.08.086.12a31.7092,31.7092,0,0,1,5.6126,16.9225,35.82,35.82,0,0,1-3.956,18.8907q.6384.2659,1.2694.564a29.0084,29.0084,0,0,1,16.2632,30.5789c.1991-.1813.1066.2694-.1969,1.1336a29.1051,29.1051,0,0,1-6.582,13.5188,14.6562,14.6562,0,0,1-1.7663,2.3195,44.2041,44.2041,0,0,1-50.2327,8.7583q-.666-.3153-1.3126-.6479,2.0954,1.2072,4.3231,2.262a60.0452,60.0452,0,0,0,51.39-108.5392Zm24.1851,65.86c-2.8254-.1-4.9425-5.0995-4.7308-11.1672.21-6.0722,2.6716-10.9124,5.4938-10.8142,2.8269.0965,4.9441,5.0964,4.734,11.1686C227.0406,945.9611,224.5822,950.8028,221.7553,950.7062Z"/>
            <circle class="cls-16" cx="174.9486" cy="934.0064" r="35.1797"/>
            <path class="cls-17" d="M223.7041,950.8481c.0089.0145.0187.0285.0275.043a32.84,32.84,0,0,0-21.56-49.3891,52.08,52.08,0,0,1,12.785,41.7869c-.1214.51-.2225,1.012-.3078,1.5125-.0988.571-.172,1.1338-.2282,1.6814a.05.05,0,0,1-.0006.0187c-.4383,4.6058.6762,8.2755,2.99,8.9142C219.42,955.9648,221.8164,954.087,223.7041,950.8481Z"/>
            <path class="cls-18" d="M147.5193,856.6188c3.3059-1.6886,6.8778-1.4356,8.3252.6577,1.6537,2.391.0195,6.3848-3.6467,8.9219a12.9124,12.9124,0,0,1-1.1855.7259l-.4935.4a34.7911,34.7911,0,0,0-16.4265,38.9321,34.7969,34.7969,0,0,1,13.4851-49.6637Z"/>
            <path class="cls-19" d="M110.71,925.9817c1.0849,1.2749,2.6163,1.7872,3.5811,1.1657,1.1022-.71,1.1121-2.6558.0239-4.3465a5.8351,5.8351,0,0,0-.3682-.5073l-.1365-.2517a15.69,15.69,0,0,1-.1094-19.0551,15.6918,15.6918,0,0,0-2.9713,23.016Z"/>
            <circle class="cls-20" cx="161.8471" cy="821.5683" r="22.7225"/>
            <path class="cls-21" d="M178.3857,958.0522a26.9689,26.9689,0,0,1-38.795,11.23l-.4884-.3558A48.9813,48.9813,0,0,1,120.1956,937.48c.5346-2.1816,1.6831-3.7064,3.16-3.8754,1.7248-.1987,3.6537,1.8582,4.7273,4.5975a12.3308,12.3308,0,0,0,.9119,3.3835c1.5016,3.5572,4.1934,5.8206,6.0174,5.0536,1.8254-.77,2.0859-4.2782.5858-7.8384-1.24-2.9386-7.4139-7.1566-8.4441-8.285a22.609,22.609,0,0,1-3.9551-24.9223,21.7156,21.7156,0,0,1,2.004-3.4034,22.3449,22.3449,0,0,0,26.1329,17.5068,26.958,26.958,0,0,1,27.05,38.3549Z"/>
          </g>
          <g id="Слой_30" data-name="Слой 30" class="cls-22">
            <circle class="cls-23" cx="607" cy="607" r="606"/>
          </g>
        </g>
      </g>
    </g>
  </g>
</svg>
