<svg xmlns="http://www.w3.org/2000/svg" xmlns:xlink="http://www.w3.org/1999/xlink" viewBox="0 0 888.4867 888.4912">
  <defs>
    <style>
      .cls-1 {
        isolation: isolate;
      }

      .cls-2 {
        fill: url(#Безымянный_градиент_354);
      }

      .cls-3 {
        fill: url(#Безымянный_градиент_325);
      }

      .cls-4 {
        fill: url(#Новый_образец_градиентной_залив);
      }

      .cls-5 {
        fill: url(#Безымянный_градиент_325-2);
      }

      .cls-6 {
        fill: #136c96;
      }

      .cls-7 {
        fill: #5c3c88;
      }

      .cls-8 {
        opacity: 0.8;
      }

      .cls-9 {
        fill: url(#Безымянный_градиент_363);
      }

      .cls-10 {
        fill: url(#Безымянный_градиент_341);
      }

      .cls-11 {
        fill: #190021;
      }

      .cls-12 {
        fill: #180022;
      }

      .cls-13 {
        fill: #120022;
      }

      .cls-14 {
        fill: #06001d;
      }

      .cls-15 {
        fill: #00001a;
      }

      .cls-16 {
        opacity: 0.03;
      }

      .cls-17 {
        fill: #080808;
      }

      .cls-18 {
        fill: #41164b;
      }

      .cls-19 {
        fill: #b348c9;
      }

      .cls-20 {
        opacity: 0.9;
        fill: url(#Безымянный_градиент_72);
      }

      .cls-21 {
        opacity: 0.6;
        fill: url(#Безымянный_градиент_24);
      }

      .cls-22 {
        fill: #5fd8ff;
      }

      .cls-23 {
        fill: #f2f2f2;
        opacity: 0.3;
      }

      .cls-24 {
        fill: #d84aff;
      }

      .cls-24, .cls-25 {
        mix-blend-mode: color-dodge;
      }

      .cls-25 {
        stroke: #fff;
        stroke-miterlimit: 10;
        stroke-width: 0.75px;
        opacity: 0.4;
        fill: url(#Безымянный_градиент_313);
      }

      .cls-26 {
        fill: url(#Безымянный_градиент_24-2);
      }
    </style>
    <linearGradient id="Безымянный_градиент_354" data-name="Безымянный градиент 354" x1="556.5123" y1="771.7522" x2="933.1769" y2="395.0876" gradientUnits="userSpaceOnUse">
      <stop offset="0" stop-color="#152256"/>
      <stop offset="0.1541" stop-color="#241e52"/>
      <stop offset="0.408" stop-color="#351a4e"/>
      <stop offset="0.6802" stop-color="#40184b"/>
      <stop offset="1" stop-color="#43174a"/>
    </linearGradient>
    <linearGradient id="Безымянный_градиент_325" data-name="Безымянный градиент 325" x1="708.5555" y1="343.9215" x2="708.5555" y2="801.3652" gradientUnits="userSpaceOnUse">
      <stop offset="0" stop-color="#5c3a86"/>
      <stop offset="0.3415" stop-color="#593985"/>
      <stop offset="0.5698" stop-color="#503882"/>
      <stop offset="0.765" stop-color="#41347c"/>
      <stop offset="0.9406" stop-color="#2c3073"/>
      <stop offset="1" stop-color="#232e70"/>
    </linearGradient>
    <linearGradient id="Новый_образец_градиентной_залив" data-name="Новый образец градиентной залив" x1="48.7274" y1="731.5454" x2="265.5168" y2="731.5454" gradientUnits="userSpaceOnUse">
      <stop offset="0" stop-color="#4a1496"/>
      <stop offset="0.1868" stop-color="#441d96"/>
      <stop offset="0.4972" stop-color="#343796"/>
      <stop offset="0.8909" stop-color="#1b6096"/>
      <stop offset="0.9944" stop-color="#136c96"/>
    </linearGradient>
    <linearGradient id="Безымянный_градиент_325-2" x1="623.2627" y1="322.9782" x2="623.2627" y2="885.2475" xlink:href="#Безымянный_градиент_325"/>
    <linearGradient id="Безымянный_градиент_363" data-name="Безымянный градиент 363" x1="595.2354" y1="636.1913" x2="772.4593" y2="636.1913" gradientUnits="userSpaceOnUse">
      <stop offset="0" stop-color="#591296"/>
      <stop offset="0.2518" stop-color="#511b96"/>
      <stop offset="0.6689" stop-color="#3d3597"/>
      <stop offset="0.9944" stop-color="#294d97"/>
    </linearGradient>
    <linearGradient id="Безымянный_градиент_341" data-name="Безымянный градиент 341" x1="683.9657" y1="475.0219" x2="683.9657" y2="856.9756" gradientUnits="userSpaceOnUse">
      <stop offset="0" stop-color="#3e1034"/>
      <stop offset="1" stop-color="#152256"/>
    </linearGradient>
    <radialGradient id="Безымянный_градиент_72" data-name="Безымянный градиент 72" cx="830.857" cy="355.9912" r="19.5" gradientUnits="userSpaceOnUse">
      <stop offset="0" stop-color="#cce0f4"/>
      <stop offset="0.0885" stop-color="#c4dff5" stop-opacity="0.9853"/>
      <stop offset="0.2356" stop-color="#aedef7" stop-opacity="0.9455"/>
      <stop offset="0.4233" stop-color="#8bdbfb" stop-opacity="0.8808"/>
      <stop offset="0.6233" stop-color="#5fd8ff" stop-opacity="0.8"/>
      <stop offset="1" stop-color="#294996" stop-opacity="0.5"/>
    </radialGradient>
    <linearGradient id="Безымянный_градиент_24" data-name="Безымянный градиент 24" x1="784.4503" y1="336.917" x2="870.6056" y2="336.917" gradientUnits="userSpaceOnUse">
      <stop offset="0" stop-color="#5fd8ff"/>
      <stop offset="0.9921" stop-color="#d84aff"/>
    </linearGradient>
    <linearGradient id="Безымянный_градиент_313" data-name="Безымянный градиент 313" x1="784.4503" y1="336.917" x2="870.6056" y2="336.917" gradientUnits="userSpaceOnUse">
      <stop offset="0" stop-color="#8a8cbd" stop-opacity="0.9"/>
      <stop offset="0.9921" stop-color="#d84aff" stop-opacity="0.8"/>
    </linearGradient>
    <linearGradient id="Безымянный_градиент_24-2" x1="784.5633" y1="409.1107" x2="808.3762" y2="409.1107" xlink:href="#Безымянный_градиент_24"/>
  </defs>
  <g class="cls-1">
    <g id="ЦГ1">
      <g id="Слой_50" data-name="Слой 50">
        <g id="шар3">
          <path class="cls-2" d="M629.63,835.7368a22.0033,22.0033,0,0,1-9.8051-41.7075A391.5183,391.5183,0,0,0,823.6715,343.5888a22,22,0,1,1,42.539-11.2412A435.5179,435.5179,0,0,1,639.4014,833.4345,21.91,21.91,0,0,1,629.63,835.7368Z"/>
          <path class="cls-3" d="M596.7969,801.3652a17.0029,17.0029,0,0,1-6.8071-32.5859,356.0055,356.0055,0,0,0,204.6-404.1275A17,17,0,0,1,827.7632,357.2,390.0062,390.0062,0,0,1,603.5865,799.9424,16.9493,16.9493,0,0,1,596.7969,801.3652Z"/>
          <path class="cls-4" d="M263.0147,838.4218a2.492,2.492,0,0,1-1.0405-.228,442.1216,442.1216,0,0,1-52.3721-28.46A435.23,435.23,0,0,1,48.9683,628.2387a2.5,2.5,0,0,1,4.52-2.1386A430.2333,430.2333,0,0,0,212.28,805.5112a437.1547,437.1547,0,0,0,51.7784,28.1377,2.5,2.5,0,0,1-1.0435,4.7729Z"/>
          <path class="cls-5" d="M447.3707,885.2475a438.35,438.35,0,0,1-83.1284-7.9692,4,4,0,0,1,1.5166-7.8555,436.8677,436.8677,0,0,0,82.8334,7.96c145.3628.0014,281.6924-73.4194,361.9473-199.9536a430.491,430.491,0,0,0,50.0869-349.3448,4,4,0,1,1,7.6875-2.2119,438.2183,438.2183,0,0,1-420.9433,559.375Z"/>
          <path class="cls-6" d="M440.9566,838.7885c-.2383,0-.4634,0-.7017,0a1,1,0,0,1,.002-2h.002c.2314,0,.4658,0,.6977,0a395.2081,395.2081,0,0,0,247.794-87.4335,1,1,0,0,1,1.2578,1.5556A397.24,397.24,0,0,1,440.9566,838.7885Z"/>
          <path class="cls-7" d="M445.0582,857.6059a415.2738,415.2738,0,0,1-294.752-123.581.5.5,0,1,1,.7119-.7022,415.0743,415.0743,0,0,0,73.1875,58.9815A410.47,410.47,0,0,0,444.67,856.4067c136.7949.0064,270.7651-67.793,349.3-191.6152C854.0191,570.1133,872.8951,457.87,847.12,348.7378a.5.5,0,1,1,.9726-.2295A414.215,414.215,0,0,1,445.0582,857.6059Z"/>
          <path class="cls-6" d="M444.9376,848.5942A403.4773,403.4773,0,0,1,228.483,785.561c-11.3472-7.1973-22.4346-15.0181-32.9546-23.2446a.5.5,0,1,1,.6162-.7881c10.4941,8.207,21.5547,16.0083,32.8735,23.188,177.2242,112.4043,414.28,68.8882,539.6836-99.0713,6.1748-8.27,12.1231-16.9063,17.68-25.666a.5.5,0,1,1,.8438.5351c-5.5694,8.7818-11.5323,17.4385-17.7227,25.73A405.6236,405.6236,0,0,1,444.9376,848.5942Z"/>
          <g class="cls-8">
            <path class="cls-9" d="M601.7423,748.9111a6.5007,6.5007,0,0,1-3.1675-12.18A336.0382,336.0382,0,0,0,759.6666,528.3374a6.5,6.5,0,1,1,12.582,3.2695A349.0307,349.0307,0,0,1,604.898,748.0893,6.4714,6.4714,0,0,1,601.7423,748.9111Z"/>
          </g>
          <path class="cls-10" d="M523.4146,856.9756a10.0012,10.0012,0,0,1-2.1748-19.7608c105.1377-23.53,194.82-86.5942,252.5264-177.5762a399.1866,399.1866,0,0,0,60.7929-175.61,10,10,0,1,1,19.9,1.9883A422.9906,422.9906,0,0,1,525.608,856.7324,10.0407,10.0407,0,0,1,523.4146,856.9756Z"/>
          <path class="cls-11" d="M450.8541,748.6714a1.5,1.5,0,0,1-.0425-3A304.42,304.42,0,0,0,739.1343,507.8154a1.5,1.5,0,1,1,2.9278.6514A307.42,307.42,0,0,1,450.8985,748.6709Z"/>
          <path class="cls-12" d="M440.7291,762.5571q-7.8209,0-15.646-.3828a1.5,1.5,0,0,1,.1465-2.9961,318.0471,318.0471,0,0,0,312.768-204.5967,1.5,1.5,0,0,1,2.8047,1.0664A320.5486,320.5486,0,0,1,440.7291,762.5571Z"/>
          <path class="cls-13" d="M423.4639,784.9594A351.1794,351.1794,0,0,1,164.5923,670.6777a2.5,2.5,0,0,1,3.6934-3.37,345.2805,345.2805,0,0,0,546.7832-47.7139,2.5,2.5,0,0,1,4.2227,2.6778A350.1528,350.1528,0,0,1,423.4639,784.9594Z"/>
          <path class="cls-14" d="M438.6837,841.0693a393.1487,393.1487,0,0,1-129.8829-22.1,9.5,9.5,0,1,1,6.2686-17.936c146.124,51.0722,311.4687,6.0361,411.4438-112.0645a9.5,9.5,0,0,1,14.502,12.2764A393.2427,393.2427,0,0,1,542.4468,827.23,397.7127,397.7127,0,0,1,438.6837,841.0693Z"/>
          <path class="cls-15" d="M441.0909,869.0927a424.194,424.194,0,0,1-161.1016-31.67,3.5,3.5,0,1,1,2.6592-6.4756c187.91,77.1724,403.396,8.47,512.3774-163.3569,4.3086-6.7939,8.4678-13.7817,12.3623-20.77a3.5,3.5,0,0,1,6.1153,3.4072c-3.959,7.1035-8.1865,14.2066-12.5654,21.1118A425.7505,425.7505,0,0,1,441.0909,869.0927Z"/>
          <g class="cls-16">
            <path class="cls-17" d="M444.1561,888.4912a444.3021,444.3021,0,1,1,178.0933-37.2825A444.6963,444.6963,0,0,1,444.1561,888.4912ZM445.1088.6944a447.05,447.05,0,0,0-97.701,10.8615C231.8329,37.4213,133.248,106.7462,69.8142,206.76-61.135,413.2209.2983,687.7244,206.7594,818.6736A443.0248,443.0248,0,0,0,818.6727,681.7274c63.4343-100.014,84.124-218.7439,58.2582-334.3192s-95.19-214.16-195.2043-277.5941C609.8234,24.2088,528.2328.6944,445.1088.6944Z"/>
          </g>
          <circle class="cls-18" cx="833.2377" cy="335.6263" r="40.5301"/>
          <path class="cls-19" d="M846.5488,347.6094c-1.1734-2.1384-3.298-3.38-5.3566-2.91a4.8632,4.8632,0,0,0-3.6365,4.2612,20.2921,20.2921,0,0,1-1.41,4.1817,19.5958,19.5958,0,0,0-26.8321-18.7965,25.6548,25.6548,0,0,1,37.2354,13.2636Z"/>
          <circle class="cls-20" cx="830.857" cy="355.9912" r="19.5"/>
          <path class="cls-21" d="M789.6567,316.4529a43.0942,43.0942,0,0,0,33.425,63.3638l.0068-.0006a6.1066,6.1066,0,0,1,1.5067.1121,14.6733,14.6733,0,1,0-5.5323-27.9225,5.6475,5.6475,0,0,1-1.4033.5835l-.0086.0039a18.2715,18.2715,0,0,1-22.9169-25.6391c.138-.2547.2792-.5076.4246-.7561.0639-.1139.1311-.2261.1983-.3382l.0009-.0017c.0656-.1131.1328-.2252.2033-.3356q.1008-.1682.2066-.3337.2054-.3313.4239-.6553.2139-.3234.4378-.6414c.1476-.2129.2967-.4206.4517-.6273.2278-.3093.4623-.6151.7017-.9139.1423-.1791.2887-.3582.4351-.533.0343-.0395.067-.08.1013-.1195.1464-.1747.2952-.3461.4456-.5165.0836-.0947.1672-.1894.2524-.2831l.0035-.0025q.3031-.3332.6154-.6592a30.403,30.403,0,0,1,4.0178-3.5143l.0009-.0016c.2378-.1727.4772-.3444.72-.51.0164-.0105.0338-.0226.0486-.034.2895-.2006.5829-.3926.88-.58.206-.1339.417-.2651.63-.3911.1038-.0644.2108-.1269.3179-.1895.1331-.0787.2669-.1547.4007-.2308q.4013-.2283.8082-.4428c.1379-.0718.2732-.1427.41-.2127.218-.1124.4393-.2229.6622-.3282.11-.0523.2228-.1054.333-.1577.1118-.0514.2236-.1028.3345-.1525.1135-.05.2253-.1019.3379-.1507.2234-.0986.4468-.1929.6734-.2855.115-.0453.231-.0924.346-.1377s.23-.0908.344-.1344.23-.0865.3431-.1286c.1158-.0428.2315-.0856.348-.1258.04-.0148.0832-.03.1252-.0442.1894-.0675.3787-.1307.57-.1931q.8762-.2877,1.77-.5248c.1009-.0272.2034-.0535.305-.0781a30.7989,30.7989,0,0,1,3.2961-.6476c.11-.0159.22-.0318.33-.0451.3292-.0434.6617-.0808.994-.114.1155-.0106.2311-.0212.3483-.0309.1224-.0113.2464-.0216.3712-.0294.0722-.0061.1418-.0114.2131-.0159l.3005-.018c.4489-.026.901-.0417,1.3518-.0473.1237-.0018.2491-.0028.3746-.0038.1118,0,.2252.0015.3387.0027.1372.0011.2744.0022.41.0066l.3758.01q.75.0284,1.4989.0906c.1259.01.2518.02.3759.0335a30.6383,30.6383,0,0,1,4.4864.7722c.1235.03.2478.0632.37.0952.1243.0328.2485.0657.3719.1.1243.0329.2468.0692.37.1037l.4228.1257q.2744.0839.5459.1728c.06.02.1223.0405.1843.0612q.9528.3159,1.8907.6989c.0937.0378.1856.0747.2767.1133.2682.113.5372.2286.8009.35.0911.0386.18.08.27.1224q.8913.4116,1.7627.8837a30.962,30.962,0,0,1,15.9645,31.1767c.0289-.0533.06-.1074.0891-.1606.0051-.0253.0127-.0513.0178-.0765,1.4392-6.1511,5.5866-10.4414,9.2612-9.5814,3.6762.8608,5.489,6.545,4.0507,12.6945-1.21,5.1667-4.3278,9.02-7.473,9.6112l-.0026.0007a2.6022,2.6022,0,0,1-.6359.1207,3.4316,3.4316,0,1,0,2.8728,5.9655l.0209-.0189c.047-.0391.0916-.0816.1362-.1242a43.073,43.073,0,1,0-71.3386-47.6337Zm49.0586-15.4056c2.56,1.5867,4.0141,3.5522,3.53,5.1543-.5636,1.8435-3.534,2.6568-7.2227,2.2047l-.0144-.0013c-.4386-.0568-.8886-.1283-1.3447-.22-.4007-.0792-.8009-.1711-1.2073-.2793a41.8224,41.8224,0,0,0-33.8256,9.3474,26.371,26.371,0,0,1,40.12-16.2255A.3451.3451,0,0,1,838.7153,301.0473Z"/>
          <path class="cls-22" d="M861.2252,354.5715a3.26,3.26,0,0,1,1.2354,4.44,3.3388,3.3388,0,0,1-2.6527,1.755,7.5172,7.5172,0,0,0-6.9833,3.9827c-.0337.0622-.0658.124-.0971.1863a7.6444,7.6444,0,0,1,6.6551-10.75A3.1761,3.1761,0,0,1,861.2252,354.5715Z"/>
          <path class="cls-23" d="M831.1752,345.087a15.0622,15.0622,0,0,0-22.1007.1423c-2.03,1.6929-4.4437,2.1381-5.671.9459-1.3677-1.3308-.7393-4.1963,1.4041-6.4005a8.58,8.58,0,0,1,1.0441-.9179l.0044-.0041c.183-.1313.37-.2582.56-.3815.0312-.0219.0649-.04.0977-.0612a17.23,17.23,0,0,1,24.6617,6.677Z"/>
          <path class="cls-24" d="M831.1752,345.087a15.0622,15.0622,0,0,0-22.1007.1423c-2.03,1.6929-4.4437,2.1381-5.671.9459-1.3677-1.3308-.7393-4.1963,1.4041-6.4005a8.58,8.58,0,0,1,1.0441-.9179l.0044-.0041c.183-.1313.37-.2582.56-.3815.0312-.0219.0649-.04.0977-.0612a17.23,17.23,0,0,1,24.6617,6.677Z"/>
          <path class="cls-25" d="M789.6567,316.4529a43.0942,43.0942,0,0,0,33.425,63.3638l.0068-.0006a6.1066,6.1066,0,0,1,1.5067.1121,14.6733,14.6733,0,1,0-5.5323-27.9225,5.6475,5.6475,0,0,1-1.4033.5835l-.0086.0039a18.2715,18.2715,0,0,1-22.9169-25.6391c.138-.2547.2792-.5076.4246-.7561.0639-.1139.1311-.2261.1983-.3382l.0009-.0017c.0656-.1131.1328-.2252.2033-.3356q.1008-.1682.2066-.3337.2054-.3313.4239-.6553.2139-.3234.4378-.6414c.1476-.2129.2967-.4206.4517-.6273.2278-.3093.4623-.6151.7017-.9139.1423-.1791.2887-.3582.4351-.533.0343-.0395.067-.08.1013-.1195.1464-.1747.2952-.3461.4456-.5165.0836-.0947.1672-.1894.2524-.2831l.0035-.0025q.3031-.3332.6154-.6592a30.403,30.403,0,0,1,4.0178-3.5143l.0009-.0016c.2378-.1727.4772-.3444.72-.51.0164-.0105.0338-.0226.0486-.034.2895-.2006.5829-.3926.88-.58.206-.1339.417-.2651.63-.3911.1038-.0644.2108-.1269.3179-.1895.1331-.0787.2669-.1547.4007-.2308q.4013-.2283.8082-.4428c.1379-.0718.2732-.1427.41-.2127.218-.1124.4393-.2229.6622-.3282.11-.0523.2228-.1054.333-.1577.1118-.0514.2236-.1028.3345-.1525.1135-.05.2253-.1019.3379-.1507.2234-.0986.4468-.1929.6734-.2855.115-.0453.231-.0924.346-.1377s.23-.0908.344-.1344.23-.0865.3431-.1286c.1158-.0428.2315-.0856.348-.1258.04-.0148.0832-.03.1252-.0442.1894-.0675.3787-.1307.57-.1931q.8762-.2877,1.77-.5248c.1009-.0272.2034-.0535.305-.0781a30.7989,30.7989,0,0,1,3.2961-.6476c.11-.0159.22-.0318.33-.0451.3292-.0434.6617-.0808.994-.114.1155-.0106.2311-.0212.3483-.0309.1224-.0113.2464-.0216.3712-.0294.0722-.0061.1418-.0114.2131-.0159l.3005-.018c.4489-.026.901-.0417,1.3518-.0473.1237-.0018.2491-.0028.3746-.0038.1118,0,.2252.0015.3387.0027.1372.0011.2744.0022.41.0066l.3758.01q.75.0284,1.4989.0906c.1259.01.2518.02.3759.0335a30.6383,30.6383,0,0,1,4.4864.7722c.1235.03.2478.0632.37.0952.1243.0328.2485.0657.3719.1.1243.0329.2468.0692.37.1037l.4228.1257q.2744.0839.5459.1728c.06.02.1223.0405.1843.0612q.9528.3159,1.8907.6989c.0937.0378.1856.0747.2767.1133.2682.113.5372.2286.8009.35.0911.0386.18.08.27.1224q.8913.4116,1.7627.8837a30.962,30.962,0,0,1,15.9645,31.1767c.0289-.0533.06-.1074.0891-.1606.0051-.0253.0127-.0513.0178-.0765,1.4392-6.1511,5.5866-10.4414,9.2612-9.5814,3.6762.8608,5.489,6.545,4.0507,12.6945-1.21,5.1667-4.3278,9.02-7.473,9.6112l-.0026.0007a2.6022,2.6022,0,0,1-.6359.1207,3.4316,3.4316,0,1,0,2.8728,5.9655l.0209-.0189c.047-.0391.0916-.0816.1362-.1242a43.073,43.073,0,1,0-71.3386-47.6337Zm49.0586-15.4056c2.56,1.5867,4.0141,3.5522,3.53,5.1543-.5636,1.8435-3.534,2.6568-7.2227,2.2047l-.0144-.0013c-.4386-.0568-.8886-.1283-1.3447-.22-.4007-.0792-.8009-.1711-1.2073-.2793a41.8224,41.8224,0,0,0-33.8256,9.3474,26.371,26.371,0,0,1,40.12-16.2255A.3451.3451,0,0,1,838.7153,301.0473Z"/>
          <circle class="cls-26" cx="796.4698" cy="409.1107" r="11.9065"/>
        </g>
      </g>
    </g>
  </g>
</svg>
