<svg xmlns="http://www.w3.org/2000/svg" xmlns:xlink="http://www.w3.org/1999/xlink" viewBox="0 0 505 505">
  <defs>
    <style>
      .cls-1 {
        fill: url(#Безымянный_градиент_200);
      }

      .cls-2 {
        fill: url(#Безымянный_градиент_170);
      }

      .cls-3 {
        fill: #310224;
      }

      .cls-4 {
        fill: #3d0028;
      }

      .cls-5 {
        fill: url(#Безымянный_градиент_198);
      }

      .cls-6 {
        fill: #43002a;
      }

      .cls-7 {
        fill: url(#Безымянный_градиент_170-2);
      }

      .cls-8 {
        fill: url(#Безымянный_градиент_189);
      }

      .cls-9 {
        fill: url(#Безымянный_градиент_189-2);
      }

      .cls-10 {
        fill: none;
        stroke: #2a1700;
        opacity: 0.07;
      }

      .cls-10, .cls-13 {
        stroke-miterlimit: 10;
      }

      .cls-11 {
        fill: url(#Безымянный_градиент_170-3);
      }

      .cls-12 {
        fill: url(#Безымянный_градиент_148);
      }

      .cls-13 {
        stroke: #c9fffb;
        fill: url(#Безымянный_градиент_24);
      }

      .cls-13, .cls-14 {
        opacity: 0.8;
      }

      .cls-14 {
        fill: url(#Безымянный_градиент_24-2);
      }
    </style>
    <linearGradient id="Безымянный_градиент_200" data-name="Безымянный градиент 200" x1="75.6099" y1="443.3424" x2="448.4622" y2="443.3424" gradientUnits="userSpaceOnUse">
      <stop offset="0" stop-color="#423881"/>
      <stop offset="1" stop-color="#863ea1"/>
    </linearGradient>
    <linearGradient id="Безымянный_градиент_170" data-name="Безымянный градиент 170" x1="61.5203" y1="408.5518" x2="420.6515" y2="408.5518" gradientUnits="userSpaceOnUse">
      <stop offset="0" stop-color="#8516bb"/>
      <stop offset="1" stop-color="#904eb0"/>
    </linearGradient>
    <linearGradient id="Безымянный_градиент_198" data-name="Безымянный градиент 198" x1="119.0616" y1="404.5205" x2="278.7642" y2="404.5205" gradientUnits="userSpaceOnUse">
      <stop offset="0" stop-color="#7f11b0"/>
      <stop offset="1" stop-color="#5156b4"/>
    </linearGradient>
    <linearGradient id="Безымянный_градиент_170-2" x1="14.5" y1="333.5867" x2="441.2043" y2="333.5867" xlink:href="#Безымянный_градиент_170"/>
    <linearGradient id="Безымянный_градиент_189" data-name="Безымянный градиент 189" x1="34.7133" y1="434.2477" x2="323.4128" y2="434.2477" gradientUnits="userSpaceOnUse">
      <stop offset="0" stop-color="#3a275e"/>
      <stop offset="1" stop-color="#591852"/>
    </linearGradient>
    <linearGradient id="Безымянный_градиент_189-2" x1="20.6875" y1="366.9601" x2="108.2906" y2="366.9601" xlink:href="#Безымянный_градиент_189"/>
    <linearGradient id="Безымянный_градиент_170-3" x1="139.7217" y1="458.7383" x2="447.3408" y2="458.7383" xlink:href="#Безымянный_градиент_170"/>
    <radialGradient id="Безымянный_градиент_148" data-name="Безымянный градиент 148" cx="429.5" cy="387.5" fx="420.047553293314" r="19.8425" gradientUnits="userSpaceOnUse">
      <stop offset="0" stop-color="#7ffdff"/>
      <stop offset="0.4829" stop-color="#b4feff" stop-opacity="0.8477"/>
      <stop offset="1" stop-color="#e7ffff" stop-opacity="0.7"/>
    </radialGradient>
    <linearGradient id="Безымянный_градиент_24" data-name="Безымянный градиент 24" x1="401.1821" y1="389.3667" x2="457.5" y2="389.3667" gradientUnits="userSpaceOnUse">
      <stop offset="0" stop-color="#5fd8ff"/>
      <stop offset="0.9921" stop-color="#d84aff"/>
    </linearGradient>
    <linearGradient id="Безымянный_градиент_24-2" x1="398.7306" y1="383.1605" x2="432.3458" y2="383.1605" xlink:href="#Безымянный_градиент_24"/>
  </defs>
  <g id="ЦГ1">
    <g id="Слой_50" data-name="Слой 50">
      <g id="шар1">
        <g id="Слой_22" data-name="Слой 22">
          <path class="cls-1" d="M252.5,501.5A247.8617,247.8617,0,0,1,80.395,432.4473a15.5,15.5,0,0,1,21.43-22.4,218.01,218.01,0,0,0,319.1636-19.2051,15.5,15.5,0,1,1,23.9472,19.6855A248.2932,248.2932,0,0,1,252.5,501.5Z"/>
          <path class="cls-2" d="M252.5,471A218.4229,218.4229,0,0,1,62.8481,361.082a10,10,0,1,1,17.3477-9.9531,198.5442,198.5442,0,0,0,322.8735,30.7256,10,10,0,0,1,15.1641,13.041A218.3941,218.3941,0,0,1,252.5,471Z"/>
          <path class="cls-3" d="M162.5986,462.7314a4.994,4.994,0,0,1-2.0063-.4218A229.1518,229.1518,0,0,1,23.5,252.5a5,5,0,0,1,10,0A219.1485,219.1485,0,0,0,164.61,453.1514a5.0008,5.0008,0,0,1-2.0113,9.58Z"/>
          <path class="cls-4" d="M193.0269,447.01a3.4761,3.4761,0,0,1-1.0406-.1592A205.2168,205.2168,0,0,1,89.43,374.26,203.6448,203.6448,0,0,1,76.228,150.7456a3.5,3.5,0,0,1,6.06,3.5049A196.6223,196.6223,0,0,0,194.0654,440.167a3.5,3.5,0,0,1-1.0385,6.8428Z"/>
          <path class="cls-5" d="M252.5,435.5a181.3857,181.3857,0,0,1-132.6123-56.8926,3,3,0,1,1,4.3477-4.1347A175.44,175.44,0,0,0,252.5,429.5a179.5461,179.5461,0,0,0,22.88-1.4648,3,3,0,1,1,.7676,5.9511A185.6461,185.6461,0,0,1,252.5,435.5Z"/>
          <path class="cls-6" d="M252.5,423.5A171.0584,171.0584,0,0,1,85.0444,287.3047a1,1,0,1,1,1.959-.4043C103.13,364.8926,172.7314,421.5,252.5,421.5a1,1,0,0,1,0,2Z"/>
          <path class="cls-7" d="M252.5,490.5A238.1752,238.1752,0,0,1,26.72,177.0151a.5.5,0,0,1,.9483.3174A236.6893,236.6893,0,0,0,15.5,252.5c0,130.6826,106.3179,237,237,237a235.5314,235.5314,0,0,0,187.8076-92.4229.5007.5007,0,0,1,.793.6114,240.2536,240.2536,0,0,1-81.8242,67.5732A235.5387,235.5387,0,0,1,252.5,490.5Z"/>
          <path class="cls-8" d="M252.5,501.5A249.5346,249.5346,0,0,1,35.3569,374.4482a5,5,0,0,1,8.7149-4.9043A239.387,239.387,0,0,0,317.0635,482.6787a5,5,0,1,1,2.6953,9.6309A249.5189,249.5189,0,0,1,252.5,501.5Z"/>
          <path class="cls-9" d="M104.2881,436.2939a3.9821,3.9821,0,0,1-2.5435-.915A237.8553,237.8553,0,0,1,20.7773,302.4678a4,4,0,0,1,7.8223-1.68A229.82,229.82,0,0,0,106.8364,429.209a4,4,0,0,1-2.5483,7.0849Z"/>
          <g id="Слой_18" data-name="Слой 18">
            <circle class="cls-10" cx="252.5" cy="252.5" r="252"/>
          </g>
          <path class="cls-11" d="M252.5,505a249.9284,249.9284,0,0,1-112.7783-26.5234l.4472-.8946a251.6874,251.6874,0,0,0,306.4-65.1054l.7715.6367A251.8418,251.8418,0,0,1,252.5,505Z"/>
          <circle class="cls-12" cx="429.5" cy="387.5" r="19"/>
        </g>
        <g id="Слой_23" data-name="Слой 23">
          <path class="cls-13" d="M457.5,389.3667a29.3873,29.3873,0,0,1-55.7875,12.9064c-1.07-3.1831-.5077-6.2657,1.5687-7.4685,1.683-.97,3.9516-.4573,5.9318,1.12a17.0338,17.0338,0,1,0,2.3463-26.0552.0161.0161,0,0,0-.0092.0046c-1.82,1.0382-3.64,1.2028-4.2076.3339a1.7753,1.7753,0,0,1,.2333-1.8523A29.3822,29.3822,0,0,1,457.5,389.3667Z"/>
          <path class="cls-14" d="M432.3458,382.0492a13.3783,13.3783,0,0,1-21.2942,10.7842,9.382,9.382,0,0,0-5.6757-2.7624,4.9435,4.9435,0,0,0-2.8081.6266c-2.09,1.2074-2.9956,3.8829-2.648,6.9517a29.3936,29.3936,0,0,1,5.7077-27.194,1.8653,1.8653,0,0,0-.2791,1.9072c.6586,1.0016,3.0917.5808,5.4928-.9376a13.376,13.376,0,0,1,21.5046,10.6243Z"/>
        </g>
      </g>
    </g>
  </g>
</svg>
