<svg id="Слой_1" data-name="Слой 1" xmlns="http://www.w3.org/2000/svg" xmlns:xlink="http://www.w3.org/1999/xlink" viewBox="0 0 1332 1332">
  <defs>
    <style>
      .cls-1 {
        fill: url(#Безымянный_градиент);
      }

      .cls-2 {
        fill: #0b1127;
      }

      .cls-3 {
        fill: #02153f;
      }

      .cls-4 {
        fill: #031b47;
      }

      .cls-5 {
        fill: #0f1e3f;
      }

      .cls-6 {
        fill: #0a1832;
      }

      .cls-7 {
        fill: #9362b4;
      }

      .cls-8 {
        opacity: 0.53;
      }

      .cls-9 {
        fill: url(#Безымянный_градиент_2);
      }

      .cls-10 {
        fill: #7b5da7;
      }

      .cls-11 {
        opacity: 0.58;
      }

      .cls-12 {
        fill: url(#Безымянный_градиент_3);
      }

      .cls-13 {
        fill: url(#Безымянный_градиент_4);
      }

      .cls-14 {
        fill: url(#Безымянный_градиент_5);
      }

      .cls-15 {
        fill: url(#Безымянный_градиент_6);
      }

      .cls-16 {
        fill: url(#Безымянный_градиент_7);
      }

      .cls-17 {
        opacity: 0.5;
      }

      .cls-18 {
        fill: url(#Безымянный_градиент_8);
      }

      .cls-19 {
        fill: url(#Безымянный_градиент_9);
      }

      .cls-20 {
        fill: #080808;
      }

      .cls-21 {
        fill: url(#Безымянный_градиент_10);
      }

      .cls-22 {
        fill: #43002a;
      }

      .cls-23 {
        fill: none;
        stroke: #000;
        stroke-miterlimit: 10;
      }
    </style>
    <linearGradient id="Безымянный_градиент" data-name="Безымянный градиент" x1="283.9738" y1="838.0562" x2="946.1936" y2="838.0562" gradientTransform="matrix(1, 0, 0, -1, 0, 1332)" gradientUnits="userSpaceOnUse">
      <stop offset="0" stop-color="#481981"/>
      <stop offset="1" stop-color="#375587"/>
    </linearGradient>
    <linearGradient id="Безымянный_градиент_2" data-name="Безымянный градиент 2" x1="670.6347" y1="546.5349" x2="800.1792" y2="546.5349" gradientTransform="matrix(1, 0, 0, -1, 0, 1332)" gradientUnits="userSpaceOnUse">
      <stop offset="0" stop-color="#ff7bac" stop-opacity="0"/>
      <stop offset="0.1715" stop-color="#f56aa2" stop-opacity="0.1404"/>
      <stop offset="0.5376" stop-color="#da408a" stop-opacity="0.501"/>
      <stop offset="1" stop-color="#b50568"/>
    </linearGradient>
    <linearGradient id="Безымянный_градиент_3" data-name="Безымянный градиент 3" x1="557.4864" y1="795.2409" x2="628.8025" y2="795.2409" gradientTransform="matrix(1, 0, 0, -1, 0, 1332)" gradientUnits="userSpaceOnUse">
      <stop offset="0" stop-color="#791390"/>
      <stop offset="0.1987" stop-color="#701c92"/>
      <stop offset="0.529" stop-color="#563597"/>
      <stop offset="0.9479" stop-color="#2d5c9f"/>
      <stop offset="0.9944" stop-color="#2861a0"/>
    </linearGradient>
    <linearGradient id="Безымянный_градиент_4" data-name="Безымянный градиент 4" x1="695.2396" y1="786.7544" x2="855.6912" y2="786.7544" gradientTransform="matrix(1, 0, 0, -1, 0, 1332)" gradientUnits="userSpaceOnUse">
      <stop offset="0" stop-color="#a50568"/>
      <stop offset="0.4162" stop-color="#ce3a87" stop-opacity="0.5491"/>
      <stop offset="0.8137" stop-color="#f169a2" stop-opacity="0.1539"/>
      <stop offset="1" stop-color="#ff7bac" stop-opacity="0"/>
    </linearGradient>
    <linearGradient id="Безымянный_градиент_5" data-name="Безымянный градиент 5" x1="775.4529" y1="770.8855" x2="865.5521" y2="770.8855" gradientTransform="matrix(1, 0, 0, -1, 0, 1332)" gradientUnits="userSpaceOnUse">
      <stop offset="0" stop-color="#7f2b8d"/>
      <stop offset="0.3801" stop-color="#7a3491"/>
      <stop offset="0.9944" stop-color="#6c4d9b"/>
    </linearGradient>
    <linearGradient id="Безымянный_градиент_6" data-name="Безымянный градиент 6" x1="829.307" y1="613.7529" x2="851.3154" y2="613.7529" gradientTransform="matrix(1, 0, 0, -1, 0, 1332)" gradientUnits="userSpaceOnUse">
      <stop offset="0" stop-color="#6d1590"/>
      <stop offset="0.3498" stop-color="#671e91"/>
      <stop offset="0.9295" stop-color="#573895"/>
      <stop offset="0.9944" stop-color="#553b96"/>
    </linearGradient>
    <linearGradient id="Безымянный_градиент_7" data-name="Безымянный градиент 7" x1="797.68" y1="735.0626" x2="836.7581" y2="735.0626" xlink:href="#Безымянный_градиент_5"/>
    <linearGradient id="Безымянный_градиент_8" data-name="Безымянный градиент 8" x1="387.1777" y1="673.7765" x2="493.6305" y2="673.7765" gradientTransform="matrix(0.9796, 0.2007, 0.2007, -0.9796, -188.4211, 1282.7786)" gradientUnits="userSpaceOnUse">
      <stop offset="0" stop-color="#ff7bac" stop-opacity="0"/>
      <stop offset="0.2144" stop-color="#ea6fa5" stop-opacity="0.18"/>
      <stop offset="0.6682" stop-color="#b65293" stop-opacity="0.6383"/>
      <stop offset="1" stop-color="#8d3b85"/>
    </linearGradient>
    <linearGradient id="Безымянный_градиент_9" data-name="Безымянный градиент 9" x1="339.1874" y1="509.038" x2="455.6216" y2="509.038" gradientTransform="matrix(1, 0, 0, -1, 0, 1332)" gradientUnits="userSpaceOnUse">
      <stop offset="0" stop-color="#611e86"/>
      <stop offset="0.2398" stop-color="#5d2788"/>
      <stop offset="0.6369" stop-color="#53418f"/>
      <stop offset="0.9944" stop-color="#485d96"/>
    </linearGradient>
    <linearGradient id="Безымянный_градиент_10" data-name="Безымянный градиент 10" x1="349.0116" y1="1034.0691" x2="654.087" y2="1034.0691" gradientTransform="matrix(1, 0, 0, -1, 0, 1332)" gradientUnits="userSpaceOnUse">
      <stop offset="0" stop-color="#193a76"/>
      <stop offset="1" stop-color="#3b2b74"/>
    </linearGradient>
  </defs>
  <g id="ЦГ1">
    <g id="Слой_51" data-name="Слой 51">
      <g id="ФОН">
        <g id="ЦГ1-2">
          <path class="cls-1" d="M288.1846,707.4121a1,1,0,0,1-.9908-.87,381.6987,381.6987,0,0,1-3.22-49.4727c.0037-207.9908,168.6166-376.5977,376.6074-376.594a376.6009,376.6009,0,0,1,285.37,130.8605,1,1,0,0,1-1.5157,1.3057A374.4594,374.4594,0,0,0,660.5684,282.4751c-206.5523,0-374.5948,168.0425-374.5948,374.5942a379.63,379.63,0,0,0,3.2036,49.2129,1,1,0,0,1-.8614,1.1215h0A1.08,1.08,0,0,1,288.1846,707.4121Z"/>
          <path class="cls-2" d="M903.1553,1283.5142a10.0017,10.0017,0,0,1-3.7617-19.27c246.6533-100.0293,406.0293-336.6606,406.0293-602.8457,0-138.2973-42.8332-270.3413-123.8692-381.8564a10,10,0,1,1,16.18-11.7569h0a667.2967,667.2967,0,0,1,127.6894,393.6133c0,136.0577-40.5372,267.0454-117.2286,378.8018A672.5568,672.5568,0,0,1,906.91,1282.7783,9.97,9.97,0,0,1,903.1553,1283.5142Z"/>
          <path class="cls-3" d="M1227.6064,887.01a3.5021,3.5021,0,0,1-3.2724-4.74,612.7256,612.7256,0,0,0-108.93-615.9673,3.5,3.5,0,1,1,5.3008-4.5722,619.7263,619.7263,0,0,1,110.1758,623.0171A3.5028,3.5028,0,0,1,1227.6064,887.01Z"/>
          <path class="cls-4" d="M1168.86,512.7964a20.0077,20.0077,0,0,1-18.9581-13.6387,520.75,520.75,0,0,0-494.205-355.1728,20,20,0,1,1,0-40c119.9326,0,234.3466,37.3,330.874,107.8681a562.4313,562.4313,0,0,1,201.251,274.5713,20.0146,20.0146,0,0,1-18.9619,26.3721Z"/>
          <path class="cls-5" d="M656.2388,1167.8823c-274.6781-.3561-497.06-223.3153-496.7039-497.9934S382.85,172.8289,657.5283,173.185s497.06,223.3153,496.7039,497.9934a497.349,497.349,0,0,1-497.9934,496.7039Zm0-995.8125c-273.9951,0-496.9063,222.9112-496.9063,496.9063s222.9112,496.9062,496.9063,496.9062,496.9057-222.9111,496.9057-496.9062S930.2334,172.07,656.2388,172.07Z"/>
          <path class="cls-2" d="M1049.6748,1136.937a1,1,0,0,1-.6377-1.7715,615.015,615.015,0,0,0,130.51-148.9292,1,1,0,0,1,1.6972,1.0591h0a617.0336,617.0336,0,0,1-130.9336,149.4131A.9961.9961,0,0,1,1049.6748,1136.937Z"/>
          <path class="cls-6" d="M1243.2686,734.3813a1.0549,1.0549,0,0,1-.1231-.0073.9994.9994,0,0,1-.87-1.1136l0-.0016a602.7287,602.7287,0,0,0,4.4971-73.4834,592.7194,592.7194,0,0,0-155.8234-401.1763,1,1,0,0,1,1.449-1.3786l.0256.028a594.715,594.715,0,0,1,156.3487,402.5269,604.7963,604.7963,0,0,1-4.5127,73.7285A1,1,0,0,1,1243.2686,734.3813Z"/>
          <path class="cls-7" d="M769.3961,581.4342a.3737.3737,0,0,1-.2836-.1458,126.9217,126.9217,0,0,0-76.6109-47.2612.3751.3751,0,1,1,.1412-.7368h0a127.6716,127.6716,0,0,1,77.0633,47.54.3751.3751,0,0,1-.31.6037Z"/>
          <path class="cls-7" d="M604.499,776.0039a.37.37,0,0,1-.188-.0508,133.3772,133.3772,0,0,1-65.3759-100.2.3748.3748,0,0,1,.7451-.082,132.6248,132.6248,0,0,0,65.0078,99.6333.375.375,0,0,1-.189.6993Z"/>
          <path class="cls-7" d="M655.6636,804.0635l-.0391-.0015a145.3882,145.3882,0,0,1-91.5084-42.1783.5.5,0,0,1,.707-.7069,144.39,144.39,0,0,0,90.8785,41.8881.5.5,0,0,1-.0381.9986Z"/>
          <path class="cls-7" d="M686.83,785.7441a.3751.3751,0,0,1-.0611-.7451,120.115,120.115,0,0,0,98.9659-103.332.3806.3806,0,0,1,.4174-.3267.3745.3745,0,0,1,.3269.4165l0,.001A120.4526,120.4526,0,0,1,686.892,785.7393.39.39,0,0,1,686.83,785.7441Z"/>
          <g class="cls-8">
            <path class="cls-9" d="M674.6353,824.7632a4,4,0,0,1-.2159-7.9942,151.4869,151.4869,0,0,0,118.4253-68.8115,4,4,0,0,1,6.7149,4.3477,159.5106,159.5106,0,0,1-124.7017,72.4521C674.7837,824.7612,674.709,824.7632,674.6353,824.7632Z"/>
          </g>
          <path class="cls-10" d="M509.8633,629.2114a.51.51,0,0,1-.0947-.0088.5.5,0,0,1-.397-.585v0A160.6028,160.6028,0,0,1,650.5908,499.3286a.5.5,0,1,1,.1006.9951c-69.4858,7.0567-127.1948,59.89-140.3374,128.482A.5.5,0,0,1,509.8633,629.2114Z"/>
          <path class="cls-7" d="M666,776.5A110.5,110.5,0,1,1,776.5,666h0A110.6254,110.6254,0,0,1,666,776.5Zm0-220A109.5,109.5,0,1,0,775.5,666h0A109.6242,109.6242,0,0,0,666,556.5Z"/>
          <g class="cls-11">
            <path class="cls-12" d="M559.4863,557.4629a2,2,0,0,1-1.4-3.4282,146.8387,146.8387,0,0,1,68.2183-37.916,2,2,0,0,1,.9948,3.8743l-.0548.0132a142.8373,142.8373,0,0,0-66.3579,36.8849A1.9951,1.9951,0,0,1,559.4863,557.4629Z"/>
          </g>
          <g class="cls-8">
            <path class="cls-13" d="M851.69,615.2559a4.0023,4.0023,0,0,1-3.8233-2.8291c-20.7515-67.72-79.3393-118.45-149.2593-129.2413a4,4,0,0,1,1.2207-7.9062A194.236,194.236,0,0,1,855.5151,610.083a4.0021,4.0021,0,0,1-3.8256,5.1729Z"/>
          </g>
          <path class="cls-14" d="M865.0513,631.4751a.5.5,0,0,1-.4947-.4307A199.39,199.39,0,0,0,775.68,491.6729a.5.5,0,1,1,.5459-.8379,200.39,200.39,0,0,1,89.3213,140.0708.5.5,0,0,1-.4258.5644A.4849.4849,0,0,1,865.0513,631.4751Z"/>
          <g class="cls-11">
            <path class="cls-15" d="M831.8047,745.6333a2.5009,2.5009,0,0,1-2.2236-3.6392A181.2167,181.2167,0,0,0,846.3579,692.9a2.5,2.5,0,0,1,4.9141.9228,186.2345,186.2345,0,0,1-17.24,50.4483A2.5,2.5,0,0,1,831.8047,745.6333Z"/>
          </g>
          <path class="cls-16" d="M836.2573,643.5107a.5.5,0,0,1-.4975-.4536,168.3806,168.3806,0,0,0-37.9654-91.8745.5.5,0,0,1,.7715-.6368,169.3814,169.3814,0,0,1,38.19,92.4186.5007.5007,0,0,1-.4517.5443C836.2886,643.51,836.2729,643.5107,836.2573,643.5107Z"/>
          <path class="cls-7" d="M817.3823,604.7358a.5.5,0,0,1-.47-.3291,160.0715,160.0715,0,0,0-104.9869-98.4921.5.5,0,0,1,.2812-.96,161.0754,161.0754,0,0,1,105.6451,99.11.5.5,0,0,1-.47.6709Z"/>
          <path class="cls-7" d="M626.3848,809.85a.5045.5045,0,0,1-.1343-.0182,155.8821,155.8821,0,0,1-97.2235-79.9951.5.5,0,0,1,.8935-.45,154.88,154.88,0,0,0,96.5977,79.481.5.5,0,0,1-.1333.9819Z"/>
          <g class="cls-17">
            <path class="cls-18" d="M405.2993,836.2114a1.9975,1.9975,0,0,1-1.6118-.8139,311.2123,311.2123,0,0,1-57.707-229.3023c.8833-6.1343,1.9643-12.3369,3.2138-18.4355a2,2,0,0,1,3.919.8027h0c-1.2339,6.022-2.3018,12.1465-3.1738,18.2031a305.9871,305.9871,0,0,0,56.9687,226.36,2,2,0,0,1-1.6089,3.186Z"/>
          </g>
          <path class="cls-19" d="M454.6211,908.4517a.9942.9942,0,0,1-.61-.2085,326.3759,326.3759,0,0,1-114.7832-169.49,1,1,0,1,1,1.92-.5616l.0053.0187a326.3129,326.3129,0,0,0,114.08,168.45,1,1,0,0,1-.6113,1.7915Z"/>
          <path class="cls-10" d="M613.7656,983.2266a.46.46,0,0,1-.0586-.0035,335.6749,335.6749,0,0,1-144.3506-52.4013.5.5,0,0,1,.5366-.8438l.0114.0074A334.68,334.68,0,0,0,613.8232,982.23a.5.5,0,0,1-.0576.9966Z"/>
          <path class="cls-10" d="M654,985.5a340.3762,340.3762,0,0,1-39.293-2.2769.5.5,0,0,1,.1162-.9931A339.3738,339.3738,0,0,0,654,984.5a.5.5,0,0,1,0,1Z"/>
          <path class="cls-10" d="M469.63,930.9038a.4955.4955,0,0,1-.2735-.082,335.32,335.32,0,0,1-150.9179-255.541c-.6226-8.3545-.9385-16.86-.9385-25.2808a.5.5,0,0,1,1,0c0,8.396.3149,16.8765.9355,25.2065,7.66,102.814,63.91,198.0586,150.4688,254.7793a.5.5,0,0,1-.2745.918Z"/>
          <g id="Слой_31" data-name="Слой 31">
            <path class="cls-20" d="M234.4448,685.9116a1.5,1.5,0,0,1-1.4985-1.4624A417.5317,417.5317,0,0,1,511.5635,279.7461a1.5,1.5,0,1,1,1.0578,2.8073c-.0194.0073-.039.0143-.0588.0208C372.041,332.2275,268.4951,454.1167,242.3335,600.6763a417.4826,417.4826,0,0,0-6.3882,83.6977,1.5,1.5,0,0,1-1.4619,1.5371Z"/>
            <path class="cls-20" d="M220.4066,631.2306a7.0052,7.0052,0,0,1-7.4538-7.7325c27.4407-252.9934,254.7775-435.84,507.7708-408.3992a460.77,460.77,0,0,1,118.0708,28.9367,7,7,0,0,1-5.07,13.05l-.0329-.0129C604.1478,167.0786,345.1115,280.206,255.1177,509.75A446.425,446.425,0,0,0,226.8725,624.996,7.0016,7.0016,0,0,1,220.4066,631.2306Z"/>
            <path class="cls-21" d="M349.5117,356.2959a.5.5,0,0,1-.34-.8667,434.0727,434.0727,0,0,1,139.3764-86.9331,429.6605,429.6605,0,0,1,165.05-28.8125.5.5,0,0,1,.4888.511v0a.5241.5241,0,0,1-.5113.4888c-112.6986-2.5591-220.5656,38.4609-303.724,115.479A.4977.4977,0,0,1,349.5117,356.2959Z"/>
            <path class="cls-22" d="M413.081,1015a.53.53,0,0,1-.32-.1071C221.3029,871.0308,182.7187,599.2,326.5808,407.742A433.6229,433.6229,0,0,1,497.685,271.7329a.5324.5324,0,1,1,.4316.9735A432.2757,432.2757,0,0,0,247.4223,592.1948c-28.831,161.5121,34.7685,323.1542,165.98,421.8473a.5327.5327,0,0,1-.3209.9579Z"/>
            <circle class="cls-23" cx="666" cy="666" r="665.5"/>
          </g>
        </g>
      </g>
    </g>
  </g>
</svg>
