<svg xmlns="http://www.w3.org/2000/svg" xmlns:xlink="http://www.w3.org/1999/xlink" viewBox="0 0 1168.09 939.88"><defs><style>.cls-1{fill:url(#Безымянный_градиент_84);}.cls-2{fill:#02153f;}.cls-3{fill:#0b1127;}.cls-4{fill:#0a1832;}.cls-5{fill:#9362b4;}.cls-6{opacity:0.53;}.cls-7{fill:url(#Безымянный_градиент_48);}.cls-8{fill:#7b5da7;}.cls-9{opacity:0.58;}.cls-10{fill:url(#Безымянный_градиент_114);}.cls-11{fill:url(#Безымянный_градиент_45);}.cls-12{fill:url(#Безымянный_градиент_42);}.cls-13{fill:url(#Безымянный_градиент_55);}.cls-14{fill:url(#Безымянный_градиент_42-2);}.cls-15{opacity:0.5;}.cls-16{fill:url(#Безымянный_градиент_60);}.cls-17{fill:url(#Безымянный_градиент_67);}.cls-18{fill:#080808;}.cls-19{fill:url(#Безымянный_градиент_401);}.cls-20{fill:#43002a;}.cls-21{fill:#031b47;}.cls-22{fill:#0f1e3f;}.cls-23{fill:#606060;}</style><linearGradient id="Безымянный_градиент_84" x1="126.64" y1="265.94" x2="788.86" y2="265.94" gradientUnits="userSpaceOnUse"><stop offset="0" stop-color="#481981"/><stop offset="1" stop-color="#375587"/></linearGradient><linearGradient id="Безымянный_градиент_48" x1="513.31" y1="557.45" x2="642.87" y2="557.45" gradientUnits="userSpaceOnUse"><stop offset="0" stop-color="#ff7bac" stop-opacity="0"/><stop offset="0.17" stop-color="#f56aa2" stop-opacity="0.14"/><stop offset="0.54" stop-color="#da408a" stop-opacity="0.5"/><stop offset="1" stop-color="#b50568"/></linearGradient><linearGradient id="Безымянный_градиент_114" x1="400.15" y1="308.76" x2="471.44" y2="308.76" gradientUnits="userSpaceOnUse"><stop offset="0" stop-color="#791390"/><stop offset="0.2" stop-color="#701c92"/><stop offset="0.53" stop-color="#563597"/><stop offset="0.95" stop-color="#2d5c9f"/><stop offset="0.99" stop-color="#2861a0"/></linearGradient><linearGradient id="Безымянный_градиент_45" x1="537.88" y1="317.24" x2="698.36" y2="317.24" gradientUnits="userSpaceOnUse"><stop offset="0" stop-color="#a50568"/><stop offset="0.42" stop-color="#ce3a87" stop-opacity="0.55"/><stop offset="0.81" stop-color="#f169a2" stop-opacity="0.15"/><stop offset="1" stop-color="#ff7bac" stop-opacity="0"/></linearGradient><linearGradient id="Безымянный_градиент_42" x1="618.12" y1="333.11" x2="708.22" y2="333.11" gradientUnits="userSpaceOnUse"><stop offset="0" stop-color="#7f2b8d"/><stop offset="0.38" stop-color="#7a3491"/><stop offset="0.99" stop-color="#6c4d9b"/></linearGradient><linearGradient id="Безымянный_градиент_55" x1="671.97" y1="490.25" x2="693.98" y2="490.25" gradientUnits="userSpaceOnUse"><stop offset="0" stop-color="#6d1590"/><stop offset="0.35" stop-color="#671e91"/><stop offset="0.93" stop-color="#573895"/><stop offset="0.99" stop-color="#553b96"/></linearGradient><linearGradient id="Безымянный_градиент_42-2" x1="640.35" y1="368.94" x2="679.43" y2="368.94" xlink:href="#Безымянный_градиент_42"/><linearGradient id="Безымянный_градиент_60" x1="274.26" y1="436.44" x2="380.71" y2="436.44" gradientTransform="matrix(0.98, 0.2, -0.2, 0.98, -12.33, -10.15)" gradientUnits="userSpaceOnUse"><stop offset="0" stop-color="#ff7bac" stop-opacity="0"/><stop offset="0.21" stop-color="#ea6fa5" stop-opacity="0.18"/><stop offset="0.67" stop-color="#b65293" stop-opacity="0.64"/><stop offset="1" stop-color="#8d3b85"/></linearGradient><linearGradient id="Безымянный_градиент_67" x1="181.86" y1="594.97" x2="298.29" y2="594.97" gradientUnits="userSpaceOnUse"><stop offset="0" stop-color="#611e86"/><stop offset="0.24" stop-color="#5d2788"/><stop offset="0.64" stop-color="#53418f"/><stop offset="0.99" stop-color="#485d96"/></linearGradient><linearGradient id="Безымянный_градиент_401" x1="191.68" y1="69.93" x2="496.76" y2="69.93" gradientUnits="userSpaceOnUse"><stop offset="0" stop-color="#193a76"/><stop offset="1" stop-color="#3b2b74"/></linearGradient></defs><g id="ЦГ1"><g id="Слой_51" data-name="Слой 51"><g id="ФОН"><g id="SVG"><path class="cls-1" d="M130.85,479.41a1,1,0,0,1-1-.87,381,381,0,0,1-3.22-49.47,376.6,376.6,0,0,1,662-245.73,1,1,0,0,1-1.52,1.3A374.45,374.45,0,0,0,503.24,54.48c-206.56,0-374.6,168-374.6,374.59a380.66,380.66,0,0,0,3.2,49.21,1,1,0,0,1-.86,1.12Z"/><path class="cls-2" d="M1070.27,659a3.31,3.31,0,0,1-1.23-.23,3.5,3.5,0,0,1-2-4.51,612.74,612.74,0,0,0-108.93-616,3.5,3.5,0,0,1,5.3-4.57,619.76,619.76,0,0,1,110.18,623A3.5,3.5,0,0,1,1070.27,659Z"/><path class="cls-3" d="M892.34,908.94a1,1,0,0,1-.64-1.77,615,615,0,0,0,130.51-148.93,1,1,0,1,1,1.7,1.06A617.1,617.1,0,0,1,893,908.71,1,1,0,0,1,892.34,908.94Z"/><path class="cls-4" d="M1085.94,506.38h-.13a1,1,0,0,1-.87-1.11,601.7,601.7,0,0,0,4.5-73.48A592.73,592.73,0,0,0,933.62,30.6a1,1,0,1,1,1.47-1.35,594.72,594.72,0,0,1,156.35,402.53,605.5,605.5,0,0,1-4.51,73.72A1,1,0,0,1,1085.94,506.38Z"/><path class="cls-5" d="M612.06,353.43a.37.37,0,0,1-.28-.14A126.9,126.9,0,0,0,535.17,306a.38.38,0,0,1-.3-.44.38.38,0,0,1,.44-.3,127.67,127.67,0,0,1,77.06,47.54.36.36,0,0,1-.31.6Z"/><path class="cls-5" d="M447.17,548a.32.32,0,0,1-.19,0,133.37,133.37,0,0,1-65.38-100.2.38.38,0,0,1,.33-.41.39.39,0,0,1,.42.33,132.59,132.59,0,0,0,65,99.63.39.39,0,0,1,.13.52A.36.36,0,0,1,447.17,548Z"/><path class="cls-5" d="M498.33,576.06h0a145.34,145.34,0,0,1-91.51-42.18.5.5,0,0,1,0-.7.5.5,0,0,1,.71,0,144.35,144.35,0,0,0,90.88,41.88.52.52,0,0,1,.46.54A.5.5,0,0,1,498.33,576.06Z"/><path class="cls-5" d="M529.5,557.74a.38.38,0,0,1-.37-.31.37.37,0,0,1,.31-.43,120.11,120.11,0,0,0,99-103.33.39.39,0,0,1,.42-.33.38.38,0,0,1,.33.42,120.46,120.46,0,0,1-99.59,104Z"/><g class="cls-6"><path class="cls-7" d="M517.3,596.76a4,4,0,0,1-.21-8A151.5,151.5,0,0,0,635.51,520a4,4,0,1,1,6.72,4.35,159.54,159.54,0,0,1-124.7,72.45Z"/></g><path class="cls-8" d="M352.53,401.21h-.09a.5.5,0,0,1-.4-.58A160.58,160.58,0,0,1,493.26,271.33a.5.5,0,1,1,.1,1c-69.49,7.06-127.2,59.89-140.34,128.49A.49.49,0,0,1,352.53,401.21Z"/><path class="cls-5" d="M508.67,548.5A110.5,110.5,0,1,1,619.17,438,110.63,110.63,0,0,1,508.67,548.5Zm0-220A109.5,109.5,0,1,0,618.17,438,109.62,109.62,0,0,0,508.67,328.5Z"/><g class="cls-9"><path class="cls-10" d="M402.15,329.46a2,2,0,0,1-1.4-3.43A146.88,146.88,0,0,1,469,288.12a2,2,0,1,1,.94,3.89,142.86,142.86,0,0,0-66.36,36.88A2,2,0,0,1,402.15,329.46Z"/></g><g class="cls-6"><path class="cls-11" d="M694.36,387.26a4,4,0,0,1-3.83-2.83C669.78,316.71,611.19,266,541.27,255.19a4,4,0,1,1,1.23-7.91,194.24,194.24,0,0,1,155.68,134.8,4,4,0,0,1-3.82,5.18Z"/></g><path class="cls-12" d="M707.72,403.48a.51.51,0,0,1-.5-.44,199.37,199.37,0,0,0-88.87-139.37.5.5,0,1,1,.54-.84,200.38,200.38,0,0,1,89.32,140.08.5.5,0,0,1-.42.56Z"/><g class="cls-9"><path class="cls-13" d="M674.47,517.63a2.54,2.54,0,0,1-1.13-.27,2.51,2.51,0,0,1-1.09-3.37A181.28,181.28,0,0,0,689,464.9a2.5,2.5,0,1,1,4.91.92,186.36,186.36,0,0,1-17.24,50.45A2.49,2.49,0,0,1,674.47,517.63Z"/></g><path class="cls-14" d="M678.92,415.51a.49.49,0,0,1-.49-.45,168.42,168.42,0,0,0-38-91.88.5.5,0,0,1,.07-.7.49.49,0,0,1,.7.07A169.31,169.31,0,0,1,679.42,415a.5.5,0,0,1-.45.55Z"/><path class="cls-5" d="M660.05,376.74a.51.51,0,0,1-.47-.33,160.08,160.08,0,0,0-105-98.5.5.5,0,0,1-.34-.62.51.51,0,0,1,.62-.34,161.11,161.11,0,0,1,105.65,99.11.52.52,0,0,1-.3.65A.51.51,0,0,1,660.05,376.74Z"/><path class="cls-5" d="M469.05,581.85l-.13,0a155.92,155.92,0,0,1-97.23-80,.5.5,0,0,1,.23-.67.49.49,0,0,1,.67.22,154.92,154.92,0,0,0,96.6,79.48.49.49,0,0,1,.34.61A.5.5,0,0,1,469.05,581.85Z"/><g class="cls-15"><path class="cls-16" d="M248,608.21a2,2,0,0,1-1.62-.81,311.18,311.18,0,0,1-57.7-229.3c.88-6.14,2-12.34,3.21-18.44a2,2,0,1,1,3.92.8c-1.23,6-2.3,12.15-3.17,18.21a306,306,0,0,0,57,226.36,2,2,0,0,1-1.61,3.18Z"/></g><path class="cls-17" d="M297.29,680.45a1,1,0,0,1-.61-.21A326.37,326.37,0,0,1,181.9,510.75a1,1,0,0,1,1.92-.54A326.34,326.34,0,0,0,297.9,678.66a1,1,0,0,1-.61,1.79Z"/><path class="cls-8" d="M456.43,755.23h-.06A335.54,335.54,0,0,1,312,702.82a.5.5,0,0,1-.14-.69.49.49,0,0,1,.69-.14,334.82,334.82,0,0,0,143.92,52.24.5.5,0,0,1-.06,1Z"/><path class="cls-8" d="M496.67,757.5a340.6,340.6,0,0,1-39.3-2.28.49.49,0,0,1-.43-.55.5.5,0,0,1,.55-.44,338.52,338.52,0,0,0,39.18,2.27.5.5,0,1,1,0,1Z"/><path class="cls-8" d="M312.3,702.9a.48.48,0,0,1-.28-.08A335.28,335.28,0,0,1,161.11,447.28c-.63-8.35-.94-16.86-.94-25.28a.5.5,0,0,1,.5-.5.5.5,0,0,1,.5.5c0,8.4.31,16.88.93,25.21C169.76,550,226,645.27,312.57,702a.5.5,0,0,1,.15.69A.52.52,0,0,1,312.3,702.9Z"/><path class="cls-18" d="M84.11,444.91a1.5,1.5,0,0,1-1.5-1.46A417.54,417.54,0,0,1,361.23,38.75a1.5,1.5,0,1,1,1,2.82C221.71,91.23,118.16,213.12,92,359.68a417.67,417.67,0,0,0-6.39,83.69,1.5,1.5,0,0,1-1.46,1.54Z"/><path class="cls-19" d="M192.18,128.3a.52.52,0,0,1-.37-.16.5.5,0,0,1,0-.71A433.84,433.84,0,0,1,496.27,11.68a.5.5,0,0,1,.48.51.51.51,0,0,1-.51.49c-112.7-2.56-220.56,38.46-303.72,115.48A.51.51,0,0,1,192.18,128.3Z"/><path class="cls-20" d="M255.75,787a.48.48,0,0,1-.32-.11A433.62,433.62,0,0,1,340.35,43.73a.54.54,0,0,1,.71.27.55.55,0,0,1-.28.71A432.26,432.26,0,0,0,90.09,364.19C61.26,525.71,124.86,687.35,256.07,786a.54.54,0,0,1,.1.75A.51.51,0,0,1,255.75,787Z"/><path class="cls-21" d="M950.64,104.87A563.1,563.1,0,0,0,850.23,0H782.42A520.19,520.19,0,0,1,992.57,271.16a20,20,0,0,0,37.92-12.74A559.07,559.07,0,0,0,950.64,104.87Z"/><path class="cls-18" d="M394.27,0A460.32,460.32,0,0,0,55.62,395.5a7,7,0,0,0,6.21,7.71,7.37,7.37,0,0,0,1.24,0A7,7,0,0,0,69.54,397,446.26,446.26,0,0,1,475.12,0Z"/><path class="cls-18" d="M681.46,16a457.18,457.18,0,0,0-49-16H551.29c3.28.28,6.56.58,9.85.94A447.62,447.62,0,0,1,676.36,29.07a7,7,0,1,0,5.1-13Z"/><path class="cls-22" d="M851.69,88.2A497.72,497.72,0,0,0,732.49,0h-4.7c159.12,82.93,268,249.47,268,441,0,274-222.91,496.9-496.9,496.9S2,715,2,441C2,249.47,110.9,82.93,270,0h-4.7A499.39,499.39,0,1,0,851.69,88.2Z"/><path class="cls-3" d="M911.12,936h30.13a673.1,673.1,0,0,0,109.61-123.8c76.69-111.76,117.23-242.74,117.23-378.8A667.32,667.32,0,0,0,1040.4,39.79a10,10,0,1,0-16.18,11.75c81,111.52,123.87,243.56,123.87,381.86C1148.09,632.34,1059.06,814.76,911.12,936Z"/></g></g></g></g><g id="Слой_15" data-name="Слой 15"><rect class="cls-23" x="-319.33" y="938" width="1624" height="159"/><rect class="cls-23" x="-350.33" y="-158" width="1624" height="159"/></g></svg>