<svg xmlns="http://www.w3.org/2000/svg" xmlns:xlink="http://www.w3.org/1999/xlink" viewBox="0 0 1332 1332">
  <defs>
    <style>
      .cls-1 {
        fill: url(#Безымянный_градиент_84);
      }

      .cls-2 {
        fill: #0b1127;
      }

      .cls-3 {
        fill: #02153f;
      }

      .cls-4 {
        fill: #031b47;
      }

      .cls-5 {
        fill: #0f1e3f;
      }

      .cls-6 {
        fill: #0a1832;
      }

      .cls-7 {
        fill: #9362b4;
      }

      .cls-8 {
        opacity: 0.53;
      }

      .cls-9 {
        fill: url(#Безымянный_градиент_48);
      }

      .cls-10 {
        fill: #7b5da7;
      }

      .cls-11 {
        opacity: 0.58;
      }

      .cls-12 {
        fill: url(#Безымянный_градиент_114);
      }

      .cls-13 {
        fill: url(#Безымянный_градиент_45);
      }

      .cls-14 {
        fill: url(#Безымянный_градиент_42);
      }

      .cls-15 {
        fill: url(#Безымянный_градиент_55);
      }

      .cls-16 {
        fill: url(#Безымянный_градиент_42-2);
      }

      .cls-17 {
        opacity: 0.5;
      }

      .cls-18 {
        fill: url(#Безымянный_градиент_60);
      }

      .cls-19 {
        fill: url(#Безымянный_градиент_67);
      }

      .cls-20 {
        fill: #080808;
      }

      .cls-21 {
        fill: url(#Безымянный_градиент_401);
      }

      .cls-22 {
        fill: #43002a;
      }

      .cls-23 {
        fill: none;
        stroke: #000;
        stroke-miterlimit: 10;
      }
    </style>
    <linearGradient id="Безымянный_градиент_84" data-name="Безымянный градиент 84" x1="283.9736" y1="493.9436" x2="946.1935" y2="493.9436" gradientUnits="userSpaceOnUse">
      <stop offset="0" stop-color="#481981"/>
      <stop offset="1" stop-color="#375587"/>
    </linearGradient>
    <linearGradient id="Безымянный_градиент_48" data-name="Безымянный градиент 48" x1="670.6384" y1="785.447" x2="800.2025" y2="785.447" gradientUnits="userSpaceOnUse">
      <stop offset="0" stop-color="#ff7bac" stop-opacity="0"/>
      <stop offset="0.1715" stop-color="#f56aa2" stop-opacity="0.1404"/>
      <stop offset="0.5376" stop-color="#da408a" stop-opacity="0.501"/>
      <stop offset="1" stop-color="#b50568"/>
    </linearGradient>
    <linearGradient id="Безымянный_градиент_114" data-name="Безымянный градиент 114" x1="557.4864" y1="536.7622" x2="628.7748" y2="536.7622" gradientUnits="userSpaceOnUse">
      <stop offset="0" stop-color="#791390"/>
      <stop offset="0.1987" stop-color="#701c92"/>
      <stop offset="0.529" stop-color="#563597"/>
      <stop offset="0.9479" stop-color="#2d5c9f"/>
      <stop offset="0.9944" stop-color="#2861a0"/>
    </linearGradient>
    <linearGradient id="Безымянный_градиент_45" data-name="Безымянный градиент 45" x1="695.2168" y1="545.2443" x2="855.6918" y2="545.2443" gradientUnits="userSpaceOnUse">
      <stop offset="0" stop-color="#a50568"/>
      <stop offset="0.4162" stop-color="#ce3a87" stop-opacity="0.5491"/>
      <stop offset="0.8137" stop-color="#f169a2" stop-opacity="0.1539"/>
      <stop offset="1" stop-color="#ff7bac" stop-opacity="0"/>
    </linearGradient>
    <linearGradient id="Безымянный_градиент_42" data-name="Безымянный градиент 42" x1="775.4525" y1="561.1147" x2="865.5518" y2="561.1147" gradientUnits="userSpaceOnUse">
      <stop offset="0" stop-color="#7f2b8d"/>
      <stop offset="0.3801" stop-color="#7a3491"/>
      <stop offset="0.9944" stop-color="#6c4d9b"/>
    </linearGradient>
    <linearGradient id="Безымянный_градиент_55" data-name="Безымянный градиент 55" x1="829.3062" y1="718.2475" x2="851.3154" y2="718.2475" gradientUnits="userSpaceOnUse">
      <stop offset="0" stop-color="#6d1590"/>
      <stop offset="0.3498" stop-color="#671e91"/>
      <stop offset="0.9295" stop-color="#573895"/>
      <stop offset="0.9944" stop-color="#553b96"/>
    </linearGradient>
    <linearGradient id="Безымянный_градиент_42-2" x1="797.6801" y1="596.9376" x2="836.758" y2="596.9376" xlink:href="#Безымянный_градиент_42"/>
    <linearGradient id="Безымянный_градиент_60" data-name="Безымянный градиент 60" x1="431.5953" y1="664.4356" x2="538.0475" y2="664.4356" gradientTransform="matrix(0.9796, 0.2007, -0.2007, 0.9796, 36.6413, -37.0921)" gradientUnits="userSpaceOnUse">
      <stop offset="0" stop-color="#ff7bac" stop-opacity="0"/>
      <stop offset="0.2144" stop-color="#ea6fa5" stop-opacity="0.18"/>
      <stop offset="0.6682" stop-color="#b65293" stop-opacity="0.6383"/>
      <stop offset="1" stop-color="#8d3b85"/>
    </linearGradient>
    <linearGradient id="Безымянный_градиент_67" data-name="Безымянный градиент 67" x1="339.1897" y1="822.967" x2="455.6216" y2="822.967" gradientUnits="userSpaceOnUse">
      <stop offset="0" stop-color="#611e86"/>
      <stop offset="0.2398" stop-color="#5d2788"/>
      <stop offset="0.6369" stop-color="#53418f"/>
      <stop offset="0.9944" stop-color="#485d96"/>
    </linearGradient>
    <linearGradient id="Безымянный_градиент_401" data-name="Безымянный градиент 401" x1="349.0116" y1="297.934" x2="654.0875" y2="297.934" gradientUnits="userSpaceOnUse">
      <stop offset="0" stop-color="#193a76"/>
      <stop offset="1" stop-color="#3b2b74"/>
    </linearGradient>
  </defs>
  <g id="ЦГ1">
    <g id="Слой_51" data-name="Слой 51">
      <g id="ФОН">
        <g id="ЦГ1-2" data-name="ЦГ1">
          <path class="cls-1" d="M288.1846,707.4121a1.0005,1.0005,0,0,1-.9908-.87,381.7015,381.7015,0,0,1-3.22-49.4727A376.6007,376.6007,0,0,1,945.9512,411.3359a1,1,0,0,1-1.5157,1.3057A374.4593,374.4593,0,0,0,660.5684,282.4751c-206.5523,0-374.5948,168.0425-374.5948,374.5942a379.6144,379.6144,0,0,0,3.2036,49.2129,1,1,0,0,1-.8618,1.1216A1.076,1.076,0,0,1,288.1846,707.4121Z"/>
          <path class="cls-2" d="M903.1553,1283.5142a10.0017,10.0017,0,0,1-3.7617-19.27c246.6533-100.0293,406.0293-336.6606,406.0293-602.8457,0-138.2973-42.8331-270.3413-123.8692-381.8564a10,10,0,1,1,16.18-11.7569,667.2966,667.2966,0,0,1,127.6895,393.6133c0,136.0576-40.5372,267.0454-117.2286,378.8018a672.556,672.556,0,0,1-301.2851,242.5781A9.9713,9.9713,0,0,1,903.1553,1283.5142Z"/>
          <path class="cls-3" d="M1227.6064,887.01a3.5021,3.5021,0,0,1-3.2724-4.74,612.7256,612.7256,0,0,0-108.93-615.9673,3.5,3.5,0,0,1,5.3008-4.5722,619.7264,619.7264,0,0,1,110.1758,623.0171A3.5027,3.5027,0,0,1,1227.6064,887.01Z"/>
          <path class="cls-4" d="M1168.86,512.7964a20.0078,20.0078,0,0,1-18.9581-13.6387,520.75,520.75,0,0,0-494.205-355.1728,20,20,0,1,1,0-40c119.9326,0,234.3466,37.3,330.874,107.8681a562.4318,562.4318,0,0,1,201.251,274.5713,20.0147,20.0147,0,0,1-18.9619,26.3721Z"/>
          <path class="cls-5" d="M656.2388,1167.8823a497.3491,497.3491,0,1,1,194.1967-39.207A495.7788,495.7788,0,0,1,656.2388,1167.8823Zm0-995.8125c-273.9951,0-496.9063,222.9112-496.9063,496.9063s222.9112,496.9062,496.9063,496.9062,496.9057-222.9111,496.9057-496.9062S930.2334,172.07,656.2388,172.07Z"/>
          <path class="cls-2" d="M1049.6748,1136.937a1,1,0,0,1-.6377-1.7715,615.0164,615.0164,0,0,0,130.51-148.9292,1,1,0,0,1,1.6972,1.0591,617.0313,617.0313,0,0,1-130.9336,149.4131A.9963.9963,0,0,1,1049.6748,1136.937Z"/>
          <path class="cls-6" d="M1243.2686,734.3813a1.036,1.036,0,0,1-.1231-.0073.9993.9993,0,0,1-.87-1.1152,602.7318,602.7318,0,0,0,4.4971-73.4834,592.72,592.72,0,0,0-155.8233-401.1763,1,1,0,1,1,1.4746-1.3506,594.7147,594.7147,0,0,1,156.3487,402.5269,604.8017,604.8017,0,0,1-4.5127,73.7285A1,1,0,0,1,1243.2686,734.3813Z"/>
          <path class="cls-7" d="M769.3961,581.4342a.3742.3742,0,0,1-.2836-.1458,126.9216,126.9216,0,0,0-76.6109-47.2612.3751.3751,0,0,1,.1412-.7368,127.6707,127.6707,0,0,1,77.0633,47.54.375.375,0,0,1-.31.6037Z"/>
          <path class="cls-7" d="M604.499,776.0039a.37.37,0,0,1-.188-.0508,133.3769,133.3769,0,0,1-65.3759-100.2.3748.3748,0,1,1,.7451-.082,132.6249,132.6249,0,0,0,65.0078,99.6333.375.375,0,0,1-.189.6992Z"/>
          <path class="cls-7" d="M655.6636,804.0635l-.0391-.0015a145.3881,145.3881,0,0,1-91.5083-42.1782.5.5,0,0,1,.707-.707,144.3892,144.3892,0,0,0,90.8785,41.8881.5.5,0,0,1-.0381.9986Z"/>
          <path class="cls-7" d="M686.83,785.7441a.3751.3751,0,0,1-.0611-.7451,120.1149,120.1149,0,0,0,98.9659-103.332.3806.3806,0,0,1,.4174-.3267.3744.3744,0,0,1,.3267.4175,120.4525,120.4525,0,0,1-99.5869,103.9815A.3852.3852,0,0,1,686.83,785.7441Z"/>
          <g class="cls-8">
            <path class="cls-9" d="M674.6353,824.7632a4,4,0,0,1-.2159-7.9942,151.4871,151.4871,0,0,0,118.4253-68.8115,4,4,0,0,1,6.7149,4.3477,159.5107,159.5107,0,0,1-124.7017,72.4521C674.7837,824.7612,674.709,824.7632,674.6353,824.7632Z"/>
          </g>
          <path class="cls-10" d="M509.8633,629.2114a.5176.5176,0,0,1-.0947-.0088.5.5,0,0,1-.397-.5854A160.6028,160.6028,0,0,1,650.5908,499.3286a.5.5,0,1,1,.1006.9951c-69.4858,7.0567-127.1948,59.89-140.3374,128.482A.5.5,0,0,1,509.8633,629.2114Z"/>
          <path class="cls-7" d="M666,776.5A110.5,110.5,0,1,1,776.5,666,110.6254,110.6254,0,0,1,666,776.5Zm0-220A109.5,109.5,0,1,0,775.5,666,109.6242,109.6242,0,0,0,666,556.5Z"/>
          <g class="cls-11">
            <path class="cls-12" d="M559.4863,557.4629a2,2,0,0,1-1.4-3.4282,146.84,146.84,0,0,1,68.2183-37.916,2,2,0,1,1,.94,3.8876,142.8374,142.8374,0,0,0-66.3579,36.8848A1.9947,1.9947,0,0,1,559.4863,557.4629Z"/>
          </g>
          <g class="cls-8">
            <path class="cls-13" d="M851.69,615.2559a4.0024,4.0024,0,0,1-3.8233-2.8291c-20.7515-67.72-79.3393-118.45-149.2593-129.2413a4,4,0,0,1,1.2207-7.9062A194.2359,194.2359,0,0,1,855.5151,610.083a4.0021,4.0021,0,0,1-3.8256,5.1729Z"/>
          </g>
          <path class="cls-14" d="M865.0513,631.4751a.5.5,0,0,1-.4947-.4307A199.39,199.39,0,0,0,775.68,491.6729a.5.5,0,0,1,.5459-.8379,200.3889,200.3889,0,0,1,89.3213,140.0708.5.5,0,0,1-.4258.5644A.4868.4868,0,0,1,865.0513,631.4751Z"/>
          <g class="cls-11">
            <path class="cls-15" d="M831.8047,745.6333a2.5009,2.5009,0,0,1-2.2236-3.6392A181.2162,181.2162,0,0,0,846.3579,692.9a2.5,2.5,0,0,1,4.9141.9228,186.235,186.235,0,0,1-17.24,50.4483A2.5,2.5,0,0,1,831.8047,745.6333Z"/>
          </g>
          <path class="cls-16" d="M836.2573,643.5107a.5.5,0,0,1-.4975-.4536,168.3811,168.3811,0,0,0-37.9654-91.8745.5.5,0,1,1,.7715-.6367,169.3818,169.3818,0,0,1,38.19,92.4185.5007.5007,0,0,1-.4517.5444C836.2886,643.51,836.2729,643.5107,836.2573,643.5107Z"/>
          <path class="cls-7" d="M817.3823,604.7358a.5.5,0,0,1-.47-.3291,160.0715,160.0715,0,0,0-104.9868-98.4921.5.5,0,1,1,.2812-.96,161.0757,161.0757,0,0,1,105.6451,99.11.5.5,0,0,1-.47.6709Z"/>
          <path class="cls-7" d="M626.3848,809.85a.5039.5039,0,0,1-.1343-.0181,155.8825,155.8825,0,0,1-97.2236-79.9951.5.5,0,0,1,.8935-.45,154.8807,154.8807,0,0,0,96.5977,79.481.5.5,0,0,1-.1333.9819Z"/>
          <g class="cls-17">
            <path class="cls-18" d="M405.2993,836.2114a1.9973,1.9973,0,0,1-1.6118-.8139,311.2126,311.2126,0,0,1-57.707-229.3023c.8833-6.1343,1.9643-12.3369,3.2138-18.4355a2,2,0,0,1,3.919.8027c-1.2339,6.022-2.3018,12.1465-3.1738,18.2031a305.9868,305.9868,0,0,0,56.9687,226.36,2,2,0,0,1-1.6089,3.186Z"/>
          </g>
          <path class="cls-19" d="M454.6211,908.4517a.9944.9944,0,0,1-.61-.2085,326.376,326.376,0,0,1-114.7832-169.49,1,1,0,1,1,1.9248-.5429,326.3122,326.3122,0,0,0,114.08,168.45,1,1,0,0,1-.6113,1.7915Z"/>
          <path class="cls-10" d="M613.7656,983.2266a.4731.4731,0,0,1-.0586-.0035,335.675,335.675,0,0,1-144.3506-52.4013.5.5,0,1,1,.5479-.8364A334.68,334.68,0,0,0,613.8232,982.23a.5.5,0,0,1-.0576.9966Z"/>
          <path class="cls-10" d="M654,985.5a340.3789,340.3789,0,0,1-39.293-2.2769.5.5,0,0,1,.1162-.9931A339.3728,339.3728,0,0,0,654,984.5a.5.5,0,0,1,0,1Z"/>
          <path class="cls-10" d="M469.63,930.9038a.4962.4962,0,0,1-.2735-.082,335.32,335.32,0,0,1-150.9179-255.541c-.6226-8.3545-.9385-16.86-.9385-25.2808a.5.5,0,0,1,1,0c0,8.396.3149,16.8765.9355,25.2065,7.66,102.814,63.91,198.0586,150.4688,254.7793a.5.5,0,0,1-.2744.918Z"/>
          <g id="Слой_31" data-name="Слой 31">
            <path class="cls-20" d="M234.4448,685.9116a1.5,1.5,0,0,1-1.4985-1.4624A417.5317,417.5317,0,0,1,511.5635,279.7461a1.5,1.5,0,1,1,.999,2.8281C372.041,332.2275,268.4951,454.1167,242.3335,600.6763a417.483,417.483,0,0,0-6.3882,83.6977,1.5,1.5,0,0,1-1.4619,1.5371Z"/>
            <path class="cls-20" d="M220.4066,631.2306a7.005,7.005,0,0,1-7.4538-7.7325A460.7717,460.7717,0,0,1,838.7944,244.0356a7,7,0,1,1-5.103,13.0368A446.4265,446.4265,0,0,0,226.8725,624.996,7.0016,7.0016,0,0,1,220.4066,631.2306Z"/>
            <path class="cls-21" d="M349.5117,356.2959a.5.5,0,0,1-.34-.8667,434.0715,434.0715,0,0,1,139.3764-86.9331,429.6618,429.6618,0,0,1,165.05-28.8125.5.5,0,0,1,.4888.5112.524.524,0,0,1-.5112.4888C540.877,238.1245,433.01,279.1445,349.8516,356.1626A.4975.4975,0,0,1,349.5117,356.2959Z"/>
            <path class="cls-22" d="M413.081,1015a.53.53,0,0,1-.32-.1071,433.6238,433.6238,0,0,1,84.924-743.16.5324.5324,0,0,1,.4316.9735A432.2757,432.2757,0,0,0,247.4223,592.1948c-28.831,161.5121,34.7685,323.1542,165.98,421.8473a.5327.5327,0,0,1-.3209.9579Z"/>
            <circle class="cls-23" cx="666" cy="666" r="665.5"/>
          </g>
        </g>
      </g>
    </g>
  </g>
</svg>
