<svg width="1440" height="900" viewBox="0 0 1440 900" fill="none" xmlns="http://www.w3.org/2000/svg">
<path d="M1349.23 404.77C1349.5 404.77 1349.72 404.553 1349.72 404.285C1349.72 404.017 1349.5 403.8 1349.23 403.8C1348.97 403.8 1348.75 404.017 1348.75 404.285C1348.75 404.553 1348.97 404.77 1349.23 404.77Z" fill="#F7931E"/>
<path d="M1433.57 736.057C1433.84 736.057 1434.06 735.84 1434.06 735.572C1434.06 735.304 1433.84 735.087 1433.57 735.087C1433.31 735.087 1433.09 735.304 1433.09 735.572C1433.09 735.84 1433.31 736.057 1433.57 736.057Z" fill="#F7931E"/>
<path d="M1170.01 817.57C1170.28 817.57 1170.5 817.353 1170.5 817.085C1170.5 816.817 1170.28 816.6 1170.01 816.6C1169.74 816.6 1169.53 816.817 1169.53 817.085C1169.53 817.353 1169.74 817.57 1170.01 817.57Z" fill="#F7931E"/>
<path d="M1247 684.011C1247.27 684.011 1247.49 683.794 1247.49 683.526C1247.49 683.258 1247.27 683.041 1247 683.041C1246.74 683.041 1246.52 683.258 1246.52 683.526C1246.52 683.794 1246.74 684.011 1247 684.011Z" fill="#F7931E"/>
<path d="M1409.52 507.999C1409.79 507.999 1410 507.782 1410 507.514C1410 507.246 1409.79 507.029 1409.52 507.029C1409.25 507.029 1409.04 507.246 1409.04 507.514C1409.04 507.782 1409.25 507.999 1409.52 507.999Z" fill="#F7931E"/>
<path d="M1261.38 738.055C1261.65 738.055 1261.87 737.838 1261.87 737.57C1261.87 737.302 1261.65 737.085 1261.38 737.085C1261.11 737.085 1260.9 737.302 1260.9 737.57C1260.9 737.838 1261.11 738.055 1261.38 738.055Z" fill="#F7931E"/>
<path d="M1153.87 827.647C1154.14 827.647 1154.35 827.43 1154.35 827.162C1154.35 826.894 1154.14 826.677 1153.87 826.677C1153.6 826.677 1153.38 826.894 1153.38 827.162C1153.38 827.43 1153.6 827.647 1153.87 827.647Z" fill="#F7931E"/>
<path d="M1313.34 489.852C1313.61 489.852 1313.82 489.635 1313.82 489.367C1313.82 489.099 1313.61 488.882 1313.34 488.882C1313.07 488.882 1312.86 489.099 1312.86 489.367C1312.86 489.635 1313.07 489.852 1313.34 489.852Z" fill="#F7931E"/>
<path d="M1391.39 442.413C1391.66 442.413 1391.87 442.195 1391.87 441.928C1391.87 441.66 1391.66 441.443 1391.39 441.443C1391.12 441.443 1390.9 441.66 1390.9 441.928C1390.9 442.195 1391.12 442.413 1391.39 442.413Z" fill="#F7931E"/>
<path d="M1217.35 719.908C1217.62 719.908 1217.84 719.691 1217.84 719.423C1217.84 719.155 1217.62 718.938 1217.35 718.938C1217.09 718.938 1216.87 719.155 1216.87 719.423C1216.87 719.691 1217.09 719.908 1217.35 719.908Z" fill="#F7931E"/>
<path d="M1054.18 717.474C1054.45 717.474 1054.66 717.256 1054.66 716.989C1054.66 716.721 1054.45 716.504 1054.18 716.504C1053.91 716.504 1053.69 716.721 1053.69 716.989C1053.69 717.256 1053.91 717.474 1054.18 717.474Z" fill="#F7931E"/>
<path d="M1306.65 496.505C1306.92 496.505 1307.14 496.288 1307.14 496.02C1307.14 495.753 1306.92 495.535 1306.65 495.535C1306.38 495.535 1306.17 495.753 1306.17 496.02C1306.17 496.288 1306.38 496.505 1306.65 496.505Z" fill="#F7931E"/>
<path d="M1230.77 597.814C1231.04 597.814 1231.26 597.597 1231.26 597.329C1231.26 597.061 1231.04 596.844 1230.77 596.844C1230.51 596.844 1230.29 597.061 1230.29 597.329C1230.29 597.597 1230.51 597.814 1230.77 597.814Z" fill="#F7931E"/>
<path d="M901.183 733.545C901.451 733.545 901.668 733.328 901.668 733.06C901.668 732.792 901.451 732.575 901.183 732.575C900.916 732.575 900.699 732.792 900.699 733.06C900.699 733.328 900.916 733.545 901.183 733.545Z" fill="#F7931E"/>
<path d="M925.151 568.173C925.418 568.173 925.635 567.956 925.635 567.688C925.635 567.42 925.418 567.203 925.151 567.203C924.883 567.203 924.666 567.42 924.666 567.688C924.666 567.956 924.883 568.173 925.151 568.173Z" fill="#F7931E"/>
<path d="M1153.41 601.878C1153.68 601.878 1153.9 601.661 1153.9 601.393C1153.9 601.125 1153.68 600.908 1153.41 600.908C1153.14 600.908 1152.93 601.125 1152.93 601.393C1152.93 601.661 1153.14 601.878 1153.41 601.878Z" fill="#F7931E"/>
<path d="M746.433 775.388C746.701 775.388 746.918 775.171 746.918 774.903C746.918 774.635 746.701 774.418 746.433 774.418C746.165 774.418 745.948 774.635 745.948 774.903C745.948 775.171 746.165 775.388 746.433 775.388Z" fill="#F7931E"/>
<path d="M529.641 652.343C529.909 652.343 530.126 652.126 530.126 651.858C530.126 651.59 529.909 651.373 529.641 651.373C529.373 651.373 529.156 651.59 529.156 651.858C529.156 652.126 529.373 652.343 529.641 652.343Z" fill="#F7931E"/>
<path d="M521.235 592.799C521.503 592.799 521.72 592.582 521.72 592.314C521.72 592.047 521.503 591.829 521.235 591.829C520.967 591.829 520.75 592.047 520.75 592.314C520.75 592.582 520.967 592.799 521.235 592.799Z" fill="#F7931E"/>
<path d="M587.552 763.758C587.82 763.758 588.037 763.541 588.037 763.273C588.037 763.006 587.82 762.788 587.552 762.788C587.285 762.788 587.068 763.006 587.068 763.273C587.068 763.541 587.285 763.758 587.552 763.758Z" fill="#F7931E"/>
<path d="M1070.22 799.219C1070.49 799.219 1070.71 799.002 1070.71 798.734C1070.71 798.466 1070.49 798.249 1070.22 798.249C1069.96 798.249 1069.74 798.466 1069.74 798.734C1069.74 799.002 1069.96 799.219 1070.22 799.219Z" fill="#F7931E"/>
<path d="M1197.08 707.658C1197.35 707.658 1197.57 707.441 1197.57 707.173C1197.57 706.905 1197.35 706.688 1197.08 706.688C1196.81 706.688 1196.6 706.905 1196.6 707.173C1196.6 707.441 1196.81 707.658 1197.08 707.658Z" fill="#F7931E"/>
<path d="M1090.21 877.705C1090.48 877.705 1090.69 877.488 1090.69 877.22C1090.69 876.952 1090.48 876.735 1090.21 876.735C1089.94 876.735 1089.72 876.952 1089.72 877.22C1089.72 877.488 1089.94 877.705 1090.21 877.705Z" fill="#F7931E"/>
<path d="M394.32 789.985C394.588 789.985 394.805 789.768 394.805 789.5C394.805 789.232 394.588 789.015 394.32 789.015C394.053 789.015 393.836 789.232 393.836 789.5C393.836 789.768 394.053 789.985 394.32 789.985Z" fill="#F7931E"/>
<path d="M231.048 733.885C231.315 733.885 231.533 733.668 231.533 733.4C231.533 733.132 231.315 732.915 231.048 732.915C230.78 732.915 230.563 733.132 230.563 733.4C230.563 733.668 230.78 733.885 231.048 733.885Z" fill="#F7931E"/>
<path d="M205.122 685.99C205.39 685.99 205.607 685.773 205.607 685.505C205.607 685.237 205.39 685.02 205.122 685.02C204.854 685.02 204.637 685.237 204.637 685.505C204.637 685.773 204.854 685.99 205.122 685.99Z" fill="#F7931E"/>
<path d="M1000.67 845.077C1000.94 845.077 1001.15 844.86 1001.15 844.592C1001.15 844.324 1000.94 844.107 1000.67 844.107C1000.4 844.107 1000.18 844.324 1000.18 844.592C1000.18 844.86 1000.4 845.077 1000.67 845.077Z" fill="#F7931E"/>
<path d="M1317.92 878.432C1318.18 878.432 1318.4 878.215 1318.4 877.948C1318.4 877.68 1318.18 877.463 1317.92 877.463C1317.65 877.463 1317.43 877.68 1317.43 877.948C1317.43 878.215 1317.65 878.432 1317.92 878.432Z" fill="#F7931E"/>
<path d="M571.477 735.63C571.745 735.63 571.962 735.413 571.962 735.146C571.962 734.878 571.745 734.661 571.477 734.661C571.209 734.661 570.992 734.878 570.992 735.146C570.992 735.413 571.209 735.63 571.477 735.63Z" fill="#F7931E"/>
<path d="M368.249 703.933C368.517 703.933 368.734 703.716 368.734 703.448C368.734 703.181 368.517 702.963 368.249 702.963C367.981 702.963 367.764 703.181 367.764 703.448C367.764 703.716 367.981 703.933 368.249 703.933Z" fill="#F7931E"/>
<path d="M430.145 803.709C430.413 803.709 430.63 803.492 430.63 803.225C430.63 802.957 430.413 802.74 430.145 802.74C429.878 802.74 429.661 802.957 429.661 803.225C429.661 803.492 429.878 803.709 430.145 803.709Z" fill="#F7931E"/>
<path d="M980.435 813.108C980.702 813.108 980.919 812.891 980.919 812.623C980.919 812.355 980.702 812.138 980.435 812.138C980.167 812.138 979.95 812.355 979.95 812.623C979.95 812.891 980.167 813.108 980.435 813.108Z" fill="#F7931E"/>
<path d="M1311.17 768.259C1311.44 768.259 1311.65 768.042 1311.65 767.774C1311.65 767.506 1311.44 767.289 1311.17 767.289C1310.9 767.289 1310.68 767.506 1310.68 767.774C1310.68 768.042 1310.9 768.259 1311.17 768.259Z" fill="#F7931E"/>
<path d="M1377.88 742.139C1378.15 742.139 1378.37 741.922 1378.37 741.654C1378.37 741.386 1378.15 741.169 1377.88 741.169C1377.62 741.169 1377.4 741.386 1377.4 741.654C1377.4 741.922 1377.62 742.139 1377.88 742.139Z" fill="#F7931E"/>
<path d="M1315.22 873.079C1315.49 873.079 1315.71 872.861 1315.71 872.594C1315.71 872.326 1315.49 872.109 1315.22 872.109C1314.95 872.109 1314.74 872.326 1314.74 872.594C1314.74 872.861 1314.95 873.079 1315.22 873.079Z" fill="#F7931E"/>
<path d="M1239.65 879.713C1239.92 879.713 1240.14 879.496 1240.14 879.228C1240.14 878.96 1239.92 878.743 1239.65 878.743C1239.39 878.743 1239.17 878.96 1239.17 879.228C1239.17 879.496 1239.39 879.713 1239.65 879.713Z" fill="#F7931E"/>
<path d="M1401.6 370.619C1401.87 370.619 1402.08 370.402 1402.08 370.134C1402.08 369.866 1401.87 369.649 1401.6 369.649C1401.33 369.649 1401.11 369.866 1401.11 370.134C1401.11 370.402 1401.33 370.619 1401.6 370.619Z" fill="#F7931E"/>
<path d="M543.389 779.704C543.657 779.704 543.874 779.487 543.874 779.219C543.874 778.951 543.657 778.734 543.389 778.734C543.122 778.734 542.904 778.951 542.904 779.219C542.904 779.487 543.122 779.704 543.389 779.704Z" fill="#F7931E"/>
<path d="M387.863 781.324C388.131 781.324 388.348 781.107 388.348 780.839C388.348 780.571 388.131 780.354 387.863 780.354C387.595 780.354 387.378 780.571 387.378 780.839C387.378 781.107 387.595 781.324 387.863 781.324Z" fill="#F7931E"/>
<path d="M557.496 803.874C557.764 803.874 557.981 803.657 557.981 803.389C557.981 803.122 557.764 802.905 557.496 802.905C557.229 802.905 557.011 803.122 557.011 803.389C557.011 803.657 557.229 803.874 557.496 803.874Z" fill="#F7931E"/>
<path d="M1295.51 827.87C1295.78 827.87 1295.99 827.653 1295.99 827.385C1295.99 827.118 1295.78 826.9 1295.51 826.9C1295.24 826.9 1295.03 827.118 1295.03 827.385C1295.03 827.653 1295.24 827.87 1295.51 827.87Z" fill="#F7931E"/>
<path d="M507.555 743.778C507.822 743.778 508.039 743.561 508.039 743.293C508.039 743.025 507.822 742.808 507.555 742.808C507.287 742.808 507.07 743.025 507.07 743.293C507.07 743.561 507.287 743.778 507.555 743.778Z" fill="#F7931E"/>
<path d="M31.7658 118.274C32.0335 118.274 32.2506 118.056 32.2506 117.789C32.2506 117.521 32.0335 117.304 31.7658 117.304C31.4981 117.304 31.281 117.521 31.281 117.789C31.281 118.056 31.4981 118.274 31.7658 118.274Z" fill="#F7931E"/>
<path d="M252.504 396.351C252.772 396.351 252.989 396.134 252.989 395.866C252.989 395.598 252.772 395.381 252.504 395.381C252.236 395.381 252.019 395.598 252.019 395.866C252.019 396.134 252.236 396.351 252.504 396.351Z" fill="#F7931E"/>
<path d="M344.747 10.3015C345.015 10.3015 345.232 10.0844 345.232 9.81657C345.232 9.54874 345.015 9.33162 344.747 9.33162C344.479 9.33162 344.262 9.54874 344.262 9.81657C344.262 10.0844 344.479 10.3015 344.747 10.3015Z" fill="#F7931E"/>
<path d="M353.609 150.436C353.877 150.436 354.094 150.219 354.094 149.951C354.094 149.683 353.877 149.466 353.609 149.466C353.341 149.466 353.124 149.683 353.124 149.951C353.124 150.219 353.341 150.436 353.609 150.436Z" fill="#F7931E"/>
<path d="M173.02 375.905C173.288 375.905 173.505 375.688 173.505 375.42C173.505 375.152 173.288 374.935 173.02 374.935C172.752 374.935 172.535 375.152 172.535 375.42C172.535 375.688 172.752 375.905 173.02 375.905Z" fill="#F7931E"/>
<path d="M177.024 189.98C177.292 189.98 177.509 189.763 177.509 189.495C177.509 189.227 177.292 189.01 177.024 189.01C176.757 189.01 176.539 189.227 176.539 189.495C176.539 189.763 176.757 189.98 177.024 189.98Z" fill="#F7931E"/>
<path d="M135.266 296.216C135.533 296.216 135.75 295.999 135.75 295.731C135.75 295.463 135.533 295.246 135.266 295.246C134.998 295.246 134.781 295.463 134.781 295.731C134.781 295.999 134.998 296.216 135.266 296.216Z" fill="#F7931E"/>
<path d="M201.341 34.3266C201.608 34.3266 201.825 34.1094 201.825 33.8416C201.825 33.5738 201.608 33.3566 201.341 33.3566C201.073 33.3566 200.856 33.5738 200.856 33.8416C200.856 34.1094 201.073 34.3266 201.341 34.3266Z" fill="#F7931E"/>
<path d="M241.083 212.531C241.35 212.531 241.567 212.314 241.567 212.046C241.567 211.778 241.35 211.561 241.083 211.561C240.815 211.561 240.598 211.778 240.598 212.046C240.598 212.314 240.815 212.531 241.083 212.531Z" fill="#F7931E"/>
<path d="M249.372 175.325C249.64 175.325 249.857 175.107 249.857 174.84C249.857 174.572 249.64 174.355 249.372 174.355C249.105 174.355 248.888 174.572 248.888 174.84C248.888 175.107 249.105 175.325 249.372 175.325Z" fill="#F7931E"/>
<path d="M372.942 50.4661C373.21 50.4661 373.427 50.249 373.427 49.9812C373.427 49.7133 373.21 49.4962 372.942 49.4962C372.674 49.4962 372.457 49.7133 372.457 49.9812C372.457 50.249 372.674 50.4661 372.942 50.4661Z" fill="#F7931E"/>
<path d="M89.5221 233.811C89.7898 233.811 90.0068 233.594 90.0068 233.326C90.0068 233.058 89.7898 232.841 89.5221 232.841C89.2543 232.841 89.0373 233.058 89.0373 233.326C89.0373 233.594 89.2543 233.811 89.5221 233.811Z" fill="#F7931E"/>
<path d="M149.208 12.2899C149.475 12.2899 149.693 12.0728 149.693 11.8049C149.693 11.5371 149.475 11.32 149.208 11.32C148.94 11.32 148.723 11.5371 148.723 11.8049C148.723 12.0728 148.94 12.2899 149.208 12.2899Z" fill="#F7931E"/>
<path d="M59.5144 235.605C59.7822 235.605 59.9992 235.388 59.9992 235.12C59.9992 234.853 59.7822 234.635 59.5144 234.635C59.2467 234.635 59.0297 234.853 59.0297 235.12C59.0297 235.388 59.2467 235.605 59.5144 235.605Z" fill="#F7931E"/>
<path d="M440.82 96.4017C441.088 96.4017 441.305 96.1846 441.305 95.9168C441.305 95.6489 441.088 95.4318 440.82 95.4318C440.552 95.4318 440.335 95.6489 440.335 95.9168C440.335 96.1846 440.552 96.4017 440.82 96.4017Z" fill="#F7931E"/>
<path d="M837.901 134.2C838.168 134.2 838.385 133.983 838.385 133.715C838.385 133.447 838.168 133.23 837.901 133.23C837.633 133.23 837.416 133.447 837.416 133.715C837.416 133.983 837.633 134.2 837.901 134.2Z" fill="#F7931E"/>
<path d="M1157.36 37.0133C1157.63 37.0133 1157.84 36.7961 1157.84 36.5283C1157.84 36.2605 1157.63 36.0434 1157.36 36.0434C1157.09 36.0434 1156.87 36.2605 1156.87 36.5283C1156.87 36.7961 1157.09 37.0133 1157.36 37.0133Z" fill="#F7931E"/>
<path d="M1036.54 48.3032C1036.81 48.3032 1037.03 48.0861 1037.03 47.8182C1037.03 47.5504 1036.81 47.3333 1036.54 47.3333C1036.27 47.3333 1036.06 47.5504 1036.06 47.8182C1036.06 48.0861 1036.27 48.3032 1036.54 48.3032Z" fill="#F7931E"/>
<path d="M627.508 64.5106C627.775 64.5106 627.992 64.2935 627.992 64.0257C627.992 63.7578 627.775 63.5407 627.508 63.5407C627.24 63.5407 627.023 63.7578 627.023 64.0257C627.023 64.2935 627.24 64.5106 627.508 64.5106Z" fill="#F7931E"/>
<path d="M336.923 66.3244C337.191 66.3244 337.408 66.1073 337.408 65.8394C337.408 65.5716 337.191 65.3545 336.923 65.3545C336.655 65.3545 336.438 65.5716 336.438 65.8394C336.438 66.1073 336.655 66.3244 336.923 66.3244Z" fill="#F7931E"/>
<path d="M460.677 241.726C460.944 241.726 461.161 241.508 461.161 241.241C461.161 240.973 460.944 240.756 460.677 240.756C460.409 240.756 460.192 240.973 460.192 241.241C460.192 241.508 460.409 241.726 460.677 241.726Z" fill="#F7931E"/>
<path d="M411.016 313.898C411.284 313.898 411.501 313.681 411.501 313.413C411.501 313.145 411.284 312.928 411.016 312.928C410.748 312.928 410.531 313.145 410.531 313.413C410.531 313.681 410.748 313.898 411.016 313.898Z" fill="#F7931E"/>
<path d="M569.829 470.725C570.097 470.725 570.314 470.508 570.314 470.24C570.314 469.972 570.097 469.755 569.829 469.755C569.561 469.755 569.344 469.972 569.344 470.24C569.344 470.508 569.561 470.725 569.829 470.725Z" fill="#F7931E"/>
<path d="M517.851 484.73C518.119 484.73 518.336 484.513 518.336 484.245C518.336 483.978 518.119 483.76 517.851 483.76C517.583 483.76 517.366 483.978 517.366 484.245C517.366 484.513 517.583 484.73 517.851 484.73Z" fill="#F7931E"/>
<path d="M577.818 367.166C578.086 367.166 578.303 366.949 578.303 366.681C578.303 366.413 578.086 366.196 577.818 366.196C577.55 366.196 577.333 366.413 577.333 366.681C577.333 366.949 577.55 367.166 577.818 367.166Z" fill="#F7931E"/>
<path d="M508.078 403.111C508.346 403.111 508.563 402.894 508.563 402.626C508.563 402.358 508.346 402.141 508.078 402.141C507.81 402.141 507.593 402.358 507.593 402.626C507.593 402.894 507.81 403.111 508.078 403.111Z" fill="#F7931E"/>
<path d="M1082.32 92.4348C1082.58 92.4348 1082.8 92.2176 1082.8 91.9498C1082.8 91.682 1082.58 91.4648 1082.32 91.4648C1082.05 91.4648 1081.83 91.682 1081.83 91.9498C1081.83 92.2176 1082.05 92.4348 1082.32 92.4348Z" fill="#F7931E"/>
<path d="M1259.13 291.318C1259.4 291.318 1259.62 291.101 1259.62 290.833C1259.62 290.565 1259.4 290.348 1259.13 290.348C1258.86 290.348 1258.65 290.565 1258.65 290.833C1258.65 291.101 1258.86 291.318 1259.13 291.318Z" fill="#F7931E"/>
<path d="M1221.36 183.967C1221.63 183.967 1221.84 183.749 1221.84 183.482C1221.84 183.214 1221.63 182.997 1221.36 182.997C1221.09 182.997 1220.87 183.214 1220.87 183.482C1220.87 183.749 1221.09 183.967 1221.36 183.967Z" fill="#F7931E"/>
<path d="M1391.37 386.884C1391.64 386.884 1391.85 386.667 1391.85 386.399C1391.85 386.132 1391.64 385.914 1391.37 385.914C1391.1 385.914 1390.89 386.132 1390.89 386.399C1390.89 386.667 1391.1 386.884 1391.37 386.884Z" fill="#F7931E"/>
<path d="M1239.34 102.153C1239.61 102.153 1239.83 101.936 1239.83 101.668C1239.83 101.401 1239.61 101.183 1239.34 101.183C1239.08 101.183 1238.86 101.401 1238.86 101.668C1238.86 101.936 1239.08 102.153 1239.34 102.153Z" fill="#F7931E"/>
<path d="M1429.46 271.396C1429.73 271.396 1429.95 271.178 1429.95 270.911C1429.95 270.643 1429.73 270.426 1429.46 270.426C1429.2 270.426 1428.98 270.643 1428.98 270.911C1428.98 271.178 1429.2 271.396 1429.46 271.396Z" fill="#F7931E"/>
<path d="M1301.22 241.561C1301.49 241.561 1301.71 241.344 1301.71 241.076C1301.71 240.808 1301.49 240.591 1301.22 240.591C1300.95 240.591 1300.74 240.808 1300.74 241.076C1300.74 241.344 1300.95 241.561 1301.22 241.561Z" fill="#F7931E"/>
<path d="M1383.48 253.433C1383.75 253.433 1383.96 253.215 1383.96 252.948C1383.96 252.68 1383.75 252.463 1383.48 252.463C1383.21 252.463 1382.99 252.68 1382.99 252.948C1382.99 253.215 1383.21 253.433 1383.48 253.433Z" fill="#F7931E"/>
<path d="M1387.46 8.32289C1387.73 8.32289 1387.95 8.10577 1387.95 7.83794C1387.95 7.5701 1387.73 7.35298 1387.46 7.35298C1387.19 7.35298 1386.98 7.5701 1386.98 7.83794C1386.98 8.10577 1387.19 8.32289 1387.46 8.32289Z" fill="#F7931E"/>
<path d="M1387.65 183.889C1387.91 183.889 1388.13 183.672 1388.13 183.404C1388.13 183.136 1387.91 182.919 1387.65 182.919C1387.38 182.919 1387.16 183.136 1387.16 183.404C1387.16 183.672 1387.38 183.889 1387.65 183.889Z" fill="#F7931E"/>
<path d="M1357.56 167.992C1357.83 167.992 1358.05 167.775 1358.05 167.507C1358.05 167.239 1357.83 167.022 1357.56 167.022C1357.29 167.022 1357.08 167.239 1357.08 167.507C1357.08 167.775 1357.29 167.992 1357.56 167.992Z" fill="#F7931E"/>
<path d="M1359.77 108.196C1360.04 108.196 1360.26 107.979 1360.26 107.711C1360.26 107.443 1360.04 107.226 1359.77 107.226C1359.5 107.226 1359.29 107.443 1359.29 107.711C1359.29 107.979 1359.5 108.196 1359.77 108.196Z" fill="#F7931E"/>
<path d="M538.086 10.6701C538.354 10.6701 538.571 10.453 538.571 10.1852C538.571 9.91731 538.354 9.70018 538.086 9.70018C537.818 9.70018 537.601 9.91731 537.601 10.1852C537.601 10.453 537.818 10.6701 538.086 10.6701Z" fill="#F7931E"/>
<path d="M412.994 36.5089C413.262 36.5089 413.479 36.2918 413.479 36.0239C413.479 35.7561 413.262 35.539 412.994 35.539C412.726 35.539 412.509 35.7561 412.509 36.0239C412.509 36.2918 412.726 36.5089 412.994 36.5089Z" fill="#F7931E"/>
<path d="M288.949 132.085C289.217 132.085 289.434 131.868 289.434 131.6C289.434 131.332 289.217 131.115 288.949 131.115C288.682 131.115 288.465 131.332 288.465 131.6C288.465 131.868 288.682 132.085 288.949 132.085Z" fill="#F7931E"/>
<path d="M1419.24 586.446C1419.51 586.446 1419.73 586.229 1419.73 585.961C1419.73 585.694 1419.51 585.477 1419.24 585.477C1418.98 585.477 1418.76 585.694 1418.76 585.961C1418.76 586.229 1418.98 586.446 1419.24 586.446Z" fill="#F7931E"/>
<path d="M1433.24 855.6C1433.5 855.6 1433.72 855.383 1433.72 855.116C1433.72 854.848 1433.5 854.631 1433.24 854.631C1432.97 854.631 1432.75 854.848 1432.75 855.116C1432.75 855.383 1432.97 855.6 1433.24 855.6Z" fill="#F7931E"/>
<g opacity="0.3317">
<g opacity="0.3317">
<path opacity="0.3317" d="M1375.12 510.424C1375.66 510.424 1376.1 509.985 1376.1 509.444C1376.1 508.903 1375.66 508.464 1375.12 508.464C1374.58 508.464 1374.14 508.903 1374.14 509.444C1374.14 509.985 1374.58 510.424 1375.12 510.424Z" fill="#F7931E"/>
</g>
</g>
<g opacity="0.9889">
<g opacity="0.9889">
<path opacity="0.9889" d="M1335.51 712.779C1336.19 712.779 1336.75 712.228 1336.75 711.547C1336.75 710.867 1336.19 710.315 1335.51 710.315C1334.83 710.315 1334.28 710.867 1334.28 711.547C1334.28 712.228 1334.83 712.779 1335.51 712.779Z" fill="#F7931E"/>
</g>
</g>
<g opacity="0.9272">
<g opacity="0.9272">
<path opacity="0.9272" d="M1365.78 660.772C1366.45 660.772 1366.99 660.233 1366.99 659.569C1366.99 658.905 1366.45 658.366 1365.78 658.366C1365.12 658.366 1364.58 658.905 1364.58 659.569C1364.58 660.233 1365.12 660.772 1365.78 660.772Z" fill="#F7931E"/>
</g>
</g>
<path d="M1337.66 760.936C1338.3 760.936 1338.83 760.41 1338.83 759.762C1338.83 759.114 1338.3 758.589 1337.66 758.589C1337.01 758.589 1336.48 759.114 1336.48 759.762C1336.48 760.41 1337.01 760.936 1337.66 760.936Z" fill="#F7931E"/>
<g opacity="0.8509">
<g opacity="0.8509">
<path opacity="0.8509" d="M1323.46 640.626C1324.12 640.626 1324.66 640.092 1324.66 639.433C1324.66 638.774 1324.12 638.24 1323.46 638.24C1322.8 638.24 1322.27 638.774 1322.27 639.433C1322.27 640.092 1322.8 640.626 1323.46 640.626Z" fill="#F7931E"/>
</g>
</g>
<g opacity="0.828">
<g opacity="0.828">
<path opacity="0.828" d="M1273.18 664.681C1273.82 664.681 1274.34 664.159 1274.34 663.517C1274.34 662.874 1273.82 662.353 1273.18 662.353C1272.54 662.353 1272.02 662.874 1272.02 663.517C1272.02 664.159 1272.54 664.681 1273.18 664.681Z" fill="#F7931E"/>
</g>
</g>
<path d="M990.334 860.159C990.869 860.159 991.303 859.725 991.303 859.189C991.303 858.654 990.869 858.219 990.334 858.219C989.798 858.219 989.364 858.654 989.364 859.189C989.364 859.725 989.798 860.159 990.334 860.159Z" fill="#F7931E"/>
<g opacity="0.83">
<g opacity="0.83">
<path opacity="0.83" d="M722.466 819.965C723.001 819.965 723.435 819.531 723.435 818.996C723.435 818.46 723.001 818.026 722.466 818.026C721.93 818.026 721.496 818.46 721.496 818.996C721.496 819.531 721.93 819.965 722.466 819.965Z" fill="#F7931E"/>
</g>
</g>
<g opacity="0.8268">
<g opacity="0.8268">
<path opacity="0.8268" d="M1044.42 839.897C1044.95 839.897 1045.38 839.463 1045.38 838.927C1045.38 838.392 1044.95 837.958 1044.42 837.958C1043.88 837.958 1043.45 838.392 1043.45 838.927C1043.45 839.463 1043.88 839.897 1044.42 839.897Z" fill="#F7931E"/>
</g>
</g>
<path d="M51.3702 254.752C51.9056 254.752 52.3397 254.317 52.3397 253.782C52.3397 253.246 51.9056 252.812 51.3702 252.812C50.8347 252.812 50.4006 253.246 50.4006 253.782C50.4006 254.317 50.8347 254.752 51.3702 254.752Z" fill="#F7931E"/>
<g opacity="0.6714">
<g opacity="0.6714">
<path opacity="0.6714" d="M228.643 291.424C229.318 291.424 229.865 290.877 229.865 290.202C229.865 289.527 229.318 288.98 228.643 288.98C227.969 288.98 227.422 289.527 227.422 290.202C227.422 290.877 227.969 291.424 228.643 291.424Z" fill="#F7931E"/>
</g>
</g>
<g opacity="0.6434">
<g opacity="0.6434">
<path opacity="0.6434" d="M233.491 290.028C234.176 290.028 234.732 289.472 234.732 288.786C234.732 288.101 234.176 287.545 233.491 287.545C232.806 287.545 232.25 288.101 232.25 288.786C232.25 289.472 232.806 290.028 233.491 290.028Z" fill="#F7931E"/>
</g>
</g>
<g opacity="0.3945">
<g opacity="0.3945">
<path opacity="0.3945" d="M243.012 190.892C243.719 190.892 244.292 190.319 244.292 189.611C244.292 188.904 243.719 188.331 243.012 188.331C242.305 188.331 241.732 188.904 241.732 189.611C241.732 190.319 242.305 190.892 243.012 190.892Z" fill="#F7931E"/>
</g>
</g>
<g opacity="0.8967">
<g opacity="0.8967">
<path opacity="0.8967" d="M121.43 254.499C121.966 254.499 122.4 254.065 122.4 253.529C122.4 252.994 121.966 252.56 121.43 252.56C120.895 252.56 120.461 252.994 120.461 253.529C120.461 254.065 120.895 254.499 121.43 254.499Z" fill="#F7931E"/>
</g>
</g>
<g opacity="0.7388">
<g opacity="0.7388">
<path opacity="0.7388" d="M135.062 78.9916C135.597 78.9916 136.032 78.5574 136.032 78.0217C136.032 77.486 135.597 77.0518 135.062 77.0518C134.526 77.0518 134.092 77.486 134.092 78.0217C134.092 78.5574 134.526 78.9916 135.062 78.9916Z" fill="#F7931E"/>
</g>
</g>
<g opacity="0.7427">
<g opacity="0.7427">
<path opacity="0.7427" d="M163.402 62.823C163.937 62.823 164.372 62.3887 164.372 61.853C164.372 61.3174 163.937 60.8831 163.402 60.8831C162.867 60.8831 162.432 61.3174 162.432 61.853C162.432 62.3887 162.867 62.823 163.402 62.823Z" fill="#F7931E"/>
</g>
</g>
<g opacity="0.7265">
<g opacity="0.7265">
<path opacity="0.7265" d="M334.964 142.929C335.666 142.929 336.235 142.36 336.235 141.658C336.235 140.957 335.666 140.388 334.964 140.388C334.263 140.388 333.694 140.957 333.694 141.658C333.694 142.36 334.263 142.929 334.964 142.929Z" fill="#F7931E"/>
</g>
</g>
<g opacity="0.8364">
<g opacity="0.8364">
<path opacity="0.8364" d="M267.076 58.8075C267.644 58.8075 268.104 58.3471 268.104 57.7793C268.104 57.2115 267.644 56.7512 267.076 56.7512C266.509 56.7512 266.049 57.2115 266.049 57.7793C266.049 58.3471 266.509 58.8075 267.076 58.8075Z" fill="#F7931E"/>
</g>
</g>
<g opacity="0.9349">
<g opacity="0.9349">
<path opacity="0.9349" d="M261.036 384.188C261.641 384.188 262.132 383.697 262.132 383.092C262.132 382.487 261.641 381.996 261.036 381.996C260.431 381.996 259.94 382.487 259.94 383.092C259.94 383.697 260.431 384.188 261.036 384.188Z" fill="#F7931E"/>
</g>
</g>
<g opacity="0.9756">
<g opacity="0.9756">
<path opacity="0.9756" d="M449.856 557.116C450.392 557.116 450.826 556.682 450.826 556.146C450.826 555.61 450.392 555.176 449.856 555.176C449.321 555.176 448.887 555.61 448.887 556.146C448.887 556.682 449.321 557.116 449.856 557.116Z" fill="#F7931E"/>
</g>
</g>
<g opacity="0.5993">
<g opacity="0.5993">
<path opacity="0.5993" d="M537.426 581.015C537.962 581.015 538.396 580.581 538.396 580.045C538.396 579.509 537.962 579.075 537.426 579.075C536.891 579.075 536.457 579.509 536.457 580.045C536.457 580.581 536.891 581.015 537.426 581.015Z" fill="#F7931E"/>
</g>
</g>
<g opacity="0.5814">
<g opacity="0.5814">
<path opacity="0.5814" d="M552.358 574.652C552.893 574.652 553.327 574.218 553.327 573.682C553.327 573.147 552.893 572.712 552.358 572.712C551.822 572.712 551.388 573.147 551.388 573.682C551.388 574.218 551.822 574.652 552.358 574.652Z" fill="#F7931E"/>
</g>
</g>
<g opacity="0.5495">
<g opacity="0.5495">
<path opacity="0.5495" d="M398.887 287.972C399.428 287.972 399.866 287.533 399.866 286.992C399.866 286.451 399.428 286.012 398.887 286.012C398.346 286.012 397.908 286.451 397.908 286.992C397.908 287.533 398.346 287.972 398.887 287.972Z" fill="#F7931E"/>
</g>
</g>
<g opacity="0.4787">
<g opacity="0.4787">
<path opacity="0.4787" d="M362.665 310.309C363.243 310.309 363.712 309.84 363.712 309.261C363.712 308.683 363.243 308.214 362.665 308.214C362.086 308.214 361.617 308.683 361.617 309.261C361.617 309.84 362.086 310.309 362.665 310.309Z" fill="#F7931E"/>
</g>
</g>
<g opacity="0.8454">
<g opacity="0.8454">
<path opacity="0.8454" d="M346.706 395.982C347.263 395.982 347.714 395.531 347.714 394.974C347.714 394.417 347.263 393.965 346.706 393.965C346.149 393.965 345.697 394.417 345.697 394.974C345.697 395.531 346.149 395.982 346.706 395.982Z" fill="#F7931E"/>
</g>
</g>
<g opacity="0.9959">
<g opacity="0.9959">
<path opacity="0.9959" d="M358.699 432.161C359.235 432.161 359.669 431.726 359.669 431.191C359.669 430.655 359.235 430.221 358.699 430.221C358.164 430.221 357.73 430.655 357.73 431.191C357.73 431.726 358.164 432.161 358.699 432.161Z" fill="#F7931E"/>
</g>
</g>
<path d="M1343.36 285.818C1343.89 285.818 1344.33 285.384 1344.33 284.848C1344.33 284.313 1343.89 283.878 1343.36 283.878C1342.82 283.878 1342.39 284.313 1342.39 284.848C1342.39 285.384 1342.82 285.818 1343.36 285.818Z" fill="#F7931E"/>
<g opacity="0.9398">
<g opacity="0.9398">
<path opacity="0.9398" d="M1292.94 371.734C1293.48 371.734 1293.91 371.3 1293.91 370.764C1293.91 370.229 1293.48 369.794 1292.94 369.794C1292.41 369.794 1291.97 370.229 1291.97 370.764C1291.97 371.3 1292.41 371.734 1292.94 371.734Z" fill="#F7931E"/>
</g>
</g>
<g opacity="0.9894">
<g opacity="0.9894">
<path opacity="0.9894" d="M1305.35 351.24C1305.89 351.24 1306.32 350.805 1306.32 350.27C1306.32 349.734 1305.89 349.3 1305.35 349.3C1304.82 349.3 1304.38 349.734 1304.38 350.27C1304.38 350.805 1304.82 351.24 1305.35 351.24Z" fill="#F7931E"/>
</g>
</g>
<path d="M1010.57 84.9372C1011.1 84.9372 1011.54 84.503 1011.54 83.9673C1011.54 83.4316 1011.1 82.9974 1010.57 82.9974C1010.03 82.9974 1009.6 83.4316 1009.6 83.9673C1009.6 84.503 1010.03 84.9372 1010.57 84.9372Z" fill="#F7931E"/>
<path d="M1166.1 28.7398C1166.64 28.7398 1167.07 28.3056 1167.07 27.7699C1167.07 27.2342 1166.64 26.8 1166.1 26.8C1165.57 26.8 1165.13 27.2342 1165.13 27.7699C1165.13 28.3056 1165.57 28.7398 1166.1 28.7398Z" fill="#F7931E"/>
<path d="M1336.78 30.6021C1337.32 30.6021 1337.75 30.1678 1337.75 29.6321C1337.75 29.0965 1337.32 28.6622 1336.78 28.6622C1336.25 28.6622 1335.81 29.0965 1335.81 29.6321C1335.81 30.1678 1336.25 30.6021 1336.78 30.6021Z" fill="#F7931E"/>
<path d="M1353.84 30.6991C1354.37 30.6991 1354.81 30.2648 1354.81 29.7291C1354.81 29.1935 1354.37 28.7592 1353.84 28.7592C1353.3 28.7592 1352.87 29.1935 1352.87 29.7291C1352.87 30.2648 1353.3 30.6991 1353.84 30.6991Z" fill="#F7931E"/>
<path d="M1329.37 86.5667C1329.9 86.5667 1330.34 86.1325 1330.34 85.5968C1330.34 85.0611 1329.9 84.6269 1329.37 84.6269C1328.83 84.6269 1328.4 85.0611 1328.4 85.5968C1328.4 86.1325 1328.83 86.5667 1329.37 86.5667Z" fill="#F7931E"/>
<path d="M1303.17 124.51C1303.71 124.51 1304.14 124.076 1304.14 123.54C1304.14 123.005 1303.71 122.57 1303.17 122.57C1302.63 122.57 1302.2 123.005 1302.2 123.54C1302.2 124.076 1302.63 124.51 1303.17 124.51Z" fill="#F7931E"/>
<path d="M1313.3 160.698C1313.84 160.698 1314.27 160.264 1314.27 159.728C1314.27 159.192 1313.84 158.758 1313.3 158.758C1312.77 158.758 1312.33 159.192 1312.33 159.728C1312.33 160.264 1312.77 160.698 1313.3 160.698Z" fill="#F7931E"/>
<g opacity="0.6103">
<g opacity="0.6103">
<path opacity="0.6103" d="M1274.32 595.796C1274.92 595.796 1275.41 595.306 1275.41 594.7C1275.41 594.095 1274.92 593.604 1274.32 593.604C1273.71 593.604 1273.22 594.095 1273.22 594.7C1273.22 595.306 1273.71 595.796 1274.32 595.796Z" fill="#F7931E"/>
</g>
</g>
<g opacity="0.6266">
<g opacity="0.6266">
<path opacity="0.6266" d="M1279.97 596.912C1280.57 596.912 1281.06 596.421 1281.06 595.816C1281.06 595.211 1280.57 594.72 1279.97 594.72C1279.36 594.72 1278.87 595.211 1278.87 595.816C1278.87 596.421 1279.36 596.912 1279.97 596.912Z" fill="#F7931E"/>
</g>
</g>
<g opacity="0.3331">
<g opacity="0.3331">
<path opacity="0.3331" d="M1377.19 540.967C1377.75 540.967 1378.2 540.511 1378.2 539.948C1378.2 539.386 1377.75 538.93 1377.19 538.93C1376.62 538.93 1376.17 539.386 1376.17 539.948C1376.17 540.511 1376.62 540.967 1377.19 540.967Z" fill="#F7931E"/>
</g>
</g>
<g opacity="0.6849">
<g opacity="0.6849">
<path opacity="0.6849" d="M1205.63 784.34C1206.22 784.34 1206.69 783.867 1206.69 783.283C1206.69 782.699 1206.22 782.226 1205.63 782.226C1205.05 782.226 1204.58 782.699 1204.58 783.283C1204.58 783.867 1205.05 784.34 1205.63 784.34Z" fill="#F7931E"/>
</g>
</g>
<g opacity="0.6341">
<g opacity="0.6341">
<path opacity="0.6341" d="M1125.99 846.134C1126.53 846.134 1126.96 845.7 1126.96 845.164C1126.96 844.628 1126.53 844.194 1125.99 844.194C1125.46 844.194 1125.02 844.628 1125.02 845.164C1125.02 845.7 1125.46 846.134 1125.99 846.134Z" fill="#F7931E"/>
</g>
</g>
</svg>
