<svg width="1373" height="819" viewBox="0 0 1373 819" fill="none" xmlns="http://www.w3.org/2000/svg">
<g clip-path="url(#clip0)">
<path d="M686.95 -10C686.95 -6.69 684.26 -4 680.95 -4C684.26 -4 686.95 -1.31 686.95 2C686.95 -1.31 689.64 -4 692.95 -4C689.63 -4 686.95 -6.69 686.95 -10Z" fill="#E51E3A"/>
<path d="M568.97 683C568.97 687.4 565.4 690.97 561 690.97C565.4 690.97 568.97 694.54 568.97 698.94C568.97 694.54 572.54 690.97 576.94 690.97C572.54 690.97 568.97 687.4 568.97 683Z" fill="#E51E3A"/>
<path opacity="0.7" d="M927 514C927 520.08 922.08 525 916 525C922.08 525 927 529.92 927 536C927 529.92 931.92 525 938 525C931.92 525 927 520.08 927 514Z" fill="#E51E3A"/>
<path opacity="0.7" d="M1003 496C1003 499.316 1000.32 502 997 502C1000.32 502 1003 504.684 1003 508C1003 504.684 1005.68 502 1009 502C1005.68 502 1003 499.316 1003 496Z" fill="#E51E3A"/>
<path opacity="0.7" d="M1171 620C1171 623.316 1168.32 626 1165 626C1168.32 626 1171 628.684 1171 632C1171 628.684 1173.68 626 1177 626C1173.68 626 1171 623.316 1171 620Z" fill="#E51E3A"/>
<path opacity="0.7" d="M852 608C852 611.316 849.316 614 846 614C849.316 614 852 616.684 852 620C852 616.684 854.684 614 858 614C854.684 614 852 611.316 852 608Z" fill="#E51E3A"/>
<path opacity="0.7" d="M1120 576C1120 582.08 1115.08 587 1109 587C1115.08 587 1120 591.92 1120 598C1120 591.92 1124.92 587 1131 587C1124.92 587 1120 582.08 1120 576Z" fill="#E51E3A"/>
<path opacity="0.7" d="M1328 422C1328 428.08 1323.08 433 1317 433C1323.08 433 1328 437.92 1328 444C1328 437.92 1332.92 433 1339 433C1332.92 433 1328 428.08 1328 422Z" fill="#E51E3A"/>
<path opacity="0.7" d="M1316 254C1316 262.844 1308.84 270 1300 270C1308.84 270 1316 277.156 1316 286C1316 277.156 1323.16 270 1332 270C1323.16 270 1316 262.844 1316 254Z" fill="#E51E3A"/>
<path opacity="0.7" d="M1177 333C1177 336.316 1174.32 339 1171 339C1174.32 339 1177 341.684 1177 345C1177 341.684 1179.68 339 1183 339C1179.68 339 1177 336.316 1177 333Z" fill="#E51E3A"/>
<path d="M1216.5 160C1216.5 168.008 1210.01 174.5 1202 174.5C1210.01 174.5 1216.5 180.992 1216.5 189C1216.5 180.992 1222.99 174.5 1231 174.5C1223 174.5 1216.5 168.008 1216.5 160Z" fill="#E51E3A"/>
<path d="M111 77C111 80.3131 108.313 83 105 83C108.313 83 111 85.6869 111 89C111 85.6869 113.687 83 117 83C113.687 83 111 80.3131 111 77Z" fill="#E51E3A"/>
<path opacity="0.8" d="M78.5 141C78.5 148.454 72.4544 154.5 65 154.5C72.4544 154.5 78.5 160.546 78.5 168C78.5 160.546 84.5456 154.5 92 154.5C84.5456 154.5 78.5 148.454 78.5 141Z" fill="#E51E3A"/>
<path opacity="0.8" d="M263.5 70C263.5 79.1109 256.111 86.5 247 86.5C256.111 86.5 263.5 93.8891 263.5 103C263.5 93.8891 270.889 86.5 280 86.5C270.889 86.5 263.5 79.1109 263.5 70Z" fill="#E51E3A"/>
<path d="M138.93 202C138.93 204.72 136.72 206.93 134 206.93C136.72 206.93 138.93 209.14 138.93 211.86C138.93 209.14 141.14 206.93 143.86 206.93C141.13 206.93 138.93 204.72 138.93 202Z" fill="#E51E3A"/>
<path d="M289.45 14C289.45 17.59 286.54 20.5 282.95 20.5C286.54 20.5 289.45 23.41 289.45 27C289.45 23.41 292.36 20.5 295.95 20.5C292.36 20.5 289.45 17.59 289.45 14Z" fill="#E51E3A"/>
<path d="M1008.97 694C1008.97 696.19 1007.19 697.97 1005 697.97C1007.19 697.97 1008.97 699.75 1008.97 701.94C1008.97 699.75 1010.75 697.97 1012.94 697.97C1010.75 697.97 1008.97 696.19 1008.97 694Z" fill="#E51E3A"/>
<path d="M835.47 726C835.47 727.92 833.91 729.47 832 729.47C833.92 729.47 835.47 731.03 835.47 732.94C835.47 731.02 837.03 729.47 838.94 729.47C837.03 729.47 835.47 727.92 835.47 726Z" fill="#E51E3A"/>
<path d="M981.47 480C981.47 481.92 979.91 483.47 978 483.47C979.92 483.47 981.47 485.03 981.47 486.94C981.47 485.02 983.03 483.47 984.94 483.47C983.03 483.47 981.47 481.92 981.47 480Z" fill="#E51E3A"/>
<path d="M1053.47 658C1053.47 659.92 1051.91 661.47 1050 661.47C1051.92 661.47 1053.47 663.03 1053.47 664.94C1053.47 663.02 1055.03 661.47 1056.94 661.47C1055.03 661.47 1053.47 659.92 1053.47 658Z" fill="#E51E3A"/>
<path d="M761.47 658C761.47 659.92 759.91 661.47 758 661.47C759.92 661.47 761.47 663.03 761.47 664.94C761.47 663.02 763.03 661.47 764.94 661.47C763.03 661.47 761.47 659.92 761.47 658Z" fill="#E51E3A"/>
<path d="M388.47 718C388.47 719.92 386.91 721.47 385 721.47C386.92 721.47 388.47 723.03 388.47 724.94C388.47 723.02 390.03 721.47 391.94 721.47C390.03 721.47 388.47 719.92 388.47 718Z" fill="#E51E3A"/>
<path d="M113.47 785C113.47 786.92 111.91 788.47 110 788.47C111.92 788.47 113.47 790.03 113.47 791.94C113.47 790.02 115.03 788.47 116.94 788.47C115.03 788.47 113.47 786.92 113.47 785Z" fill="#E51E3A"/>
<path d="M60.47 701C60.47 702.92 58.91 704.47 57 704.47C58.92 704.47 60.47 706.03 60.47 707.94C60.47 706.02 62.03 704.47 63.94 704.47C62.03 704.47 60.47 702.92 60.47 701Z" fill="#E51E3A"/>
<path d="M320.47 629C320.47 630.92 318.91 632.47 317 632.47C318.92 632.47 320.47 634.03 320.47 635.94C320.47 634.02 322.03 632.47 323.94 632.47C322.03 632.47 320.47 630.92 320.47 629Z" fill="#E51E3A"/>
<path d="M202.5 714C202.5 715.383 201.376 716.5 200 716.5C201.383 716.5 202.5 717.624 202.5 719C202.5 717.617 203.624 716.5 205 716.5C203.624 716.5 202.5 715.383 202.5 714Z" fill="#E51E3A"/>
<path d="M92.5 611C92.5 612.383 91.3761 613.5 90 613.5C91.3833 613.5 92.5 614.624 92.5 616C92.5 614.617 93.6239 613.5 95 613.5C93.6239 613.5 92.5 612.383 92.5 611Z" fill="#E51E3A"/>
<path d="M35.5 647C35.5 648.383 34.3761 649.5 33 649.5C34.3833 649.5 35.5 650.624 35.5 652C35.5 650.617 36.6239 649.5 38 649.5C36.6239 649.5 35.5 648.383 35.5 647Z" fill="#E51E3A"/>
<path d="M322.5 783C322.5 784.383 321.376 785.5 320 785.5C321.383 785.5 322.5 786.624 322.5 788C322.5 786.617 323.624 785.5 325 785.5C323.624 785.5 322.5 784.383 322.5 783Z" fill="#E51E3A"/>
<path d="M364.47 544C364.47 545.92 362.91 547.47 361 547.47C362.92 547.47 364.47 549.03 364.47 550.94C364.47 549.02 366.03 547.47 367.94 547.47C366.03 547.47 364.47 545.92 364.47 544Z" fill="#E51E3A"/>
<path d="M70.47 498C70.47 499.92 68.91 501.47 67 501.47C68.92 501.47 70.47 503.03 70.47 504.94C70.47 503.02 72.03 501.47 73.94 501.47C72.03 501.47 70.47 499.92 70.47 498Z" fill="#E51E3A"/>
<path d="M168.47 421C168.47 422.92 166.91 424.47 165 424.47C166.92 424.47 168.47 426.03 168.47 427.94C168.47 426.02 170.03 424.47 171.94 424.47C170.03 424.47 168.47 422.92 168.47 421Z" fill="#E51E3A"/>
<path d="M57.47 168C57.47 169.92 55.91 171.47 54 171.47C55.92 171.47 57.47 173.03 57.47 174.94C57.47 173.02 59.03 171.47 60.94 171.47C59.03 171.47 57.47 169.92 57.47 168Z" fill="#E51E3A"/>
<path d="M71.47 298C71.47 299.92 69.91 301.47 68 301.47C69.92 301.47 71.47 303.03 71.47 304.94C71.47 303.02 73.03 301.47 74.94 301.47C73.03 301.47 71.47 299.92 71.47 298Z" fill="#E51E3A"/>
<path d="M798.47 269C798.47 270.92 796.91 272.47 795 272.47C796.92 272.47 798.47 274.03 798.47 275.94C798.47 274.02 800.03 272.47 801.94 272.47C800.03 272.47 798.47 270.92 798.47 269Z" fill="#E51E3A"/>
<path d="M938.47 182C938.47 183.92 936.91 185.47 935 185.47C936.92 185.47 938.47 187.03 938.47 188.94C938.47 187.02 940.03 185.47 941.94 185.47C940.03 185.47 938.47 183.92 938.47 182Z" fill="#E51E3A"/>
<path d="M1186.47 122C1186.47 123.92 1184.91 125.47 1183 125.47C1184.92 125.47 1186.47 127.03 1186.47 128.94C1186.47 127.02 1188.03 125.47 1189.94 125.47C1188.03 125.47 1186.47 123.92 1186.47 122Z" fill="#E51E3A"/>
<path opacity="0.5" d="M379.5 571C379.5 578.456 372.561 584.5 364 584.5C372.561 584.5 379.5 590.544 379.5 598C379.5 590.544 386.439 584.5 395 584.5C386.446 584.5 379.5 578.456 379.5 571Z" fill="#E51E3A"/>
<path opacity="0.5" d="M15.5 536C15.5 543.456 8.56054 549.5 0 549.5C8.56054 549.5 15.5 555.544 15.5 563C15.5 555.544 22.4395 549.5 31 549.5C22.4464 549.5 15.5 543.456 15.5 536Z" fill="#E51E3A"/>
<path opacity="0.5" d="M466 656C466 658.485 463.761 660.5 461 660.5C463.761 660.5 466 662.515 466 665C466 662.515 468.239 660.5 471 660.5C468.241 660.5 466 658.485 466 656Z" fill="#E51E3A"/>
<path opacity="0.5" d="M711.5 716C711.5 720.694 707.247 724.5 702 724.5C707.247 724.5 711.5 728.306 711.5 733C711.5 728.306 715.753 724.5 721 724.5C715.757 724.5 711.5 720.694 711.5 716Z" fill="#E51E3A"/>
<path opacity="0.5" d="M834.5 36C834.5 40.6945 830.247 44.5 825 44.5C830.247 44.5 834.5 48.3055 834.5 53C834.5 48.3055 838.753 44.5 844 44.5C838.757 44.5 834.5 40.6945 834.5 36Z" fill="#E51E3A"/>
<path opacity="0.5" d="M456.5 44C456.5 48.6945 452.247 52.5 447 52.5C452.247 52.5 456.5 56.3055 456.5 61C456.5 56.3055 460.753 52.5 466 52.5C460.757 52.5 456.5 48.6945 456.5 44Z" fill="#E51E3A"/>
<path opacity="0.5" d="M951.5 188C951.5 192.694 947.247 196.5 942 196.5C947.247 196.5 951.5 200.306 951.5 205C951.5 200.306 955.753 196.5 961 196.5C955.757 196.5 951.5 192.694 951.5 188Z" fill="#E51E3A"/>
<path opacity="0.5" d="M1078.5 222C1078.5 226.694 1074.25 230.5 1069 230.5C1074.25 230.5 1078.5 234.306 1078.5 239C1078.5 234.306 1082.75 230.5 1088 230.5C1082.76 230.5 1078.5 226.694 1078.5 222Z" fill="#E51E3A"/>
<path opacity="0.5" d="M1331.5 65C1331.5 69.694 1327.25 73.5 1322 73.5C1327.25 73.5 1331.5 77.306 1331.5 82C1331.5 77.306 1335.75 73.5 1341 73.5C1335.76 73.5 1331.5 69.694 1331.5 65Z" fill="#E51E3A"/>
<path opacity="0.5" d="M1042.5 19C1042.5 23.694 1038.25 27.5 1033 27.5C1038.25 27.5 1042.5 31.306 1042.5 36C1042.5 31.306 1046.75 27.5 1052 27.5C1046.76 27.5 1042.5 23.694 1042.5 19Z" fill="#E51E3A"/>
<path opacity="0.5" d="M1154.5 721C1154.5 725.694 1150.25 729.5 1145 729.5C1150.25 729.5 1154.5 733.306 1154.5 738C1154.5 733.306 1158.75 729.5 1164 729.5C1158.76 729.5 1154.5 725.694 1154.5 721Z" fill="#E51E3A"/>
<path opacity="0.5" d="M1295.5 793C1295.5 797.694 1291.25 801.5 1286 801.5C1291.25 801.5 1295.5 805.306 1295.5 810C1295.5 805.306 1299.75 801.5 1305 801.5C1299.76 801.5 1295.5 797.694 1295.5 793Z" fill="#E51E3A"/>
<path opacity="0.5" d="M1251.5 143C1251.5 147.694 1247.25 151.5 1242 151.5C1247.25 151.5 1251.5 155.306 1251.5 160C1251.5 155.306 1255.75 151.5 1261 151.5C1255.76 151.5 1251.5 147.694 1251.5 143Z" fill="#E51E3A"/>
<path d="M115.5 552C115.5 555.038 113.038 557.5 110 557.5C113.038 557.5 115.5 559.962 115.5 563C115.5 559.962 117.962 557.5 121 557.5C117.965 557.5 115.5 555.038 115.5 552Z" fill="#E51E3A"/>
<path d="M87.5 785C87.5 790.799 82.7991 795.5 77 795.5C82.7991 795.5 87.5 800.201 87.5 806C87.5 800.201 92.2009 795.5 98 795.5C92.2056 795.5 87.5 790.799 87.5 785Z" fill="#E51E3A"/>
<path d="M1322 733C1322 742.389 1314.39 750 1305 750C1314.39 750 1322 757.611 1322 767C1322 757.611 1329.61 750 1339 750C1329.62 750 1322 742.389 1322 733Z" fill="#E51E3A"/>
<path d="M1347 205C1347 209.418 1343.42 213 1339 213C1343.42 213 1347 216.582 1347 221C1347 216.582 1350.58 213 1355 213C1350.59 213 1347 209.418 1347 205Z" fill="#E51E3A"/>
<path d="M1373.47 193C1373.47 194.92 1371.91 196.47 1370 196.47C1371.92 196.47 1373.47 198.03 1373.47 199.94C1373.47 198.02 1375.03 196.47 1376.94 196.47C1375.03 196.47 1373.47 194.92 1373.47 193Z" fill="#E51E3A"/>
<path opacity="0.8" d="M-0.5 -23C-0.5 -15.5458 -6.54564 -9.5 -14 -9.5C-6.54564 -9.5 -0.5 -3.45425 -0.5 4C-0.5 -3.45425 5.54564 -9.5 13 -9.5C5.54564 -9.5 -0.5 -15.5458 -0.5 -23Z" fill="#E51E3A"/>
</g>
<defs>
<clipPath id="clip0">
<rect width="1373" height="819" fill="white"/>
</clipPath>
</defs>
</svg>
