<svg width="1440" height="1800" viewBox="0 0 1440 1800" fill="none" xmlns="http://www.w3.org/2000/svg">
<g clip-path="url(#clip0)">
<path d="M1440 0H0V1799.16H1440V0Z" fill="#000017"/>
<path d="M721 512.5C757.451 512.5 787 482.951 787 446.5C787 410.049 757.451 380.5 721 380.5C684.549 380.5 655 410.049 655 446.5C655 482.951 684.549 512.5 721 512.5Z" fill="url(#paint0_radial)"/>
<path d="M721 829.5C757.451 829.5 787 799.951 787 763.5C787 727.049 757.451 697.5 721 697.5C684.549 697.5 655 727.049 655 763.5C655 799.951 684.549 829.5 721 829.5Z" fill="url(#paint1_radial)"/>
<path d="M719 1418.5C755.451 1418.5 785 1388.95 785 1352.5C785 1316.05 755.451 1286.5 719 1286.5C682.549 1286.5 653 1316.05 653 1352.5C653 1388.95 682.549 1418.5 719 1418.5Z" fill="url(#paint2_radial)"/>
<path d="M721 1147.5C757.451 1147.5 787 1117.95 787 1081.5C787 1045.05 757.451 1015.5 721 1015.5C684.549 1015.5 655 1045.05 655 1081.5C655 1117.95 684.549 1147.5 721 1147.5Z" fill="url(#paint3_radial)"/>
<path d="M721 512.5C757.451 512.5 787 482.951 787 446.5C787 410.049 757.451 380.5 721 380.5C684.549 380.5 655 410.049 655 446.5C655 482.951 684.549 512.5 721 512.5Z" stroke="white" stroke-miterlimit="10"/>
<path d="M721.5 830C757.951 830 787.5 800.451 787.5 764C787.5 727.549 757.951 698 721.5 698C685.049 698 655.5 727.549 655.5 764C655.5 800.451 685.049 830 721.5 830Z" stroke="white" stroke-width="0.25" stroke-miterlimit="10"/>
<g opacity="0.44">
<g style="mix-blend-mode:hard-light" opacity="0.76">
<path d="M720 1018.5C950.579 1018.5 1137.5 831.579 1137.5 601C1137.5 370.421 950.579 183.5 720 183.5C489.421 183.5 302.5 370.421 302.5 601C302.5 831.579 489.421 1018.5 720 1018.5Z" fill="url(#paint4_radial)"/>
</g>
<g style="mix-blend-mode:hard-light" opacity="0.7">
<path d="M720 1065C968.528 1065 1170 863.528 1170 615C1170 366.472 968.528 165 720 165C471.472 165 270 366.472 270 615C270 863.528 471.472 1065 720 1065Z" fill="url(#paint5_radial)"/>
</g>
<g style="mix-blend-mode:hard-light" opacity="0.76">
<path d="M720 1587.5C950.579 1587.5 1137.5 1400.58 1137.5 1170C1137.5 939.421 950.579 752.5 720 752.5C489.421 752.5 302.5 939.421 302.5 1170C302.5 1400.58 489.421 1587.5 720 1587.5Z" fill="url(#paint6_radial)"/>
</g>
<g style="mix-blend-mode:hard-light" opacity="0.7">
<path d="M720 1634C968.528 1634 1170 1432.53 1170 1184C1170 935.472 968.528 734 720 734C471.472 734 270 935.472 270 1184C270 1432.53 471.472 1634 720 1634Z" fill="url(#paint7_radial)"/>
</g>
<g style="mix-blend-mode:hard-light" opacity="0.76">
<path d="M720 1310.5C950.579 1310.5 1137.5 1123.58 1137.5 893C1137.5 662.421 950.579 475.5 720 475.5C489.421 475.5 302.5 662.421 302.5 893C302.5 1123.58 489.421 1310.5 720 1310.5Z" fill="url(#paint8_radial)"/>
</g>
<g style="mix-blend-mode:hard-light" opacity="0.7">
<path d="M720 1357C968.528 1357 1170 1155.53 1170 907C1170 658.472 968.528 457 720 457C471.472 457 270 658.472 270 907C270 1155.53 471.472 1357 720 1357Z" fill="url(#paint9_radial)"/>
</g>
<g style="mix-blend-mode:hard-light" opacity="0.76">
<path d="M722 846.5C952.579 846.5 1139.5 659.579 1139.5 429C1139.5 198.421 952.579 11.5 722 11.5C491.421 11.5 304.5 198.421 304.5 429C304.5 659.579 491.421 846.5 722 846.5Z" fill="url(#paint10_radial)"/>
</g>
<g style="mix-blend-mode:hard-light" opacity="0.7">
<path d="M722 893C970.528 893 1172 691.528 1172 443C1172 194.472 970.528 -7 722 -7C473.472 -7 272 194.472 272 443C272 691.528 473.472 893 722 893Z" fill="url(#paint11_radial)"/>
</g>
<g style="mix-blend-mode:hard-light" opacity="0.5">
<path d="M719.5 1016C1051.15 1016 1320 747.371 1320 416C1320 84.6292 1051.15 -184 719.5 -184C387.853 -184 119 84.6292 119 416C119 747.371 387.853 1016 719.5 1016Z" fill="url(#paint12_radial)"/>
</g>
</g>
</g>
<defs>
<radialGradient id="paint0_radial" cx="0" cy="0" r="1" gradientUnits="userSpaceOnUse" gradientTransform="translate(721 446.5) scale(66)">
<stop stop-color="#F7A278"/>
<stop offset="0.0838" stop-color="#F7A06F"/>
<stop offset="0.223" stop-color="#F79C55"/>
<stop offset="0.3995" stop-color="#F7952C"/>
<stop offset="0.4535" stop-color="#F7931E"/>
<stop offset="0.9944" stop-color="#DE1C24"/>
</radialGradient>
<radialGradient id="paint1_radial" cx="0" cy="0" r="1" gradientUnits="userSpaceOnUse" gradientTransform="translate(721 763.5) scale(91.8513)">
<stop stop-color="#CCE0F4"/>
<stop offset="0.0762" stop-color="#CFDBEB"/>
<stop offset="0.2028" stop-color="#D9CDD1"/>
<stop offset="0.3643" stop-color="#E8B5A8"/>
<stop offset="0.5527" stop-color="#FD966F"/>
<stop offset="0.5674" stop-color="#FF936A"/>
<stop offset="0.9944" stop-color="#685372"/>
</radialGradient>
<radialGradient id="paint2_radial" cx="0" cy="0" r="1" gradientUnits="userSpaceOnUse" gradientTransform="translate(719 1352.5) scale(66)">
<stop stop-color="#29ABE2"/>
<stop offset="0.0667" stop-color="#29A2DC"/>
<stop offset="0.1777" stop-color="#2A88CB"/>
<stop offset="0.3182" stop-color="#2C5FB0"/>
<stop offset="0.4535" stop-color="#2E3192"/>
<stop offset="0.9944" stop-color="#1B1464"/>
</radialGradient>
<radialGradient id="paint3_radial" cx="0" cy="0" r="1" gradientUnits="userSpaceOnUse" gradientTransform="translate(721 1081.5) scale(66)">
<stop stop-color="#C7B299"/>
<stop offset="0.2192" stop-color="#C3AB90"/>
<stop offset="0.5836" stop-color="#B79876"/>
<stop offset="0.9944" stop-color="#A67C52"/>
</radialGradient>
<radialGradient id="paint4_radial" cx="0" cy="0" r="1" gradientUnits="userSpaceOnUse" gradientTransform="translate(720 601) scale(417.5)">
<stop offset="4.1024e-07" stop-color="#D4145A"/>
<stop offset="0.114" stop-color="#D92164" stop-opacity="0.886"/>
<stop offset="0.716" stop-color="#F46298" stop-opacity="0.284"/>
<stop offset="1" stop-color="#FF7BAC" stop-opacity="0"/>
</radialGradient>
<radialGradient id="paint5_radial" cx="0" cy="0" r="1" gradientUnits="userSpaceOnUse" gradientTransform="translate(720 615) scale(450)">
<stop offset="1.38522e-07" stop-color="#FF6CE0"/>
<stop offset="0.0284" stop-color="#FF6DDC" stop-opacity="0.9716"/>
<stop offset="0.2098" stop-color="#FF73C7" stop-opacity="0.7902"/>
<stop offset="0.4115" stop-color="#FF78B8" stop-opacity="0.5885"/>
<stop offset="0.6474" stop-color="#FF7AAF" stop-opacity="0.3526"/>
<stop offset="1" stop-color="#FF7BAC" stop-opacity="0"/>
</radialGradient>
<radialGradient id="paint6_radial" cx="0" cy="0" r="1" gradientUnits="userSpaceOnUse" gradientTransform="translate(720 1170) scale(417.5)">
<stop offset="4.1024e-07" stop-color="#D4145A"/>
<stop offset="0.114" stop-color="#D92164" stop-opacity="0.886"/>
<stop offset="0.716" stop-color="#F46298" stop-opacity="0.284"/>
<stop offset="1" stop-color="#FF7BAC" stop-opacity="0"/>
</radialGradient>
<radialGradient id="paint7_radial" cx="0" cy="0" r="1" gradientUnits="userSpaceOnUse" gradientTransform="translate(720 1184) scale(450)">
<stop offset="1.38522e-07" stop-color="#FF6CE0"/>
<stop offset="0.0284" stop-color="#FF6DDC" stop-opacity="0.9716"/>
<stop offset="0.2098" stop-color="#FF73C7" stop-opacity="0.7902"/>
<stop offset="0.4115" stop-color="#FF78B8" stop-opacity="0.5885"/>
<stop offset="0.6474" stop-color="#FF7AAF" stop-opacity="0.3526"/>
<stop offset="1" stop-color="#FF7BAC" stop-opacity="0"/>
</radialGradient>
<radialGradient id="paint8_radial" cx="0" cy="0" r="1" gradientUnits="userSpaceOnUse" gradientTransform="translate(720 893) scale(417.5)">
<stop offset="4.1024e-07" stop-color="#D4145A"/>
<stop offset="0.114" stop-color="#D92164" stop-opacity="0.886"/>
<stop offset="0.716" stop-color="#F46298" stop-opacity="0.284"/>
<stop offset="1" stop-color="#FF7BAC" stop-opacity="0"/>
</radialGradient>
<radialGradient id="paint9_radial" cx="0" cy="0" r="1" gradientUnits="userSpaceOnUse" gradientTransform="translate(720 907) scale(450)">
<stop offset="1.38522e-07" stop-color="#FF6CE0"/>
<stop offset="0.0284" stop-color="#FF6DDC" stop-opacity="0.9716"/>
<stop offset="0.2098" stop-color="#FF73C7" stop-opacity="0.7902"/>
<stop offset="0.4115" stop-color="#FF78B8" stop-opacity="0.5885"/>
<stop offset="0.6474" stop-color="#FF7AAF" stop-opacity="0.3526"/>
<stop offset="1" stop-color="#FF7BAC" stop-opacity="0"/>
</radialGradient>
<radialGradient id="paint10_radial" cx="0" cy="0" r="1" gradientUnits="userSpaceOnUse" gradientTransform="translate(722 429) scale(417.5)">
<stop offset="4.1024e-07" stop-color="#D4145A"/>
<stop offset="0.114" stop-color="#D92164" stop-opacity="0.886"/>
<stop offset="0.716" stop-color="#F46298" stop-opacity="0.284"/>
<stop offset="1" stop-color="#FF7BAC" stop-opacity="0"/>
</radialGradient>
<radialGradient id="paint11_radial" cx="0" cy="0" r="1" gradientUnits="userSpaceOnUse" gradientTransform="translate(722 443) scale(450)">
<stop offset="1.38522e-07" stop-color="#FF6CE0"/>
<stop offset="0.0284" stop-color="#FF6DDC" stop-opacity="0.9716"/>
<stop offset="0.2098" stop-color="#FF73C7" stop-opacity="0.7902"/>
<stop offset="0.4115" stop-color="#FF78B8" stop-opacity="0.5885"/>
<stop offset="0.6474" stop-color="#FF7AAF" stop-opacity="0.3526"/>
<stop offset="1" stop-color="#FF7BAC" stop-opacity="0"/>
</radialGradient>
<radialGradient id="paint12_radial" cx="0" cy="0" r="1" gradientUnits="userSpaceOnUse" gradientTransform="translate(719.475 416.012) scale(600.479 600.012)">
<stop offset="1.90735e-06" stop-color="#660094"/>
<stop offset="0.379" stop-color="#A5339E" stop-opacity="0.621"/>
<stop offset="0.8007" stop-color="#E667A8" stop-opacity="0.1993"/>
<stop offset="1" stop-color="#FF7BAC" stop-opacity="0"/>
</radialGradient>
<clipPath id="clip0">
<rect width="1440" height="1799.16" fill="white"/>
</clipPath>
</defs>
</svg>
