<svg width="1373" height="819" viewBox="0 0 1373 819" fill="none" xmlns="http://www.w3.org/2000/svg">
<path d="M686.95 -10C686.95 -6.69 684.26 -4 680.95 -4C684.26 -4 686.95 -1.31 686.95 2C686.95 -1.31 689.64 -4 692.95 -4C689.63 -4 686.95 -6.69 686.95 -10Z" fill="#E51E3A"/>
<path d="M568.97 683C568.97 687.4 565.4 690.97 561 690.97C565.4 690.97 568.97 694.54 568.97 698.94C568.97 694.54 572.54 690.97 576.94 690.97C572.54 690.97 568.97 687.4 568.97 683Z" fill="#E51E3A"/>
<path opacity="0.7" d="M927 514C927 520.08 922.08 525 916 525C922.08 525 927 529.92 927 536C927 529.92 931.92 525 938 525C931.92 525 927 520.08 927 514Z" fill="#E51E3A"/>
<path opacity="0.7" d="M1120 576C1120 582.08 1115.08 587 1109 587C1115.08 587 1120 591.92 1120 598C1120 591.92 1124.92 587 1131 587C1124.92 587 1120 582.08 1120 576Z" fill="#E51E3A"/>
<path opacity="0.7" d="M1311 254C1311 260.08 1306.08 265 1300 265C1306.08 265 1311 269.92 1311 276C1311 269.92 1315.92 265 1322 265C1315.92 265 1311 260.08 1311 254Z" fill="#E51E3A"/>
<path d="M1216.47 160C1216.47 172.41 1206.41 182.47 1194 182.47C1206.41 182.47 1216.47 192.53 1216.47 204.94C1216.47 192.53 1226.53 182.47 1238.94 182.47C1226.54 182.47 1216.47 172.41 1216.47 160Z" fill="#E51E3A"/>
<path d="M119.47 77C119.47 84.99 112.99 91.47 105 91.47C112.99 91.47 119.47 97.95 119.47 105.94C119.47 97.95 125.95 91.47 133.94 91.47C125.95 91.47 119.47 84.99 119.47 77Z" fill="#E51E3A"/>
<path opacity="0.8" d="M81 123C81 136.252 70.2522 147 57 147C70.2522 147 81 157.748 81 171C81 157.748 91.7478 147 105 147C91.7478 147 81 136.252 81 123Z" fill="#E51E3A"/>
<path opacity="0.8" d="M288.5 73C288.5 82.1109 281.111 89.5 272 89.5C281.111 89.5 288.5 96.8891 288.5 106C288.5 96.8891 295.889 89.5 305 89.5C295.889 89.5 288.5 82.1109 288.5 73Z" fill="#E51E3A"/>
<path d="M138.93 202C138.93 204.72 136.72 206.93 134 206.93C136.72 206.93 138.93 209.14 138.93 211.86C138.93 209.14 141.14 206.93 143.86 206.93C141.13 206.93 138.93 204.72 138.93 202Z" fill="#E51E3A"/>
<path d="M289.45 14C289.45 17.59 286.54 20.5 282.95 20.5C286.54 20.5 289.45 23.41 289.45 27C289.45 23.41 292.36 20.5 295.95 20.5C292.36 20.5 289.45 17.59 289.45 14Z" fill="#E51E3A"/>
<path d="M1008.97 694C1008.97 696.19 1007.19 697.97 1005 697.97C1007.19 697.97 1008.97 699.75 1008.97 701.94C1008.97 699.75 1010.75 697.97 1012.94 697.97C1010.75 697.97 1008.97 696.19 1008.97 694Z" fill="#E51E3A"/>
<path d="M835.47 726C835.47 727.92 833.91 729.47 832 729.47C833.92 729.47 835.47 731.03 835.47 732.94C835.47 731.02 837.03 729.47 838.94 729.47C837.03 729.47 835.47 727.92 835.47 726Z" fill="#E51E3A"/>
<path d="M784.47 632C784.47 633.92 782.91 635.47 781 635.47C782.92 635.47 784.47 637.03 784.47 638.94C784.47 637.02 786.03 635.47 787.94 635.47C786.03 635.47 784.47 633.92 784.47 632Z" fill="#E51E3A"/>
<path d="M388.47 718C388.47 719.92 386.91 721.47 385 721.47C386.92 721.47 388.47 723.03 388.47 724.94C388.47 723.02 390.03 721.47 391.94 721.47C390.03 721.47 388.47 719.92 388.47 718Z" fill="#E51E3A"/>
<path d="M320.47 629C320.47 630.92 318.91 632.47 317 632.47C318.92 632.47 320.47 634.03 320.47 635.94C320.47 634.02 322.03 632.47 323.94 632.47C322.03 632.47 320.47 630.92 320.47 629Z" fill="#E51E3A"/>
<path d="M798.47 269C798.47 270.92 796.91 272.47 795 272.47C796.92 272.47 798.47 274.03 798.47 275.94C798.47 274.02 800.03 272.47 801.94 272.47C800.03 272.47 798.47 270.92 798.47 269Z" fill="#E51E3A"/>
<path d="M938.47 182C938.47 183.92 936.91 185.47 935 185.47C936.92 185.47 938.47 187.03 938.47 188.94C938.47 187.02 940.03 185.47 941.94 185.47C940.03 185.47 938.47 183.92 938.47 182Z" fill="#E51E3A"/>
<path opacity="0.5" d="M379.5 571C379.5 578.456 372.561 584.5 364 584.5C372.561 584.5 379.5 590.544 379.5 598C379.5 590.544 386.439 584.5 395 584.5C386.446 584.5 379.5 578.456 379.5 571Z" fill="#E51E3A"/>
<path opacity="0.5" d="M15.5 536C15.5 543.456 8.56054 549.5 0 549.5C8.56054 549.5 15.5 555.544 15.5 563C15.5 555.544 22.4395 549.5 31 549.5C22.4464 549.5 15.5 543.456 15.5 536Z" fill="#E51E3A"/>
<path opacity="0.5" d="M466 656C466 658.485 463.761 660.5 461 660.5C463.761 660.5 466 662.515 466 665C466 662.515 468.239 660.5 471 660.5C468.241 660.5 466 658.485 466 656Z" fill="#E51E3A"/>
<path opacity="0.5" d="M711.5 716C711.5 720.694 707.247 724.5 702 724.5C707.247 724.5 711.5 728.306 711.5 733C711.5 728.306 715.753 724.5 721 724.5C715.757 724.5 711.5 720.694 711.5 716Z" fill="#E51E3A"/>
<path opacity="0.5" d="M834.5 36C834.5 40.6945 830.247 44.5 825 44.5C830.247 44.5 834.5 48.3055 834.5 53C834.5 48.3055 838.753 44.5 844 44.5C838.757 44.5 834.5 40.6945 834.5 36Z" fill="#E51E3A"/>
<path opacity="0.5" d="M456.5 44C456.5 48.6945 452.247 52.5 447 52.5C452.247 52.5 456.5 56.3055 456.5 61C456.5 56.3055 460.753 52.5 466 52.5C460.757 52.5 456.5 48.6945 456.5 44Z" fill="#E51E3A"/>
<path opacity="0.5" d="M944.5 185C944.5 189.694 940.247 193.5 935 193.5C940.247 193.5 944.5 197.306 944.5 202C944.5 197.306 948.753 193.5 954 193.5C948.757 193.5 944.5 189.694 944.5 185Z" fill="#E51E3A"/>
<path opacity="0.5" d="M1078.5 222C1078.5 226.694 1074.25 230.5 1069 230.5C1074.25 230.5 1078.5 234.306 1078.5 239C1078.5 234.306 1082.75 230.5 1088 230.5C1082.76 230.5 1078.5 226.694 1078.5 222Z" fill="#E51E3A"/>
<path opacity="0.5" d="M1154.5 721C1154.5 725.694 1150.25 729.5 1145 729.5C1150.25 729.5 1154.5 733.306 1154.5 738C1154.5 733.306 1158.75 729.5 1164 729.5C1158.76 729.5 1154.5 725.694 1154.5 721Z" fill="#E51E3A"/>
<path opacity="0.5" d="M1295.5 793C1295.5 797.694 1291.25 801.5 1286 801.5C1291.25 801.5 1295.5 805.306 1295.5 810C1295.5 805.306 1299.75 801.5 1305 801.5C1299.76 801.5 1295.5 797.694 1295.5 793Z" fill="#E51E3A"/>
<path opacity="0.5" d="M1314.5 255C1314.5 259.694 1310.25 263.5 1305 263.5C1310.25 263.5 1314.5 267.306 1314.5 272C1314.5 267.306 1318.75 263.5 1324 263.5C1318.76 263.5 1314.5 259.694 1314.5 255Z" fill="#E51E3A"/>
<path d="M115.5 552C115.5 555.038 113.038 557.5 110 557.5C113.038 557.5 115.5 559.962 115.5 563C115.5 559.962 117.962 557.5 121 557.5C117.965 557.5 115.5 555.038 115.5 552Z" fill="#E51E3A"/>
<path d="M81 785C81 794.389 73.389 802 64 802C73.389 802 81 809.611 81 819C81 809.611 88.611 802 98 802C88.6186 802 81 794.389 81 785Z" fill="#E51E3A"/>
<path d="M1322 733C1322 742.389 1314.39 750 1305 750C1314.39 750 1322 757.611 1322 767C1322 757.611 1329.61 750 1339 750C1329.62 750 1322 742.389 1322 733Z" fill="#E51E3A"/>
<path d="M1356 205C1356 214.389 1348.39 222 1339 222C1348.39 222 1356 229.611 1356 239C1356 229.611 1363.61 222 1373 222C1363.62 222 1356 214.389 1356 205Z" fill="#E51E3A"/>
</svg>
