<svg width="1837" height="1836" viewBox="0 0 1837 1836" fill="none" xmlns="http://www.w3.org/2000/svg">
<path d="M0 918C0 1424.99 411.218 1836 918.5 1836C1425.78 1836 1837 1424.99 1837 918C1837 411.007 1425.77 0 918.5 0C411.233 0 0 411.007 0 918ZM1039.69 918C1039.69 984.942 985.422 1039.22 918.5 1039.22C851.577 1039.22 797.314 984.942 797.314 918C797.314 851.058 851.577 796.779 918.5 796.779C985.422 796.779 1039.69 851.058 1039.69 918Z" fill="#000017"/>
<path opacity="0.9" d="M918.5 239C543.22 239 239 543.22 239 918.5C239 1293.78 543.22 1598 918.5 1598C1293.78 1598 1598 1293.78 1598 918.5C1598 543.22 1293.78 239 918.5 239ZM916.235 1041.9C849.342 1041.9 795.103 987.658 795.103 920.765C795.103 853.872 849.342 799.633 916.235 799.633C983.128 799.633 1037.37 853.872 1037.37 920.765C1037.37 987.658 983.128 1041.9 916.235 1041.9Z" fill="url(#paint0_radial)"/>
<defs>
<radialGradient id="paint0_radial" cx="0" cy="0" r="1" gradientUnits="userSpaceOnUse" gradientTransform="translate(918.5 918.5) scale(679.5)">
<stop stop-color="#D7006C"/>
<stop offset="0.239583" stop-color="#7D003B" stop-opacity="0.87"/>
<stop offset="0.578125" stop-color="#3B0028" stop-opacity="0.66"/>
<stop offset="1" stop-color="#000019" stop-opacity="0.62"/>
</radialGradient>
</defs>
</svg>
