<svg xmlns="http://www.w3.org/2000/svg" viewBox="0 0 420.92 491.204">
  <defs>
    <style>
      .cls-1 {
        isolation: isolate;
      }

      .cls-2, .cls-3, .cls-4, .cls-6 {
        fill: #39dfff;
      }

      .cls-2, .cls-4, .cls-6 {
        stroke: #39dfff;
        stroke-miterlimit: 10;
      }

      .cls-2 {
        opacity: 0.46;
      }

      .cls-4, .cls-6 {
        opacity: 0.65;
      }

      .cls-5 {
        opacity: 0.5;
        mix-blend-mode: overlay;
      }

      .cls-6 {
        stroke-width: 2px;
        mix-blend-mode: lighten;
      }
    </style>
  </defs>
  <g class="cls-1">
    <g id="ЦГ1">
      <g id="Слой_50" data-name="Слой 50">
        <g id="Слой_62" data-name="Слой 62">
          <g id="Слой_61" data-name="Слой 61">
            <path class="cls-2" d="M104.2237,72.1942a42.0541,42.0541,0,0,1,64.1232,12.5835,42.0433,42.0433,0,1,0-78.4546,27.5572A42.0235,42.0235,0,0,1,104.2237,72.1942Z"/>
            <path class="cls-2" d="M329.6626,277.4553a42.0539,42.0539,0,0,1,47.5532,44.82,42.0433,42.0433,0,1,0-81.0715-18.4912A42.0234,42.0234,0,0,1,329.6626,277.4553Z"/>
          </g>
          <g id="Слой_64" data-name="Слой 64">
            <path class="cls-3" d="M438.5381,439.7459c-34.0263-22.84-56.8464-47.766-64.5849-71.3417a57.3362,57.3362,0,0,1,3.6-45.6949c6.8428-13.2568,5.4238-27.8462-3.8926-40.0268-10.7246-14.022-29.3232-21.4317-45.2353-18.0117-15.959,3.4282-27.4717,16.96-32.417,38.103-5.4385,23.2549-1.5078,46.0058,12.0175,69.5532l.65-.3735c-13.4267-23.375-17.331-45.9478-11.9375-69.0088,4.875-20.8443,16.1846-34.1768,31.8448-37.5405,15.6347-3.3619,33.9257,3.9345,44.4814,17.7338,9.1328,11.941,10.5264,26.2388,3.8223,39.2276A58.0629,58.0629,0,0,0,373.24,368.638c7.8193,23.8216,30.9011,48.9886,65.2978,72.0042Z"/>
            <path class="cls-3" d="M438.5381,110.0932c-43.9028-10.7277-79.7016-27.4118-95.7314-56.5977C327.6446,25.889,331.3174-10.15,354.0352-56.68l-1.7969-.8775C329.2139-10.4,325.5557,26.24,341.0538,54.4579c16.4074,29.8742,52.8748,46.8338,97.4843,57.6849Z"/>
            <path class="cls-4" d="M438.5381,120.7433c-10.8856-3.1749-20.7692-6.2461-28.9-8.9323C313.6368,80.0964,283.6365,22.6673,336.78-60.4764c7.0909-11.0936-13.523-25.1233-11.143-40.2861-2.5962-5.3573-23.8877,19.3291-38.5718,46.2862-57.4291,105.43,32.5718,150.0014,134.5728,176.5731,5.4836,1.4286,11.1342,2.9115,16.9,4.4081Z"/>
            <path class="cls-5" d="M440.5381,145.3456A422.6338,422.6338,0,0,0,349.82,119.0224C115.9656,78.18,184.5381-21.3976,213.5381-27.3976l-92.3421,1.619C23.5486,9.7417-25.0183,124.9875,109.6338,170.5052c50.69,17.135,119.0694,25.9079,229.2706,3.7473,45.7574-9.2014,78.0144-7.4085,101.6337.8Z"/>
            <path class="cls-6" d="M129.196-24.7786l-31.5828-61.42S-.398-6.4636,1.0151,71.3937c1.6089,88.6414,137.55,106.7655,137.55,106.7655C-58.2036,131.8738,64.9393-14.9749,129.196-24.7786Z"/>
            <path class="cls-6" d="M438.5381,170.6024c-28-20-148,13-148,13s79.6281-3.8651,96-1c40,7,41,41,17,46-26.36,5.4916-64.54-17.6349-74-20-32-8-59.0242-5.6862-80,29-45.8767,75.8632,85,165,85,165-141.8337-144.0255-10-208,97-149,0,0,2.9983,2.4686,7,5.2924Z"/>
            <path class="cls-5" d="M441.5381-62.8785l-89.901,5.2593c-52.86,108.2678,4.0627,149.3408,89.901,169.2785Z"/>
            <path class="cls-5" d="M455.5381,275.6024c-9.7766-14.78-29-12.2671-29-22-95-47-165.5712,13.3-127.8577,98.7911,7.9614,18.0474,23.088,35.6584,41.2995,51.9232,32.7929,29.2875,75.5817,54.2054,104.5582,69.4517Z"/>
          </g>
          <g id="Слой_55" data-name="Слой 55">
            <path class="cls-3" d="M251.3116,181.1883c-43.458,0-101.0674-4.831-134.3076-27.2461C91.69,136.8714,72.12,120.8182,69.5391,83.1366c-2.0859-30.4619,21.5694-52.2432,44.6836-54.9541,21.541-2.53,47.2432,10.9482,54.8086,56.3379l-.9863.164c-7.45-44.6982-32.6328-57.98-53.7061-55.5088C91.6807,31.8334,68.4913,53.1937,70.5372,83.0682c2.55,37.23,21.94,53.1289,47.0254,70.0449,33.6845,22.7144,92.6865,27.2725,136.2988,27.0694a713.1539,713.1539,0,0,0,87.4717-5.9248l.1425.99a714.1666,714.1666,0,0,1-87.5976,5.9351C253.0294,181.1864,252.1719,181.1883,251.3116,181.1883Z"/>
            <path class="cls-3" d="M475.1075,491.204c-.8262-.3682-83.169-37.3018-137.294-85.6412-20.248-18.0839-34.2265-35.6689-41.5478-52.2656-16.8555-38.21-13.0635-74.2812,10.1455-96.4917,26.56-25.4165,72.1846-26.7959,119.07-3.6l.1025.0586,31.5,20.5-1.0918,1.6758-31.45-20.4678c-46.0948-22.7861-90.8252-21.53-116.7481,3.2783-22.5742,21.6031-26.2,56.8326-9.6982,94.2388,7.205,16.3345,21.0166,33.689,41.05,51.5815,53.8945,48.1329,135.9521,84.94,136.7744,85.3047Z"/>
            <path class="cls-3" d="M438.5381,154.5511c-31.4233-7.1882-66.7468-8.8255-105.7373-4.844-64.119,6.5505-115.9787-2.2-142.291-23.9993a57.3344,57.3344,0,0,1-21.292-40.5906c-1.2711-14.8646-10.2434-26.4561-24.6168-31.802-16.5461-6.1532-36.2347-2.5138-47.8785,8.852-11.68,11.4029-14.2154,28.9876-7.1382,49.5146,7.7834,22.5789,23.2287,39.74,47.2192,52.4637l.3518-.663c-23.8147-12.63-39.1428-29.6548-46.862-52.0451C83.3157,91.2,85.7855,73.8926,97.2466,62.7035,108.69,51.532,128.0557,47.9609,144.339,54.0183,158.43,59.2591,167.2249,70.6176,168.47,85.1814a58.0608,58.0608,0,0,0,21.5625,41.1039c26.4643,21.9265,78.5272,30.7359,142.8445,24.1679,38.9758-3.98,74.2752-2.3361,105.6613,4.8664Z"/>
            <path class="cls-3" d="M438.5381,173.0685c-25.4978-7.56-57.3414-7.337-97.331.7033-93.1543,18.7325-165.8428,17.5537-228.7529-3.7138-52.4961-17.7456-81.6436-48.1119-82.0713-85.5044-.2412-21.0337,8.9922-43.4971,25.998-63.2515C73.379,1.5575,97.4063-14.651,124.0381-24.3385l-.6835-1.88C96.4063-16.4157,72.0831-.0026,54.8653,19.9969,37.5411,40.121,28.1368,63.0555,28.3829,84.5765c.4384,38.3067,30.0683,69.3374,83.4306,87.376,63.2569,21.3828,136.2744,22.5845,229.7881,3.78,43.836-8.815,74.6083-7.3958,96.9365-.73Z"/>
            <path class="cls-3" d="M438.5381,142.8832a426.8192,426.8192,0,0,0-86.0468-24.3457c-144.917-25.31-167.2207-71.85-167.6172-97.34C184.4952-3.1466,203.502-23.2829,216.24-25.9181l-.4043-1.959C202.4522-25.108,182.48-4.11,182.8741,21.2289c.4062,26.1074,22.9375,73.7216,169.2734,99.2783a423.5863,423.5863,0,0,1,86.3906,24.6659Z"/>
          </g>
        </g>
      </g>
    </g>
  </g>
</svg>
