<svg xmlns="http://www.w3.org/2000/svg" viewBox="0 0 571.5381 593.204">
  <defs>
    <style>
      .cls-1 {
        isolation: isolate;
      }

      .cls-2 {
        opacity: 0.5;
        mix-blend-mode: overlay;
      }

      .cls-3, .cls-4, .cls-5, .cls-6 {
        fill: #39dfff;
      }

      .cls-3, .cls-4, .cls-5 {
        stroke: #39dfff;
        stroke-miterlimit: 10;
      }

      .cls-3, .cls-4 {
        opacity: 0.65;
      }

      .cls-4 {
        stroke-width: 2px;
        mix-blend-mode: lighten;
      }

      .cls-5 {
        opacity: 0.46;
      }
    </style>
  </defs>
  <g class="cls-1">
    <g id="ЦГ1">
      <g id="Слой_50" data-name="Слой 50">
        <g id="Слой_68" data-name="Слой 68">
          <g id="Слой_70" data-name="Слой 70">
            <path class="cls-2" d="M479.8692,386.1788c38.3385-24.2353,23.5749-59.7019,12.6115-74.2122-22.8482-30.24-61.1163-52.1005-147.5763-34.7141-110.2013,22.1606-178.5809,13.3878-229.2705-3.7473C-19.0183,227.9875,29.5486,112.7417,127.196,77.2213l92.3421-1.6189c-29,6-97.5726,105.578,136.2814,146.42,154.25,26.9394,262.2463,129.868,124.05,164.1563"/>
            <path class="cls-2" d="M430.5381,356.6024c56,56,173,76,173,76v161L481.014,592.79S398.6146,556.1112,343.98,507.3167c-18.2116-16.2648-33.3381-33.8758-41.3-51.9232-37.7135-85.491,32.8578-145.7911,127.8578-98.7911"/>
            <path class="cls-3" d="M415.6377,213.811c-96.001-31.7146-126.0013-89.1437-72.8579-172.2874C349.8706,30.43,329.2568,16.4,331.6369,1.2375,329.0405-4.12,307.749,20.5665,293.065,47.5236c-57.4291,105.43,32.5718,150.0015,134.5728,176.5732,44.0935,11.4866,98.9621,26.49,138.15,23.8424C526.9634,246.52,452.9065,226.1231,415.6377,213.811Z"/>
            <path class="cls-4" d="M129.196,77.2213c-64.2568,9.8038-187.4,156.6525,9.3687,202.9379,0,0-135.9407-18.1241-137.55-106.7655C-.398,95.5364,97.6132,15.8016,97.6132,15.8016Z"/>
            <path class="cls-5" d="M110.2237,174.1942a42.0537,42.0537,0,0,1,64.1231,12.5835,42.0433,42.0433,0,1,0-78.4545,27.5572A42.0233,42.0233,0,0,1,110.2237,174.1942Z"/>
            <path class="cls-4" d="M437.5381,355.6024c-107-59-238.8336,4.9746-97,149,0,0-130.8766-89.1368-85-165,20.9757-34.6861,48-37,80-29,9.46,2.3651,47.64,25.4916,74,20,24-5,23-39-17-46-16.3719-2.8651-96,1-96,1s121-30,149-10c4.1127,2.9376,37.736,23.4363,49,36,26,29,17,84-33,66C452.44,374.3269,437.5381,355.6024,437.5381,355.6024Z"/>
            <path class="cls-5" d="M335.6626,379.4553a42.0539,42.0539,0,0,1,47.5532,44.82,42.0433,42.0433,0,1,0-81.0715-18.4912A42.0234,42.0234,0,0,1,335.6626,379.4553Z"/>
            <g>
              <path class="cls-2" d="M589.5381,235.6024v-236l-194-7c-10,0-44.016,70.1869-46.7318,77.3747-47.49,125.6883,73.4042,147.9079,195.8327,161.6912C550.3831,232.315,584.0235,234.3743,589.5381,235.6024Z"/>
              <path class="cls-2" d="M487.0276,412.9548c-.13.0231-.2607.0428-.3911.0665l.4-.06Z"/>
            </g>
          </g>
          <g id="Слой_71" data-name="Слой 71">
            <path class="cls-6" d="M482.9034,386.5238l-1.0684-1.69c13.4463-8.5,21.4111-19.1119,23.6729-31.5415,2.8369-15.5879-3.99-31.5152-11.3252-41.2222-19.4864-25.7915-53.7539-53.0034-146.5811-34.3369-93.5137,18.8042-166.5312,17.6025-229.7881-3.78-53.3623-18.0386-82.9922-49.0693-83.4306-87.376-.2461-21.521,9.1582-44.4555,26.4824-64.58,17.2177-19.9995,41.541-36.4126,68.4892-46.2153l.6836,1.88c-26.6318,9.6875-50.6592,25.896-67.6572,45.6406C45.375,143.0565,36.1416,165.52,36.3829,186.5536c.4277,37.3925,29.5751,67.7588,82.0712,85.5044,62.91,21.2675,135.5987,22.4463,228.753,3.7138,40.4033-8.1235,72.5019-8.28,98.1308-.479,20.5938,6.2691,37.0928,17.9043,50.44,35.5708,7.5908,10.0459,14.6494,26.5616,11.6972,42.7867C505.1094,366.6527,496.8418,377.7132,482.9034,386.5238Z"/>
            <path class="cls-6" d="M482.61,386.6493l-.4824-1.9414c41.88-10.3907,63.6006-27.688,62.8154-50.0215-1.5254-43.39-87.0674-94.7617-186.7959-112.1792C211.8116,196.9505,189.28,149.3363,188.8741,123.2289,188.48,97.89,208.4522,76.892,221.836,74.1229l.4043,1.959c-12.7383,2.6352-31.7451,22.7715-31.3662,47.1157.3964,25.49,22.7,72.03,167.6172,97.34,49.541,8.6518,96.56,25.4936,132.3964,47.4223,34.8848,21.3467,55.3155,45.6416,56.0547,66.6563C547.5157,350.93,536.82,373.1991,482.61,386.6493Z"/>
            <path class="cls-6" d="M257.3116,283.1883c-43.458,0-101.0674-4.831-134.3077-27.2461C97.69,238.8714,78.12,222.8182,75.5391,185.1366c-2.0859-30.4619,21.5693-52.2432,44.6836-54.9541,21.541-2.53,47.2432,10.9482,54.8086,56.3379l-.9863.164c-7.45-44.6982-32.6328-57.98-53.7061-55.5088-22.6582,2.6578-45.8476,24.0181-43.8017,53.8926,2.55,37.23,21.94,53.1289,47.0253,70.0449,33.6846,22.7144,92.6866,27.2725,136.2989,27.0694a713.1489,713.1489,0,0,0,87.4716-5.9248l.1426.99a714.1666,714.1666,0,0,1-87.5976,5.9351C259.0293,283.1864,258.1719,283.1883,257.3116,283.1883Z"/>
            <path class="cls-6" d="M519.4258,290.0589c-45.8418-32.5336-106.584-45.1884-180.54-37.6152-64.3154,6.5864-116.3809-2.208-142.8516-24.1269A58.0616,58.0616,0,0,1,174.46,187.2191c-1.249-14.5635-10.0469-25.9194-24.14-31.1563-16.2852-6.0527-35.6495-2.476-47.09,8.6988-11.458,11.1924-13.9228,28.5005-6.9394,48.7358,7.7255,22.3882,23.0586,39.4082,46.8769,52.0318l-.3516.663c-23.9941-12.7172-39.4443-29.8735-47.2343-52.45-7.083-20.5249-4.5528-38.11,7.124-49.5166,11.6406-11.3691,31.3281-15.0141,47.876-8.8657,14.375,5.3418,23.3506,16.9307,24.6259,31.7949a57.3334,57.3334,0,0,0,21.3038,40.5845c26.3183,21.792,78.1806,30.5274,142.2978,23.9585,74.1455-7.5928,135.0567,5.1079,181.05,37.75Z"/>
            <path class="cls-6" d="M481.1075,593.204c-.8262-.3682-83.169-37.3018-137.294-85.6412-20.248-18.0839-34.2265-35.6689-41.5478-52.2656-16.8555-38.21-13.0635-74.2812,10.1455-96.4917,26.56-25.4165,72.1845-26.7959,119.07-3.6l.1025.0586,31.5,20.5-1.0918,1.6758-31.45-20.4678c-46.0947-22.7861-90.8252-21.53-116.748,3.2783-22.5742,21.6031-26.2,56.8326-9.6983,94.2388,7.2051,16.3345,21.0166,33.689,41.05,51.5815C399.04,554.204,481.0977,591.0106,481.92,591.3758Z"/>
            <path class="cls-6" d="M571.5381,235.4814v-2.0738a161.568,161.568,0,0,0-26.2871-5.2329c-84.4219-9.5044-169.1289-22.9453-196.4443-72.6792C333.6446,127.889,337.3174,91.85,360.0352,45.32l-1.7969-.8775C335.2139,91.6,331.5557,128.24,347.0538,156.4579c27.7753,50.5727,113.03,64.1411,197.9726,73.7041A159.7177,159.7177,0,0,1,571.5381,235.4814Z"/>
            <path class="cls-6" d="M526.5381,588.564a390.3414,390.3414,0,0,0-38.9453-22.0554c-57.75-28.6108-96.9834-63.64-107.64-96.1044a57.3362,57.3362,0,0,1,3.6-45.6949c6.8427-13.2568,5.4238-27.8462-3.8926-40.0268-10.7246-14.022-29.3232-21.4317-45.2354-18.0117-15.9589,3.4282-27.4716,16.96-32.4169,38.103-5.4385,23.2549-1.5079,46.0058,12.0175,69.5532l.65-.3735c-13.4267-23.375-17.331-45.9478-11.9375-69.0088,4.875-20.8443,16.1846-34.1768,31.8447-37.5405,15.6348-3.3619,33.9258,3.9345,44.4815,17.7338,9.1328,11.941,10.5264,26.2388,3.8223,39.2276A58.0624,58.0624,0,0,0,379.24,470.638c10.7187,32.6548,50.0908,67.8428,108.0205,96.5425a389.1022,389.1022,0,0,1,39.2773,22.2744Z"/>
          </g>
        </g>
      </g>
    </g>
  </g>
</svg>
