<svg id="Слой_1" data-name="Слой 1" xmlns="http://www.w3.org/2000/svg" viewBox="0 0 438.0762 515.204">
  <defs>
    <style>
      .cls-1 {
        opacity: 0.5;
      }

      .cls-1, .cls-2, .cls-3, .cls-4 {
        isolation: isolate;
      }

      .cls-2, .cls-3, .cls-4, .cls-5 {
        fill: #39dfff;
      }

      .cls-2, .cls-3, .cls-4 {
        stroke: #39dfff;
        stroke-miterlimit: 10;
      }

      .cls-2, .cls-3 {
        opacity: 0.65;
      }

      .cls-3 {
        stroke-width: 2px;
      }

      .cls-4 {
        opacity: 0.46;
      }
    </style>
  </defs>
  <g id="ЦГ1">
    <g id="Слой_50" data-name="Слой 50">
      <g id="Слой_68" data-name="Слой 68">
        <g id="Слой_70" data-name="Слой 70">
          <path class="cls-1" d="M479.8692,308.1788c38.3385-24.2353,23.5749-59.7019,12.6115-74.2122-22.8482-30.24-61.1163-52.1005-147.5763-34.7141-110.2013,22.1606-178.5809,13.3878-229.2705-3.7473C-19.0183,149.9875,29.5486,34.7417,127.196-.7787l92.3421-1.6189c-29,6-97.5726,105.578,136.2814,146.42C510.07,170.9618,618.0658,273.89,479.87,308.1787"/>
          <path class="cls-1" d="M430.5381,278.6024c56,56,173,76,173,76v161L481.014,514.79s-82.3994-36.6788-137.034-85.4733c-18.2116-16.2648-33.3381-33.8758-41.3-51.9232-37.7135-85.491,32.8578-145.7911,127.8578-98.7911"/>
          <path class="cls-2" d="M415.6377,135.811C319.6367,104.0964,289.6364,46.6673,342.78-36.4764,349.8706-47.57,329.2568-61.6,331.6369-76.7625c-2.5964-5.3575-23.8879,19.329-38.5719,46.2861-57.4291,105.43,32.5718,150.0015,134.5728,176.5732,44.0935,11.4866,98.9621,26.49,138.15,23.8424C526.9634,168.52,452.9065,148.1231,415.6377,135.811Z"/>
          <path class="cls-3" d="M129.196-.7787c-64.2568,9.8038-187.4,156.6525,9.3687,202.9379,0,0-135.9407-18.1241-137.55-106.7655C-.398,17.5364,97.6132-62.1984,97.6132-62.1984Z"/>
          <path class="cls-4" d="M110.2237,96.1942a42.0536,42.0536,0,0,1,64.1231,12.5835,42.0433,42.0433,0,1,0-78.4545,27.5572A42.0232,42.0232,0,0,1,110.2237,96.1942Z"/>
          <path class="cls-3" d="M437.5381,277.6024c-107-59-238.8336,4.9746-97,149,0,0-130.8766-89.1368-85-165,20.9757-34.6861,48-37,80-29,9.46,2.3651,47.64,25.4916,74,20,24-5,23-39-17-46-16.3719-2.8651-96,1-96,1s121-30,149-10c4.1127,2.9376,37.736,23.4363,49,36,26,29,17,84-33,66C452.44,296.3269,437.5381,277.6024,437.5381,277.6024Z"/>
          <path class="cls-4" d="M335.6626,301.4553a42.0539,42.0539,0,0,1,47.5532,44.82,42.0433,42.0433,0,1,0-81.0715-18.4912A42.0233,42.0233,0,0,1,335.6626,301.4553Z"/>
          <path class="cls-1" d="M589.5381,157.6024v-236l-194-7c-10,0-44.016,70.1869-46.7318,77.3747-47.49,125.6883,73.4042,147.9079,195.8327,161.6912C550.3831,154.315,584.0235,156.3743,589.5381,157.6024Z"/>
        </g>
        <g id="Слой_71" data-name="Слой 71">
          <path class="cls-5" d="M482.9034,308.5238l-1.0684-1.69c13.4463-8.5,21.4111-19.1119,23.6729-31.5415,2.8369-15.5879-3.99-31.5152-11.3252-41.2222-19.4863-25.7915-53.7539-53.0034-146.5811-34.3369-93.5137,18.8042-166.5312,17.6025-229.7881-3.78-53.3623-18.0386-82.9922-49.0693-83.4306-87.376-.2461-21.521,9.1582-44.4555,26.4824-64.58C78.083,23.9977,102.4063,7.5846,129.3545-2.2181l.6836,1.88c-26.6318,9.6875-50.6592,25.896-67.6572,45.6406C45.375,65.0565,36.1416,87.52,36.3829,108.5536c.4277,37.3925,29.5751,67.7588,82.0712,85.5044,62.91,21.2675,135.5987,22.4463,228.753,3.7138,40.4033-8.1235,72.5019-8.28,98.1308-.479,20.5938,6.2691,37.0928,17.9043,50.44,35.5708,7.5908,10.0459,14.6494,26.5616,11.6972,42.7867C505.1094,288.6527,496.8418,299.7132,482.9034,308.5238Z"/>
          <path class="cls-5" d="M482.61,308.6493l-.4824-1.9414c41.88-10.3907,63.6006-27.688,62.8154-50.0215-1.5254-43.39-87.0674-94.7617-186.7959-112.1792C211.8116,118.9505,189.28,71.3363,188.8741,45.2289,188.48,19.89,208.4522-1.108,221.836-3.8771l.4043,1.959C209.502.7171,190.4952,20.8534,190.8741,45.1976c.3964,25.49,22.7,72.03,167.6172,97.34,49.541,8.6518,96.56,25.4936,132.3964,47.4223,34.8848,21.3467,55.3155,45.6416,56.0547,66.6563C547.5157,272.93,536.82,295.1991,482.61,308.6493Z"/>
          <path class="cls-5" d="M257.3116,205.1883c-43.458,0-101.0674-4.831-134.3077-27.2461C97.69,160.8714,78.12,144.8182,75.5391,107.1366c-2.0859-30.4619,21.5693-52.2432,44.6836-54.9541,21.541-2.53,47.2432,10.9482,54.8086,56.3379l-.9863.164c-7.45-44.6982-32.6328-57.98-53.7061-55.5088-22.6582,2.6578-45.8476,24.0181-43.8017,53.8926,2.55,37.23,21.94,53.1289,47.0253,70.0449,33.6846,22.7144,92.6866,27.2725,136.2989,27.0694a713.1642,713.1642,0,0,0,87.4716-5.9248l.1426.99a714.1653,714.1653,0,0,1-87.5976,5.935C259.0293,205.1864,258.1719,205.1883,257.3116,205.1883Z"/>
          <path class="cls-5" d="M519.4258,212.0589c-45.8418-32.5336-106.584-45.1884-180.54-37.6152-64.3154,6.5864-116.3809-2.208-142.8516-24.1269A58.0616,58.0616,0,0,1,174.46,109.2191C173.211,94.6556,164.4131,83.3,150.32,78.0628c-16.2852-6.0527-35.6495-2.476-47.09,8.6988-11.458,11.1924-13.9228,28.5005-6.9394,48.7358,7.7255,22.3882,23.0586,39.4082,46.8769,52.0318l-.3516.663c-23.9941-12.7172-39.4443-29.8735-47.2343-52.45-7.083-20.5249-4.5528-38.11,7.124-49.5166,11.6406-11.3691,31.3281-15.0141,47.876-8.8657,14.375,5.3418,23.3506,16.9307,24.6259,31.7949a57.3336,57.3336,0,0,0,21.3038,40.5845c26.3183,21.792,78.1806,30.5274,142.2978,23.9585,74.1456-7.5928,135.0567,5.1079,181.05,37.75Z"/>
          <path class="cls-5" d="M481.1075,515.204c-.8262-.3682-83.169-37.3018-137.294-85.6412-20.248-18.0839-34.2265-35.6689-41.5478-52.2656-16.8555-38.21-13.0635-74.2812,10.1455-96.4917,26.56-25.4165,72.1845-26.7959,119.07-3.6l.1025.0586,31.5,20.5-1.0918,1.6758-31.45-20.4678c-46.0947-22.7861-90.8252-21.53-116.748,3.2783-22.5741,21.6031-26.2,56.8326-9.6983,94.2388,7.2052,16.3345,21.0166,33.689,41.05,51.5815,53.8944,48.1333,135.9521,84.94,136.7744,85.3051Z"/>
          <path class="cls-5" d="M571.5381,157.4814v-2.0738a161.5607,161.5607,0,0,0-26.2871-5.2329c-84.4219-9.5044-169.1289-22.9453-196.4443-72.6792C333.6446,49.889,337.3174,13.85,360.0352-32.68l-1.7969-.8775C335.2139,13.6,331.5557,50.24,347.0538,78.4579c27.7753,50.5727,113.03,64.1411,197.9726,73.7041A159.7108,159.7108,0,0,1,571.5381,157.4814Z"/>
          <path class="cls-5" d="M526.5381,510.564a390.3528,390.3528,0,0,0-38.9453-22.0554c-57.75-28.6108-96.9834-63.64-107.64-96.1044a57.3357,57.3357,0,0,1,3.6-45.6949c6.8427-13.2568,5.4238-27.8462-3.8926-40.0268-10.7247-14.022-29.3233-21.4317-45.2355-18.0117-15.9588,3.4282-27.4715,16.96-32.4169,38.103-5.4385,23.2549-1.5079,46.0058,12.0175,69.5532l.65-.3735c-13.4267-23.375-17.331-45.9478-11.9375-69.0088,4.875-20.8443,16.1846-34.1768,31.8447-37.5405,15.6348-3.3619,33.9258,3.9345,44.4815,17.7338,9.1328,11.941,10.5264,26.2388,3.8223,39.2276A58.0624,58.0624,0,0,0,379.24,392.638c10.7187,32.6548,50.0908,67.8428,108.02,96.5425a389.0966,389.0966,0,0,1,39.2773,22.2744Z"/>
        </g>
      </g>
    </g>
  </g>
</svg>
