<svg xmlns="http://www.w3.org/2000/svg" viewBox="0 0 848.2361 501.4284">
  <defs>
    <style>
      .cls-1 {
        isolation: isolate;
      }

      .cls-2 {
        opacity: 0.5;
        mix-blend-mode: overlay;
      }

      .cls-3 {
        opacity: 0.59;
      }

      .cls-4, .cls-5, .cls-6, .cls-7 {
        fill: #39dfff;
      }

      .cls-4, .cls-5, .cls-6 {
        stroke: #39dfff;
        stroke-miterlimit: 10;
        opacity: 0.8;
      }

      .cls-5 {
        stroke-width: 2px;
      }

      .cls-6 {
        mix-blend-mode: lighten;
      }
    </style>
  </defs>
  <g class="cls-1">
    <g id="ЦГ1">
      <g id="Слой_50" data-name="Слой 50">
        <g id="Слой_68" data-name="Слой 68">
          <g id="Слой_69" data-name="Слой 69">
            <g id="Слой_67" data-name="Слой 67">
              <path class="cls-2" d="M668.9478,636.4284S621.7249,451.4332,559.2332,403.2639c-25.0255-19.29-46.3041-31.7645-81.73-22.6271-54.6945,14.1073-57.654,107.1472,32.4842,93.0015Z"/>
            </g>
            <g id="Слой_66" data-name="Слой 66" class="cls-3">
              <path class="cls-4" d="M345.9594,461.2023c-85.6118-74.6165-190.6178,2.3691-206.96,37.7561-17.654,38.2274-16.6233,57.0672-12.27,82.3071,3.544,20.5474,2.55,10.5934,6.1874-9.15,25.1876-136.7135,192.4969-165.4632,231.407-77.9476C380.9139,531.4827,364.3253,477.2094,345.9594,461.2023Z"/>
              <path class="cls-5" d="M15.8315,324.8987c-12,85,62,110,148,102,0,0-111,61-172-50-37.5035-68.244-125-216-125-216Z"/>
              <path class="cls-4" d="M474.6145,412.15a42.0536,42.0536,0,0,0,32.162,56.8834,42.0433,42.0433,0,1,1,1.4115-83.1415A42.0234,42.0234,0,0,0,474.6145,412.15Z"/>
              <path class="cls-6" d="M-150.6685,12.3987s27.8247-24.6434,175-3c170,25,150,100,1,149-109.5907,36.04,31.4565,144.1662,162,195,42.4595,16.5338,153,39,191,57-36-25-166.7718-51.3971-201.79-69.1254-90.203-45.6665-143.21-131.8746-58.21-177.8746,80.09-43.3428,58-140-94-154"/>
              <path class="cls-4" d="M844.8315,482.8987c-209.0389,1.369-307.3791-102.83-271-67,0,0,88,68,120,176C727.6177,705.9272,869.7032,482.7358,844.8315,482.8987Z"/>
            </g>
            <g id="Слой_65" data-name="Слой 65">
              <path class="cls-7" d="M372.5273,476.9934c-50.7485-68.66-89.6992-89.8632-138.918-75.6338-10.1362,2.9307-25.019,8.8038-42.2519,15.6045-33.78,13.3321-75.7988,29.9473-97.3277,29.4512-38.2685-.8428-57.2377-14.6123-66.4121-26.0146-9.9941-12.4219-10.84-24.4893-10.8711-24.9961l1.9961-.1241c.0074.1192.8638,12.0293,10.5093,23.961,8.9165,11.0293,27.4,24.3506,64.8218,25.1738,21.1182.4873,62.937-16.0459,96.55-29.3115,17.28-6.8193,32.2031-12.709,42.43-15.666,25.9092-7.4883,48.3056-5.3438,70.4819,6.7578,21.897,11.9492,44.3311,34.0683,70.6,69.6084Z"/>
              <path class="cls-7" d="M-12.2076,518.1184c-22.1884,0-28.3252-8.7011-28.583-9.082l.8282-.5615c.0634.0928,6.5581,9.2314,29.9633,8.6152,21.6724-.5488,62.6138-9.7783,134.584-50.626,112.5879-63.9013,170.0615-90.3359,245.64,6.126l-.7871.6172c-36.2583-46.2764-69.8545-65.6553-108.9454-62.81-37.36,2.7119-79.6909,25.3086-135.4145,56.9356C52.7378,508.3919,11.5791,517.6009-10.21,518.096-10.8892,518.1116-11.5567,518.1184-12.2076,518.1184Z"/>
              <path class="cls-7" d="M82.6753,460.7659q-1.0548,0-2.0977-.0195c-27.5723-.5235-50.1558-11.3272-69.0405-33.0264l.7539-.6562c36.1846,41.5771,85.937,43.5468,161.3193,6.3867,28.7759-14.1856,82.4224-35.7774,118.4111-21.0147l-.38.9258c-35.6265-14.6172-88.9649,6.875-117.5889,20.9854C138.0171,452.1116,108.0937,460.7659,82.6753,460.7659Z"/>
              <path class="cls-7" d="M441.3149,577.0266l-.9668-.2558.0571-.2119c2.0474-7.5625,8.2207-34.7823,1.6963-67.5235-9.1914-46.1259-38.6274-81.6845-87.49-105.6875C297.4922,375.2893,222.8471,373.4,143.8188,371.3987c-46.2739-1.1719-79.269-7.4639-103.8369-19.8027-30.48-15.3086-48.0269-40.044-53.644-75.6192l.9873-.1562c12.6587,80.17,86.2251,92.7988,156.519,94.5781,79.1406,2.0039,153.8926,3.8965,211.2075,32.0508,26.9434,13.2353,48.2886,30.2988,63.4444,50.7158A137.8424,137.8424,0,0,1,443.0825,508.84c6.5664,32.9551.35,60.3643-1.7119,67.9805Z"/>
              <path class="cls-7" d="M438.3745,477.1018c-27.2637-61.3437-79.041-81.3886-154.92-104.9677-19.1128-5.94-56.21-19.001-89.9219-39.752-36.44-22.4307-59.2529-47.6562-67.8062-74.9775-9.7241-31.0625-.7373-64.6446,26.7115-99.8135l.7881.6152c-27.2344,34.8946-36.1656,68.169-26.545,98.8994,8.4785,27.085,31.147,52.1241,67.3755,74.4248,33.6187,20.6934,70.627,33.7237,89.6948,39.6485,35.7046,11.0947,67.4263,21.5664,94.0606,37.3838,28.915,17.1728,48.45,38.8222,61.477,68.1328Z"/>
              <path class="cls-7" d="M622.2524,501.6985c-22.0615-52.041-44.208-86.876-65.8242-103.5381-23.9639-18.4716-45.166-31.8584-81.3-22.539-28.9956,7.4785-41.9536,36.2207-37.3306,58.5615,4.3008,20.7822,24.8467,40.4922,69.6123,33.4609l.1553.9883a114.3047,114.3047,0,0,1-17.6934,1.4639c-33.3051.0029-49.2753-17.4522-53.0537-35.711-4.7158-22.789,8.4947-52.1064,38.06-59.7324,36.5732-9.4326,57.978,4.0752,82.1606,22.7149,21.7539,16.7685,44.0049,51.7392,66.1348,103.94Z"/>
              <path class="cls-7" d="M593.5005,523.9446c-15.9815-30.7432-43.75-65.2969-85.2779-55.3457-14.51,3.4805-28.3354-1.3857-37.938-13.3418-11.0542-13.7646-13.8027-33.5976-6.684-48.2285,7.142-14.6787,23.0258-22.6367,44.7441-22.377,23.8809.2745,45.0342,9.5274,64.6684,28.2862l-.5185.5429c-19.49-18.622-40.4766-27.8066-64.1587-28.0791-21.4409-.2714-37.0537,7.5518-44.061,21.9551-6.9961,14.38-4.2847,33.8838,6.5947,47.4307,9.4131,11.7207,22.9619,16.4853,37.1782,13.083,33.2461-7.9756,63.0225,11.3017,86.1177,55.7285Z"/>
              <path class="cls-7" d="M-21.1685,33.4339v.999c69.3472,3.903,123,28.8566,123,58.9658s-53.6528,55.0628-123,58.9658v.999c69.9007-3.9438,124-29.33,124-59.9648S48.7322,37.3777-21.1685,33.4339Z"/>
              <path class="cls-7" d="M433.3105,479.5364c-3.9224-37.5391-68.1787-87.98-134.812-105.8252-71.5273-19.1572-156.1538-48.2549-175.8364-103.6885-11.0581-31.1425-.8032-68.8379,30.48-112.0371,9.3608-12.9277,23.0244-46.3095,7.7343-80.123C152.41,59.1389,136.3462,43.43,113.1313,31.17,85.4619,16.5579,47.5424,6.8792.4262,2.4036l-.1894,1.99C47.0913,8.845,84.76,18.45,112.1972,32.9388c22.8125,12.0468,38.5777,27.4394,46.8565,45.748,14.9116,32.9766,1.5937,65.5234-7.5323,78.125-31.6914,43.7656-42.0356,82.08-30.7441,113.88,8.813,24.82,30.2207,45.9306,65.4458,64.5371,27.4639,14.5068,62.9756,27.3486,111.7578,40.4141,31.45,8.4228,64.3174,24.9052,90.1743,45.22,25.6265,20.1338,41.36,41.5947,43.1665,58.8808,1.3428,12.8526-4.8623,22.8662-18.4428,29.7637-12.75,6.475-30.95,13.98-49.0474,20.7512v7.95c12.2209-7.26,28.27-15.906,49.9526-26.9177C427.976,504.0823,434.7285,493.1028,433.3105,479.5364Z"/>
              <path class="cls-2" d="M302.74,377.1772c-125.8132-33.6964-241.0139-85.9418-145.908-217.2785,21-29,48-135-152-154l-60,349s80.3827,91.4021,153.72,93.0162c31.8451.7009,108.5156-36.1214,139.28-45.0162,50.267-14.5337,89,7,140,76l-41.3061,17.8627,22.64,48.402c15.269-9.7555,37.4014-21.4649,58.6665-32.2647C475.8911,483.4123,391.7662,401.0211,302.74,377.1772Z"/>
            </g>
          </g>
        </g>
      </g>
    </g>
  </g>
</svg>
