<svg xmlns="http://www.w3.org/2000/svg" viewBox="0 0 815.2361 445.8422">
  <defs>
    <style>
      .cls-1 {
        isolation: isolate;
      }

      .cls-2 {
        opacity: 0.5;
        mix-blend-mode: overlay;
      }

      .cls-3 {
        opacity: 0.59;
      }

      .cls-4, .cls-5, .cls-6 {
        fill: #39dfff;
        opacity: 0.8;
      }

      .cls-4, .cls-5, .cls-6, .cls-7, .cls-8, .cls-9 {
        stroke: #39dfff;
        stroke-miterlimit: 10;
      }

      .cls-5, .cls-7 {
        stroke-width: 2px;
      }

      .cls-6 {
        mix-blend-mode: lighten;
      }

      .cls-7, .cls-8, .cls-9 {
        fill: none;
      }

      .cls-9 {
        stroke-width: 0.75px;
      }
    </style>
  </defs>
  <g class="cls-1">
    <g id="ЦГ1">
      <g id="Слой_50" data-name="Слой 50">
        <g id="Слой_67" data-name="Слой 67">
          <path class="cls-2" d="M185.36,547.8618c40.0034-1.2157,74.9573,27.5679,92.7742-53.0784,10.354-46.8662,43.6977,72.1153,43.6977,72.1153-42.5775,2.248,12.6448-28.4264,63-54,58.06-29.4864-26.0653-111.8776-115.092-135.7215-125.8132-33.6964-241.0139-85.9417-145.908-217.2785,21-29,48-135-152-154l-60,349s80.3827,91.4021,153.72,93.0162c31.8451.7009,108.5156-36.1214,139.28-45.0162,50.267-14.5337,89,7,140,76Z"/>
          <path class="cls-2" d="M635.9478,636.4284S588.7249,451.4332,526.2332,403.2639c-25.0255-19.29-46.3041-31.7645-81.73-22.6271-54.6945,14.1073-57.654,107.1472,32.4842,93.0015Z"/>
        </g>
        <g id="Слой_66" data-name="Слой 66" class="cls-3">
          <path class="cls-4" d="M312.9594,461.2023c-85.6118-74.6165-190.6178,2.3691-206.96,37.7561-17.654,38.2274-16.6233,57.0672-12.27,82.3071,3.544,20.5474,2.55,10.5934,6.1874-9.15,25.1876-136.7135,192.4969-165.4632,231.407-77.9476C347.9139,531.4827,331.3253,477.2094,312.9594,461.2023Z"/>
          <path class="cls-5" d="M-17.1685,324.8987c-12,85,62,110,148,102,0,0-111,61-172-50-37.5035-68.244-125-216-125-216Z"/>
          <path class="cls-4" d="M441.6145,412.15a42.0536,42.0536,0,0,0,32.162,56.8834,42.0433,42.0433,0,1,1,1.4115-83.1415A42.0234,42.0234,0,0,0,441.6145,412.15Z"/>
          <path class="cls-6" d="M-183.6685,12.3987s27.8247-24.6434,175-3c170,25,150,100,1,149-109.5907,36.04,31.4565,144.1662,162,195,42.4595,16.5338,153,39,191,57-36-25-166.7718-51.3971-201.79-69.1254-90.203-45.6665-143.21-131.8746-58.21-177.8746,80.09-43.3428,58-140-94-154"/>
          <path class="cls-4" d="M811.8315,482.8987c-209.0389,1.369-307.3791-102.83-271-67,0,0,88,68,120,176C694.6177,705.9272,836.7032,482.7358,811.8315,482.8987Z"/>
        </g>
        <g id="Слой_65" data-name="Слой 65">
          <path class="cls-7" d="M340.3315,476.3987c-51-69-89.733-90.5337-140-76-30.7642,8.8948-107.4347,45.7171-139.28,45.0162-73.3375-1.6141-76.3071-50.0721-76.3071-50.0721"/>
          <path class="cls-8" d="M-73.3761,508.7565s25.3422,37.5253,165.2076-41.8578c111-63,169-91,245,6"/>
          <path class="cls-8" d="M258.8315,412.8987c-39-16-99.1394,11.7026-118,21-71,35-123.68,37.43-161.9174-6.507"/>
          <path class="cls-8" d="M407.8315,576.8987c1.0559-3.9856,33.0267-115.5307-86-174-57-28-129.8041-29.9444-211-32-79-2-145-19-157-95"/>
          <path class="cls-8" d="M119.8315,157.8987c-96,123,59.6028,191.6428,130.7711,213.758,71.5707,22.24,127.2289,42.242,155.2289,105.242"/>
          <path class="cls-8" d="M589.713,501.5036c-18.1262-42.7575-40.815-84.3424-65.98-103.74-25.0255-19.29-46.3041-31.7645-81.73-22.6271-54.6945,14.1073-57.654,107.1472,32.4842,93.0015"/>
          <path class="cls-9" d="M539.754,413.209c-24.0562-22.9841-46.8376-27.98-64.4137-28.1821-75.7034-.8688-52.006,95.6247-.2053,83.2075,37.3013-8.9415,65.6593,16.99,85.6981,55.5374"/>
          <path class="cls-7" d="M180.86,545.3618c40.0034-1.2157,74.9573,27.5679,92.7742-53.0784,10.354-46.8662,43.6977,72.1153,43.6977,72.1153-42.5775,2.248,12.6448-28.4264,63-54,58.06-29.4864-26.0653-111.8776-115.092-135.7215-125.8132-33.6964-241.0139-85.9417-145.908-217.2785,21-29,48-135-152-154"/>
          <ellipse class="cls-8" cx="-73.1685" cy="93.3987" rx="142.5" ry="60"/>
        </g>
      </g>
    </g>
  </g>
</svg>
