<svg xmlns="http://www.w3.org/2000/svg" viewBox="0 0 941.978 254.7851">
  <defs>
    <style>
      .cls-1 {
        isolation: isolate;
      }

      .cls-2 {
        opacity: 0.6;
      }

      .cls-3 {
        opacity: 0.44;
      }

      .cls-4 {
        opacity: 0.9;
      }

      .cls-5 {
        opacity: 0.08;
      }

      .cls-6 {
        opacity: 0.04;
      }

      .cls-7 {
        opacity: 0.59;
      }

      .cls-20, .cls-21, .cls-22, .cls-8, .cls-9 {
        fill: none;
        stroke-miterlimit: 10;
      }

      .cls-8, .cls-9 {
        stroke: #fff;
      }

      .cls-20, .cls-21, .cls-8, .cls-9 {
        stroke-width: 2px;
      }

      .cls-20, .cls-8 {
        opacity: 0.5;
      }

      .cls-21, .cls-8 {
        mix-blend-mode: difference;
      }

      .cls-9 {
        opacity: 0.32;
        mix-blend-mode: screen;
      }

      .cls-10 {
        opacity: 0.76;
        mix-blend-mode: color-burn;
      }

      .cls-11 {
        font-size: 36px;
        font-family: RobotoMono-Bold, Roboto Mono;
        font-weight: 700;
      }

      .cls-11, .cls-12 {
        fill: #9cffff;
      }

      .cls-12 {
        font-size: 16px;
        font-family: RobotoMono-Regular, Roboto Mono;
        letter-spacing: -0.075em;
      }

      .cls-13, .cls-19 {
        font-size: 18px;
        font-family: Roboto-Medium, Roboto;
        font-weight: 500;
      }

      .cls-13 {
        fill: #ff151b;
      }

      .cls-14 {
        letter-spacing: -0.0078em;
      }

      .cls-15 {
        letter-spacing: 0.0054em;
      }

      .cls-16 {
        letter-spacing: -0.0063em;
      }

      .cls-17 {
        letter-spacing: -0.0054em;
      }

      .cls-18 {
        letter-spacing: -0.0146em;
      }

      .cls-19 {
        fill: #a1f0f0;
      }

      .cls-20 {
        stroke: #9cffff;
        stroke-linecap: square;
      }

      .cls-21 {
        stroke: #98d0f2;
      }

      .cls-22 {
        stroke: #4afff2;
      }
    </style>
  </defs>
  <g class="cls-1">
    <g id="Слой_319" data-name="Слой 319">
      <g id="Слой_317_копия_2" data-name="Слой 317 копия 2">
        <polygon class="cls-8" points="910.349 63.872 910.349 171.082 937.495 198.228 937.495 253.399 4.483 253.399 4.483 198.228 31.629 171.082 31.629 63.872 2.387 34.63 2.387 1.013 461.867 3.286 609.063 2.314 632.342 25.581 793.68 25.581 771.238 3.139 939.591 1.013 939.591 34.63 910.349 63.872"/>
        <polygon class="cls-9" points="910.349 63.872 910.349 171.082 937.495 198.228 937.495 253.399 4.483 253.399 4.483 198.228 31.629 171.082 31.629 63.872 2.387 34.63 2.387 1.013 461.867 3.286 609.063 2.314 632.342 25.581 793.68 25.581 771.238 3.139 939.591 1.013 939.591 34.63 910.349 63.872"/>
        <polyline class="cls-10" points="872.495 233.399 62.198 233.399 62.198 28.399 555.038 28.399 600.006 73.367 808.329 73.367 828.978 73.367 872.978 30.399 872.495 73.367"/>
        <text class="cls-11" transform="translate(102.4888 66.1044)">Марс</text>
        <text class="cls-12" transform="translate(527.978 105.5737)">Информация от 20.11.2078<tspan x="0" y="19.2002">Температура на поверхности: −120 °C </tspan><tspan x="0" y="38.3999">Атмосферное давление: 0,4—0,87 кПа</tspan><tspan x="0" y="57.6001">Скорость ветра 2—7 м/с (лето)</tspan></text>
        <text class="cls-12" transform="translate(80.0171 105.5063)">Средний экваториальный радиус: 3396,9 ± 0,4 км<tspan x="0" y="19.2002">Площадь поверхности: 144 млн км²</tspan><tspan x="0" y="38.3999">Сила тяжести: 39,4 % от земной (в 2,5 раза слабее)</tspan><tspan x="0" y="57.6001">Длина солнечных суток: 24 часа 39 минут</tspan></text>
        <text class="cls-13" transform="translate(269.625 210.935)">С<tspan class="cls-14" x="11.751" y="0">та</tspan><tspan class="cls-15" x="30.1108" y="0">т</tspan><tspan class="cls-16" x="39.1108" y="0">у</tspan><tspan x="47.7593" y="0" xml:space="preserve">с запроса:  в дос</tspan><tspan class="cls-15" x="189.7817" y="0">т</tspan><tspan x="198.7817" y="0">упе к п</tspan><tspan class="cls-14" x="256.8071" y="0">о</tspan><tspan x="266.9146" y="0">л</tspan><tspan class="cls-17" x="277.2681" y="0">е</tspan><tspan class="cls-15" x="286.8306" y="0">т</tspan><tspan x="295.8306" y="0">у </tspan><tspan class="cls-18" x="309.0757" y="0">о</tspan><tspan x="319.0601" y="0">тказано</tspan></text>
        <text class="cls-19" transform="translate(271.625 211.935)">С<tspan class="cls-14" x="11.751" y="0">та</tspan><tspan class="cls-15" x="30.1108" y="0">т</tspan><tspan class="cls-16" x="39.1108" y="0">у</tspan><tspan x="47.7593" y="0" xml:space="preserve">с запроса:  в дос</tspan><tspan class="cls-15" x="189.7817" y="0">т</tspan><tspan x="198.7817" y="0">упе к п</tspan><tspan class="cls-14" x="256.8071" y="0">о</tspan><tspan x="266.9146" y="0">л</tspan><tspan class="cls-17" x="277.2681" y="0">е</tspan><tspan class="cls-15" x="286.8306" y="0">т</tspan><tspan x="295.8306" y="0">у </tspan><tspan class="cls-18" x="309.0757" y="0">о</tspan><tspan x="319.0601" y="0">тказано</tspan></text>
        <line class="cls-20" x1="81.3008" y1="76.1854" x2="583.478" y2="76.1854"/>
        <polyline class="cls-20" points="81.301 84.185 583.478 84.185 829.978 84.399"/>
        <polyline class="cls-20" points="78.301 183.185 580.478 183.185 826.978 183.399"/>
        <polygon class="cls-21" points="23.278 72.225 1 49.947 1 69.44 23.278 91.718 23.278 72.225"/>
        <polygon class="cls-21" points="23.278 102.857 1 80.579 1 100.072 23.278 122.35 23.278 102.857"/>
        <polygon class="cls-21" points="23.278 130.704 1 108.426 1 127.919 23.278 150.197 23.278 130.704"/>
        <polygon class="cls-21" points="918.7 72.225 940.978 49.947 940.978 69.44 918.7 91.718 918.7 72.225"/>
        <polygon class="cls-21" points="918.7 102.857 940.978 80.579 940.978 100.072 918.7 122.35 918.7 102.857"/>
        <polygon class="cls-21" points="918.7 130.704 940.978 108.426 940.978 127.919 918.7 150.197 918.7 130.704"/>
        <polygon class="cls-21" points="624.463 1.339 636.188 13.246 668.712 13.246 657.547 1.899 624.463 1.339"/>
        <polygon class="cls-21" points="674.463 1.339 686.188 13.246 718.712 13.246 707.547 1.899 674.463 1.339"/>
        <polygon class="cls-21" points="723.17 1.839 734.395 13.246 766.919 13.246 756.254 2.399 723.17 1.839"/>
        <polygon class="cls-22" points="910.349 63.872 910.349 171.082 937.495 198.228 937.495 253.399 4.483 253.399 4.483 198.228 31.629 171.082 31.629 63.872 2.387 34.63 2.387 1.013 461.867 3.286 609.063 2.314 632.342 25.581 793.68 25.581 771.238 3.139 939.591 1.013 939.591 34.63 910.349 63.872"/>
      </g>
    </g>
  </g>
</svg>
